%
M48
M72
T01C0.0130
T02C0.0157
T03C0.0320
T04C0.0354
T05C0.0400
T06C0.0472
T07C0.1378
%
T01
X37742Y20481
X39218Y19398
T02
X35774Y17331
X38333Y14674
X38333Y12902
X39415Y12705
X39711Y12410
X40498Y13000
X40793Y12705
X41088Y12410
X40793Y12114
X41777Y12607
X41088Y13000
X41777Y13492
X41777Y11327
X44238Y10343
X46305Y11130
X46305Y11524
X46305Y11918
X46305Y12311
X46305Y12705
X46305Y13492
X46305Y13886
X37545Y9752
X35583Y9746
X33608Y9752
X31640Y9949
X30951Y12311
X31148Y13394
X30754Y13394
X30754Y13788
X29966Y13788
X29573Y13788
X29573Y14181
X29966Y14181
X29966Y13394
X29081Y14477
X28293Y14477
X27998Y14181
X28293Y13886
X28392Y13394
X27998Y13394
X26620Y13394
X25734Y13886
X26226Y14181
X26620Y14181
X26620Y14575
X26226Y14575
X26226Y14969
X26620Y15264
X26620Y16248
X25734Y17134
X25833Y17528
X26226Y17528
X26620Y17528
X26620Y17922
X26226Y17922
X25833Y17922
X25144Y17725
X23175Y17725
X22486Y17331
X22092Y17331
X21699Y17331
X21699Y16937
X21699Y16544
X22092Y16544
X22092Y16937
X22486Y16937
X22486Y16544
X22486Y15362
X22092Y15362
X21699Y15362
X21699Y14969
X22092Y14969
X22092Y14575
X21699Y14575
X22486Y14575
X22486Y14969
X22585Y13788
X24159Y13197
X25439Y13000
X25833Y13000
X26226Y13000
X26620Y13000
X24750Y11130
X24651Y10737
X24356Y10441
X23962Y10343
X25931Y9851
X27309Y10441
X26817Y8473
X26423Y8473
X26029Y8473
X25537Y7882
X26325Y6799
X28490Y7292
X31246Y6209
X32624Y5126
X33018Y4929
X33411Y4437
X33411Y4044
X31049Y4634
X30655Y4831
X28392Y4240
X27998Y4437
X27604Y4634
X24061Y6799
X21994Y4831
X16876Y10638
X19337Y12607
X19337Y13000
X19337Y13788
X20321Y13985
X20321Y14378
X20321Y14772
X20321Y15166
X19730Y14674
X18943Y15461
X20321Y16445
X20321Y16839
X20321Y17233
X20321Y17626
X20321Y18020
X21108Y18512
X21699Y19299
X22092Y19299
X22486Y19299
X25931Y19299
X26325Y19299
X27014Y18611
X27309Y18315
X29474Y16051
X29081Y15855
X35774Y12508
X36561Y7292
X37447Y7292
X37939Y7292
X22191Y11524
X21797Y11524
X21403Y11524
X21010Y11524
X13825Y15559
X12053Y16642
X11069Y15067
X9691Y15067
X8116Y15067
X11364Y14181
X9789Y12311
X9789Y11918
X8116Y12902
X16187Y16248
X16187Y18315
X10183Y18512
X10183Y19988
X9002Y20776
X9592Y21071
X18549Y26583
X27604Y25008
X31049Y23335
X32427Y23729
X32427Y24221
X34789Y24516
X34789Y23827
X34789Y23433
X36167Y24319
X36069Y22548
X36069Y22154
X34986Y21859
X33608Y21859
X40596Y24811
X42663Y24811
X43352Y19398
T03
X12348Y4726
X12348Y5526
X12412Y9063
X10512Y9063
X7722Y10730
X7722Y11530
X16187Y11222
X16187Y12022
X25431Y6307
X26431Y6307
X23870Y5323
X23070Y5323
X4179Y19534
X3679Y20284
X4679Y20284
X22619Y20874
X24519Y20874
T04
X44966Y20953
X44966Y19221
T05
X25159Y25000
X24159Y25000
X23159Y25000
X23159Y26000
X24159Y26000
X25159Y26000
X14348Y26099
X13348Y26099
X12348Y26099
X11348Y26099
X10348Y26099
X10348Y25099
X11348Y25099
X12348Y25099
X13348Y25099
X14348Y25099
X14211Y20315
X15211Y20315
X15211Y19315
X14211Y19315
X14211Y18315
X15211Y18315
X15211Y17315
X14211Y17315
X14211Y16315
X15211Y16315
X6482Y16461
X5482Y16461
X5482Y17461
X6482Y17461
X6482Y15461
X5482Y15461
X5482Y14461
X6482Y14461
X6482Y13461
X5482Y13461
X33864Y6217
X34864Y6217
X35864Y6217
X36864Y6217
X37864Y6217
X38864Y6217
X38864Y5217
X37864Y5217
X36864Y5217
X35864Y5217
X34864Y5217
X33864Y5217
T06
X33962Y14969
X2998Y10555
X2998Y9555
X2998Y8555
T07
X7525Y7685
X7525Y23630
X40793Y23237
X40793Y7685
M30
