G75*
G70*
%OFA0B0*%
%FSLAX24Y24*%
%IPPOS*%
%LPD*%
%AMOC8*
5,1,8,0,0,1.08239X$1,22.5*
%
%ADD10R,0.0787X0.0157*%
%ADD11R,0.0157X0.0787*%
%ADD12R,0.0098X0.0591*%
%ADD13R,0.0394X0.0787*%
%ADD14R,0.0800X0.0125*%
%ADD15R,0.0118X0.0591*%
%ADD16R,0.0492X0.0315*%
%ADD17R,0.0492X0.0453*%
%ADD18R,0.0472X0.0453*%
%ADD19R,0.0984X0.0374*%
%ADD20R,0.0866X0.0453*%
%ADD21R,0.0453X0.0591*%
%ADD22R,0.0886X0.0197*%
%ADD23R,0.1575X0.0807*%
%ADD24R,0.1378X0.0807*%
%ADD25R,0.1260X0.1476*%
%ADD26R,0.0709X0.0630*%
%ADD27R,0.0630X0.0709*%
%ADD28R,0.0600X0.0300*%
%ADD29R,0.0630X0.0710*%
%ADD30R,0.0591X0.0591*%
%ADD31R,0.0710X0.0630*%
%ADD32R,0.0610X0.0236*%
%ADD33R,0.0748X0.1339*%
%ADD34R,0.1339X0.0748*%
%ADD35R,0.0310X0.0350*%
D10*
X021010Y013099D03*
X021010Y013414D03*
X021010Y013729D03*
X021010Y014044D03*
X021010Y014359D03*
X021010Y014674D03*
X021010Y014988D03*
X021010Y015303D03*
X021010Y015618D03*
X021010Y015933D03*
X021010Y016248D03*
X021010Y016563D03*
X021010Y016878D03*
X021010Y017193D03*
X021010Y017508D03*
X021010Y017823D03*
X027309Y017823D03*
X027309Y017508D03*
X027309Y017193D03*
X027309Y016878D03*
X027309Y016563D03*
X027309Y016248D03*
X027309Y015933D03*
X027309Y015618D03*
X027309Y015303D03*
X027309Y014988D03*
X027309Y014674D03*
X027309Y014359D03*
X027309Y014044D03*
X027309Y013729D03*
X027309Y013414D03*
X027309Y013099D03*
D11*
X026600Y012311D03*
X026285Y012311D03*
X025970Y012311D03*
X025655Y012311D03*
X025340Y012311D03*
X025025Y012311D03*
X024711Y012311D03*
X024396Y012311D03*
X024081Y012311D03*
X023766Y012311D03*
X023451Y012311D03*
X023136Y012311D03*
X022821Y012311D03*
X022506Y012311D03*
X022191Y012311D03*
X021876Y012311D03*
X021797Y018611D03*
X022112Y018611D03*
X022427Y018611D03*
X022742Y018611D03*
X023057Y018611D03*
X023372Y018611D03*
X023687Y018611D03*
X024002Y018611D03*
X024317Y018611D03*
X024632Y018611D03*
X024947Y018611D03*
X025262Y018611D03*
X025577Y018611D03*
X025892Y018611D03*
X026207Y018611D03*
X026522Y018611D03*
D12*
X026600Y009083D03*
X026403Y009083D03*
X026207Y009083D03*
X026010Y009083D03*
X025813Y009083D03*
X025813Y007351D03*
X026010Y007351D03*
X026207Y007351D03*
X026403Y007351D03*
X026600Y007351D03*
D13*
X031620Y011740D03*
X032211Y011740D03*
X032801Y011740D03*
X033392Y011740D03*
X033982Y011740D03*
X034573Y011740D03*
X035163Y011740D03*
X035754Y011740D03*
X036344Y011740D03*
X036935Y011740D03*
X036935Y018040D03*
X036344Y018040D03*
X035754Y018040D03*
X035163Y018040D03*
X034573Y018040D03*
X033982Y018040D03*
X033392Y018040D03*
X032801Y018040D03*
X032211Y018040D03*
X031620Y018040D03*
D14*
X033172Y022407D03*
X033172Y022657D03*
X033172Y022907D03*
X033172Y023157D03*
X033172Y023407D03*
X033172Y023657D03*
X033172Y023907D03*
X033172Y024157D03*
X033172Y024407D03*
X033172Y024657D03*
X035422Y024657D03*
X035422Y024407D03*
X035422Y024157D03*
X035422Y023907D03*
X035422Y023657D03*
X035422Y023407D03*
X035422Y023157D03*
X035422Y022907D03*
X035422Y022657D03*
X035422Y022407D03*
D15*
X011827Y012882D03*
X011571Y012882D03*
X011315Y012882D03*
X011059Y012882D03*
X010803Y012882D03*
X010547Y012882D03*
X010291Y012882D03*
X010035Y012882D03*
X009779Y012882D03*
X009524Y012882D03*
X009524Y010559D03*
X009779Y010559D03*
X010035Y010559D03*
X010291Y010559D03*
X010547Y010559D03*
X010803Y010559D03*
X011059Y010559D03*
X011315Y010559D03*
X011571Y010559D03*
X011827Y010559D03*
D16*
X045764Y011051D03*
X045764Y011485D03*
X045764Y011918D03*
X045764Y012351D03*
X045764Y012784D03*
X045764Y013217D03*
X045764Y013650D03*
X045764Y014083D03*
D17*
X044730Y010294D03*
D18*
X041187Y010294D03*
D19*
X045518Y015756D03*
D20*
X041049Y015756D03*
X045587Y010136D03*
D21*
X040744Y010992D03*
X040744Y014063D03*
D22*
X044041Y019457D03*
X044041Y019772D03*
X044041Y020087D03*
X044041Y020402D03*
X044041Y020717D03*
D23*
X045714Y022026D03*
X045714Y018148D03*
D24*
X044041Y018148D03*
X044041Y022026D03*
D25*
X023057Y007193D03*
X014711Y007193D03*
D26*
X025439Y005382D03*
X026423Y005382D03*
X026423Y004280D03*
X025439Y004280D03*
X042270Y018355D03*
X042270Y019457D03*
X042270Y020422D03*
X042270Y021524D03*
X004671Y021701D03*
X003687Y021701D03*
X003687Y022803D03*
X004671Y022803D03*
D27*
X007073Y020776D03*
X008175Y020776D03*
X010222Y021071D03*
X011325Y021071D03*
X011423Y015953D03*
X010321Y015953D03*
X021837Y022449D03*
X022939Y022449D03*
X024199Y022449D03*
X025301Y022449D03*
X037092Y022646D03*
X038195Y022646D03*
X038195Y023630D03*
X037092Y023630D03*
X037092Y024516D03*
X038195Y024516D03*
X038195Y025402D03*
X037092Y025402D03*
X031600Y010540D03*
X030498Y010540D03*
X025203Y009555D03*
X024100Y009555D03*
X013195Y007488D03*
X012092Y007488D03*
X010833Y007488D03*
X009730Y007488D03*
D28*
X018730Y024160D03*
X020730Y024160D03*
X020730Y025660D03*
X018730Y025660D03*
D29*
X005686Y004437D03*
X006806Y004437D03*
X025568Y010441D03*
X026688Y010441D03*
X040430Y009260D03*
X041550Y009260D03*
X041353Y019398D03*
X040233Y019398D03*
X040233Y020481D03*
X041353Y020481D03*
X034562Y020382D03*
X034562Y021268D03*
X033442Y021268D03*
X033442Y020382D03*
X039446Y025402D03*
X040566Y025402D03*
X041513Y025402D03*
X042633Y025402D03*
X020290Y026583D03*
X019170Y026583D03*
X011432Y016839D03*
X010312Y016839D03*
D30*
X006935Y005422D03*
X005557Y005422D03*
X035478Y020382D03*
X035478Y021268D03*
X036856Y021268D03*
X036856Y020382D03*
D31*
X039514Y011690D03*
X039514Y010570D03*
X038825Y009033D03*
X037840Y009033D03*
X036856Y009033D03*
X035872Y009033D03*
X034888Y009033D03*
X033903Y009033D03*
X033903Y007913D03*
X034888Y007913D03*
X035872Y007913D03*
X036856Y007913D03*
X037840Y007913D03*
X038825Y007913D03*
X031935Y006178D03*
X031935Y005059D03*
X024750Y007519D03*
X024750Y008639D03*
X013037Y013917D03*
X012053Y013917D03*
X010380Y013917D03*
X010380Y015037D03*
X012053Y015037D03*
X013037Y015037D03*
X007427Y018740D03*
X007427Y019859D03*
D32*
X008628Y020049D03*
X008628Y019549D03*
X008628Y019049D03*
X008628Y018549D03*
X010754Y018549D03*
X010754Y019049D03*
X010754Y019549D03*
X010754Y020049D03*
D33*
X007801Y009359D03*
X006266Y009359D03*
D34*
X010577Y005894D03*
X010577Y004359D03*
X018057Y010855D03*
X018057Y012390D03*
D35*
X034006Y009746D03*
X034766Y009746D03*
X035974Y009746D03*
X036734Y009746D03*
X037943Y009746D03*
X038703Y009746D03*
X038323Y010546D03*
X036354Y010546D03*
X034386Y010546D03*
M02*
