G75*
G70*
%OFA0B0*%
%FSLAX24Y24*%
%IPPOS*%
%LPD*%
%AMOC8*
5,1,8,0,0,1.08239X$1,22.5*
%
%ADD10C,0.0480*%
%ADD11OC8,0.0600*%
%ADD12R,0.0600X0.0600*%
%ADD13R,0.0709X0.0709*%
%ADD14C,0.0709*%
%ADD15OC8,0.0480*%
%ADD16R,0.0709X0.0630*%
%ADD17OC8,0.0500*%
%ADD18C,0.0500*%
%ADD19C,0.0118*%
%ADD20C,0.0315*%
%ADD21C,0.0236*%
%ADD22C,0.0079*%
D10*
X010512Y009063D03*
X012412Y009063D03*
X025431Y006307D03*
X026431Y006307D03*
X024519Y020874D03*
X022619Y020874D03*
D11*
X023159Y025000D03*
X024159Y025000D03*
X025159Y025000D03*
X024159Y026000D03*
X023159Y026000D03*
X014348Y025099D03*
X013348Y025099D03*
X012348Y025099D03*
X011348Y025099D03*
X010348Y025099D03*
X010348Y026099D03*
X011348Y026099D03*
X012348Y026099D03*
X013348Y026099D03*
X014211Y020315D03*
X015211Y020315D03*
X015211Y019315D03*
X014211Y019315D03*
X014211Y018315D03*
X015211Y018315D03*
X015211Y017315D03*
X014211Y017315D03*
X014211Y016315D03*
X006482Y016461D03*
X005482Y016461D03*
X005482Y017461D03*
X006482Y017461D03*
X006482Y015461D03*
X005482Y015461D03*
X005482Y014461D03*
X006482Y014461D03*
X005482Y013461D03*
X033864Y006217D03*
X034864Y006217D03*
X035864Y006217D03*
X036864Y006217D03*
X037864Y006217D03*
X038864Y006217D03*
X038864Y005217D03*
X037864Y005217D03*
X036864Y005217D03*
X035864Y005217D03*
X034864Y005217D03*
D12*
X033864Y005217D03*
X015211Y016315D03*
X006482Y013461D03*
X014348Y026099D03*
X025159Y026000D03*
D13*
X002998Y010555D03*
D14*
X002998Y009555D03*
X002998Y008555D03*
D15*
X004179Y019534D03*
X003679Y020284D03*
X004679Y020284D03*
D16*
X023175Y017095D03*
X024159Y017095D03*
X025144Y017095D03*
X025144Y015992D03*
X024159Y015992D03*
X023175Y015992D03*
X023175Y014929D03*
X024159Y014929D03*
X025144Y014929D03*
X025144Y013827D03*
X024159Y013827D03*
X023175Y013827D03*
D17*
X016187Y011222D03*
X007722Y011530D03*
X012348Y005526D03*
X023870Y005323D03*
D18*
X023070Y005323D03*
X012348Y004726D03*
X007722Y010730D03*
X016187Y012022D03*
D19*
X004880Y005532D02*
X004880Y003761D01*
X033323Y003761D01*
X033244Y003793D01*
X033171Y003866D01*
X031173Y003866D01*
X031069Y003970D01*
X030478Y004561D01*
X030478Y004591D01*
X030405Y004664D01*
X030360Y004772D01*
X030360Y004890D01*
X030405Y004998D01*
X030488Y005081D01*
X030597Y005126D01*
X030714Y005126D01*
X030823Y005081D01*
X030906Y004998D01*
X030942Y004910D01*
X030990Y004929D01*
X031108Y004929D01*
X031216Y004884D01*
X031299Y004801D01*
X031344Y004693D01*
X031344Y004614D01*
X033171Y004614D01*
X033244Y004688D01*
X033353Y004733D01*
X033470Y004733D01*
X033579Y004688D01*
X033662Y004605D01*
X033707Y004496D01*
X033707Y004379D01*
X033662Y004270D01*
X033632Y004240D01*
X033662Y004211D01*
X033707Y004102D01*
X033707Y003985D01*
X033662Y003876D01*
X033579Y003793D01*
X033500Y003761D01*
X043438Y003761D01*
X043438Y005532D01*
X043547Y005936D01*
X043547Y005936D01*
X043756Y006298D01*
X043756Y006298D01*
X044051Y006593D01*
X044051Y006593D01*
X044413Y006802D01*
X044413Y006802D01*
X044817Y006910D01*
X046490Y006910D01*
X046490Y010897D01*
X046472Y010880D01*
X046364Y010835D01*
X046246Y010835D01*
X046199Y010855D01*
X041114Y010855D01*
X041010Y010958D01*
X040031Y011937D01*
X039539Y011937D01*
X039435Y012041D01*
X039238Y012238D01*
X039238Y012465D01*
X039165Y012538D01*
X039120Y012646D01*
X039120Y012764D01*
X039165Y012872D01*
X039248Y012955D01*
X039357Y013000D01*
X039474Y013000D01*
X039583Y012955D01*
X039666Y012872D01*
X039711Y012764D01*
X039711Y012705D01*
X039769Y012705D01*
X039878Y012660D01*
X039951Y012587D01*
X040523Y012587D01*
X040498Y012646D01*
X040498Y012705D01*
X040439Y012705D01*
X040331Y012750D01*
X040248Y012833D01*
X040203Y012942D01*
X040203Y013059D01*
X040248Y013168D01*
X040331Y013251D01*
X040439Y013296D01*
X040557Y013296D01*
X040665Y013251D01*
X040680Y013236D01*
X040813Y013369D01*
X040917Y013473D01*
X041260Y013473D01*
X041359Y013374D01*
X041507Y013374D01*
X041482Y013434D01*
X041482Y013551D01*
X041527Y013660D01*
X041610Y013743D01*
X041719Y013788D01*
X041836Y013788D01*
X041945Y013743D01*
X042028Y013660D01*
X042064Y013571D01*
X045740Y013571D01*
X046010Y013841D01*
X046010Y013945D01*
X046055Y014053D01*
X046138Y014136D01*
X046246Y014181D01*
X046364Y014181D01*
X046472Y014136D01*
X046490Y014119D01*
X046490Y024012D01*
X044817Y024012D01*
X044413Y024120D01*
X044413Y024120D01*
X044051Y024329D01*
X044051Y024329D01*
X043756Y024624D01*
X043756Y024624D01*
X043547Y024986D01*
X043547Y024986D01*
X043438Y025390D01*
X043438Y027161D01*
X004880Y027161D01*
X004880Y025390D01*
X004772Y024986D01*
X004772Y024986D01*
X004563Y024624D01*
X004563Y024624D01*
X004563Y024624D01*
X004268Y024329D01*
X003906Y024120D01*
X003502Y024012D01*
X001829Y024012D01*
X001829Y006910D01*
X003502Y006910D01*
X003906Y006802D01*
X003906Y006802D01*
X004268Y006593D01*
X004268Y006593D01*
X004563Y006298D01*
X004772Y005936D01*
X004880Y005532D01*
X004880Y005534D02*
X012327Y005534D01*
X012327Y005547D02*
X012327Y005505D01*
X011939Y005505D01*
X011939Y005357D01*
X012179Y005117D01*
X012327Y005117D01*
X012327Y005505D01*
X012369Y005505D01*
X012369Y005117D01*
X012518Y005117D01*
X012757Y005357D01*
X012757Y005505D01*
X012369Y005505D01*
X012369Y005547D01*
X012327Y005547D01*
X011939Y005547D01*
X011939Y005696D01*
X012179Y005935D01*
X012327Y005935D01*
X012327Y005547D01*
X012369Y005547D02*
X012369Y005935D01*
X012518Y005935D01*
X012757Y005696D01*
X012757Y005547D01*
X012369Y005547D01*
X012369Y005534D02*
X020833Y005534D01*
X020833Y005650D02*
X012757Y005650D01*
X012686Y005767D02*
X020833Y005767D01*
X020833Y005884D02*
X012569Y005884D01*
X012369Y005884D02*
X012327Y005884D01*
X012327Y005767D02*
X012369Y005767D01*
X012369Y005650D02*
X012327Y005650D01*
X012327Y005417D02*
X012369Y005417D01*
X012369Y005301D02*
X012327Y005301D01*
X012327Y005184D02*
X012369Y005184D01*
X012425Y005114D02*
X012271Y005114D01*
X012129Y005055D01*
X012020Y004946D01*
X011961Y004803D01*
X011961Y004649D01*
X012020Y004507D01*
X012129Y004398D01*
X012271Y004338D01*
X012425Y004338D01*
X012568Y004398D01*
X012677Y004507D01*
X012736Y004649D01*
X012736Y004803D01*
X012677Y004946D01*
X012568Y005055D01*
X012425Y005114D01*
X012538Y005067D02*
X020833Y005067D01*
X020833Y004951D02*
X012672Y004951D01*
X012723Y004834D02*
X020833Y004834D01*
X020833Y004718D02*
X012736Y004718D01*
X012716Y004601D02*
X020833Y004601D01*
X020833Y004484D02*
X012655Y004484D01*
X012496Y004368D02*
X020833Y004368D01*
X020833Y004364D02*
X021325Y003872D01*
X021428Y003768D01*
X029056Y003768D01*
X031201Y005914D01*
X031305Y005914D01*
X031413Y005959D01*
X031496Y006042D01*
X031541Y006150D01*
X031541Y006268D01*
X031496Y006376D01*
X031413Y006459D01*
X031305Y006504D01*
X031187Y006504D01*
X031079Y006459D01*
X030996Y006376D01*
X030951Y006268D01*
X030951Y006164D01*
X028909Y004122D01*
X028662Y004122D01*
X028687Y004182D01*
X028687Y004299D01*
X028642Y004408D01*
X028559Y004491D01*
X028450Y004536D01*
X028333Y004536D01*
X028285Y004516D01*
X028248Y004605D01*
X028165Y004688D01*
X028057Y004733D01*
X027939Y004733D01*
X027891Y004713D01*
X027855Y004801D01*
X027771Y004884D01*
X027663Y004929D01*
X027545Y004929D01*
X027437Y004884D01*
X027354Y004801D01*
X027317Y004713D01*
X027076Y004713D01*
X031721Y009359D01*
X031837Y009474D01*
X031837Y009728D01*
X031890Y009782D01*
X031935Y009890D01*
X031935Y010008D01*
X031890Y010116D01*
X031807Y010199D01*
X031698Y010244D01*
X031581Y010244D01*
X031472Y010199D01*
X031389Y010116D01*
X031344Y010008D01*
X031344Y009890D01*
X031389Y009782D01*
X031443Y009728D01*
X031443Y009637D01*
X026834Y005028D01*
X024154Y005028D01*
X024279Y005154D01*
X024279Y005302D01*
X023891Y005302D01*
X023891Y005344D01*
X023849Y005344D01*
X023849Y005302D01*
X023461Y005302D01*
X023461Y005154D01*
X023587Y005028D01*
X023324Y005028D01*
X023399Y005103D01*
X023458Y005246D01*
X023458Y005400D01*
X023399Y005543D01*
X023290Y005652D01*
X023148Y005711D01*
X022993Y005711D01*
X022851Y005652D01*
X022742Y005543D01*
X022683Y005400D01*
X022683Y005246D01*
X022742Y005103D01*
X022817Y005028D01*
X022215Y005028D01*
X022161Y005081D01*
X022053Y005126D01*
X021935Y005126D01*
X021827Y005081D01*
X021777Y005032D01*
X021777Y010860D01*
X022146Y011229D01*
X022250Y011229D01*
X022358Y011274D01*
X022441Y011357D01*
X022486Y011465D01*
X022486Y011583D01*
X022441Y011691D01*
X022358Y011774D01*
X022250Y011819D01*
X022132Y011819D01*
X022024Y011774D01*
X021994Y011745D01*
X021964Y011774D01*
X021856Y011819D01*
X021738Y011819D01*
X021630Y011774D01*
X021600Y011745D01*
X021571Y011774D01*
X021462Y011819D01*
X021345Y011819D01*
X021236Y011774D01*
X021207Y011745D01*
X021177Y011774D01*
X021068Y011819D01*
X020951Y011819D01*
X020842Y011774D01*
X020759Y011691D01*
X020714Y011583D01*
X020714Y011465D01*
X020759Y011357D01*
X020833Y011283D01*
X020833Y004364D01*
X020945Y004251D02*
X004880Y004251D01*
X004880Y004135D02*
X021062Y004135D01*
X021179Y004018D02*
X004880Y004018D01*
X004880Y003901D02*
X021295Y003901D01*
X021325Y003872D02*
X021325Y003872D01*
X021412Y003785D02*
X004880Y003785D01*
X004880Y004368D02*
X012201Y004368D01*
X012042Y004484D02*
X004880Y004484D01*
X004880Y004601D02*
X011980Y004601D01*
X011961Y004718D02*
X004880Y004718D01*
X004880Y004834D02*
X011973Y004834D01*
X012024Y004951D02*
X004880Y004951D01*
X004880Y005067D02*
X012159Y005067D01*
X012112Y005184D02*
X004880Y005184D01*
X004880Y005301D02*
X011995Y005301D01*
X011939Y005417D02*
X004880Y005417D01*
X004848Y005650D02*
X011939Y005650D01*
X012011Y005767D02*
X004817Y005767D01*
X004786Y005884D02*
X012127Y005884D01*
X012757Y005417D02*
X020833Y005417D01*
X020833Y005301D02*
X012701Y005301D01*
X012585Y005184D02*
X020833Y005184D01*
X021777Y005184D02*
X022708Y005184D01*
X022683Y005301D02*
X021777Y005301D01*
X021777Y005417D02*
X022690Y005417D01*
X022738Y005534D02*
X021777Y005534D01*
X021777Y005650D02*
X022849Y005650D01*
X023291Y005650D02*
X023619Y005650D01*
X023701Y005732D02*
X023461Y005493D01*
X023461Y005344D01*
X023849Y005344D01*
X023849Y005732D01*
X023701Y005732D01*
X023849Y005650D02*
X023891Y005650D01*
X023891Y005732D02*
X024040Y005732D01*
X024279Y005493D01*
X024279Y005344D01*
X023891Y005344D01*
X023891Y005732D01*
X023891Y005534D02*
X023849Y005534D01*
X023849Y005417D02*
X023891Y005417D01*
X024122Y005650D02*
X027456Y005650D01*
X027340Y005534D02*
X024238Y005534D01*
X024279Y005417D02*
X027223Y005417D01*
X027106Y005301D02*
X024279Y005301D01*
X024279Y005184D02*
X026990Y005184D01*
X026873Y005067D02*
X024193Y005067D01*
X023548Y005067D02*
X023363Y005067D01*
X023432Y005184D02*
X023461Y005184D01*
X023458Y005301D02*
X023461Y005301D01*
X023451Y005417D02*
X023461Y005417D01*
X023503Y005534D02*
X023403Y005534D01*
X022778Y005067D02*
X022175Y005067D01*
X021994Y004831D02*
X026915Y004831D01*
X031640Y009555D01*
X031640Y009949D01*
X031840Y009732D02*
X033313Y009732D01*
X033313Y009694D02*
X033358Y009585D01*
X033441Y009502D01*
X033549Y009457D01*
X033667Y009457D01*
X033775Y009502D01*
X033858Y009585D01*
X033876Y009627D01*
X033935Y009569D01*
X035343Y009569D01*
X035416Y009496D01*
X035524Y009451D01*
X035642Y009451D01*
X035750Y009496D01*
X035833Y009579D01*
X035851Y009621D01*
X035897Y009575D01*
X037305Y009575D01*
X037378Y009502D01*
X037486Y009457D01*
X037604Y009457D01*
X037712Y009502D01*
X037795Y009585D01*
X037840Y009694D01*
X037840Y009811D01*
X037795Y009920D01*
X037712Y010003D01*
X037604Y010048D01*
X037486Y010048D01*
X037378Y010003D01*
X037305Y009929D01*
X036044Y009929D01*
X035852Y010121D01*
X035748Y010225D01*
X035405Y010225D01*
X035306Y010126D01*
X034174Y010126D01*
X032402Y011898D01*
X031221Y011898D01*
X031075Y012043D01*
X031118Y012061D01*
X031201Y012144D01*
X031246Y012253D01*
X031246Y012370D01*
X031201Y012479D01*
X031118Y012562D01*
X031009Y012607D01*
X030892Y012607D01*
X030832Y012582D01*
X030537Y012877D01*
X030537Y015239D01*
X030434Y015343D01*
X029770Y016007D01*
X029770Y016110D01*
X029725Y016219D01*
X029642Y016302D01*
X029533Y016347D01*
X029416Y016347D01*
X029307Y016302D01*
X029224Y016219D01*
X029187Y016130D01*
X029139Y016150D01*
X029022Y016150D01*
X028913Y016105D01*
X028830Y016022D01*
X028794Y015933D01*
X028760Y015933D01*
X028071Y016622D01*
X026743Y016622D01*
X026665Y016544D01*
X026561Y016544D01*
X026453Y016499D01*
X026370Y016416D01*
X026325Y016307D01*
X026325Y016190D01*
X026370Y016081D01*
X026453Y015998D01*
X026561Y015953D01*
X026679Y015953D01*
X026787Y015998D01*
X026870Y016081D01*
X026915Y016190D01*
X026915Y016268D01*
X027925Y016268D01*
X028510Y015683D01*
X028614Y015579D01*
X028974Y015579D01*
X029022Y015559D01*
X029139Y015559D01*
X029248Y015604D01*
X029331Y015687D01*
X029368Y015776D01*
X029416Y015756D01*
X029519Y015756D01*
X030183Y015092D01*
X030183Y012936D01*
X028588Y014530D01*
X028588Y014535D01*
X028544Y014644D01*
X028460Y014727D01*
X028352Y014772D01*
X028234Y014772D01*
X028126Y014727D01*
X028043Y014644D01*
X027998Y014535D01*
X027998Y014477D01*
X027939Y014477D01*
X027831Y014432D01*
X027748Y014349D01*
X027703Y014240D01*
X027703Y014123D01*
X027748Y014014D01*
X027831Y013931D01*
X027939Y013886D01*
X027998Y013886D01*
X027998Y013827D01*
X028043Y013719D01*
X028126Y013636D01*
X028234Y013591D01*
X028352Y013591D01*
X028412Y013616D01*
X030774Y011254D01*
X030877Y011150D01*
X032058Y011150D01*
X033338Y009871D01*
X033313Y009811D01*
X033313Y009694D01*
X033345Y009615D02*
X031837Y009615D01*
X031837Y009499D02*
X033449Y009499D01*
X033767Y009499D02*
X035413Y009499D01*
X035753Y009499D02*
X037386Y009499D01*
X037704Y009499D02*
X046490Y009499D01*
X046490Y009615D02*
X037808Y009615D01*
X037840Y009732D02*
X046490Y009732D01*
X046490Y009848D02*
X037825Y009848D01*
X037750Y009965D02*
X046490Y009965D01*
X046490Y010082D02*
X044379Y010082D01*
X044405Y010092D02*
X044488Y010176D01*
X044533Y010284D01*
X044533Y010402D01*
X044488Y010510D01*
X044405Y010593D01*
X044297Y010638D01*
X044179Y010638D01*
X044071Y010593D01*
X043988Y010510D01*
X043943Y010402D01*
X043943Y010284D01*
X043988Y010176D01*
X044071Y010092D01*
X044179Y010048D01*
X044297Y010048D01*
X044405Y010092D01*
X044498Y010198D02*
X046490Y010198D01*
X046490Y010315D02*
X044533Y010315D01*
X044521Y010431D02*
X046490Y010431D01*
X046490Y010548D02*
X044450Y010548D01*
X044026Y010548D02*
X033752Y010548D01*
X033868Y010431D02*
X043955Y010431D01*
X043943Y010315D02*
X033985Y010315D01*
X034102Y010198D02*
X035378Y010198D01*
X035775Y010198D02*
X043978Y010198D01*
X044097Y010082D02*
X035892Y010082D01*
X036008Y009965D02*
X037340Y009965D01*
X035857Y009615D02*
X035848Y009615D01*
X033888Y009615D02*
X033871Y009615D01*
X033328Y009848D02*
X031918Y009848D01*
X031935Y009965D02*
X033243Y009965D01*
X033127Y010082D02*
X031904Y010082D01*
X031808Y010198D02*
X033010Y010198D01*
X032893Y010315D02*
X027576Y010315D01*
X027559Y010274D02*
X027604Y010382D01*
X027604Y010500D01*
X027559Y010608D01*
X027476Y010692D01*
X027368Y010737D01*
X027250Y010737D01*
X027142Y010692D01*
X027059Y010608D01*
X027014Y010500D01*
X027014Y010382D01*
X027059Y010274D01*
X027142Y010191D01*
X027250Y010146D01*
X027368Y010146D01*
X027476Y010191D01*
X027559Y010274D01*
X027484Y010198D02*
X031471Y010198D01*
X031375Y010082D02*
X026118Y010082D01*
X026098Y010101D02*
X025990Y010146D01*
X025872Y010146D01*
X025764Y010101D01*
X025681Y010018D01*
X025636Y009909D01*
X025636Y009792D01*
X025681Y009683D01*
X025764Y009600D01*
X025872Y009555D01*
X025948Y009555D01*
X026742Y008761D01*
X026650Y008723D01*
X026620Y008693D01*
X026590Y008723D01*
X026482Y008768D01*
X026364Y008768D01*
X026256Y008723D01*
X026226Y008693D01*
X026197Y008723D01*
X026088Y008768D01*
X025985Y008768D01*
X025616Y009137D01*
X025616Y010515D01*
X025045Y011085D01*
X025045Y011189D01*
X025000Y011297D01*
X024917Y011381D01*
X024809Y011425D01*
X024691Y011425D01*
X024583Y011381D01*
X024500Y011297D01*
X024455Y011189D01*
X024455Y011071D01*
X024489Y010989D01*
X024484Y010987D01*
X024401Y010904D01*
X024356Y010795D01*
X024356Y010737D01*
X024297Y010737D01*
X024189Y010692D01*
X024106Y010608D01*
X024104Y010604D01*
X024021Y010638D01*
X023904Y010638D01*
X023795Y010593D01*
X023712Y010510D01*
X023667Y010402D01*
X023667Y010284D01*
X023712Y010176D01*
X023795Y010092D01*
X023904Y010048D01*
X024007Y010048D01*
X024671Y009384D01*
X024671Y008596D01*
X025267Y008001D01*
X025242Y007941D01*
X025242Y007823D01*
X025287Y007715D01*
X025370Y007632D01*
X025479Y007587D01*
X025596Y007587D01*
X025705Y007632D01*
X025788Y007715D01*
X025824Y007803D01*
X026398Y007803D01*
X026502Y007907D01*
X026772Y008177D01*
X026876Y008177D01*
X026984Y008222D01*
X027067Y008305D01*
X027105Y008398D01*
X028195Y007309D01*
X028195Y007233D01*
X028240Y007124D01*
X028323Y007041D01*
X028431Y006996D01*
X028549Y006996D01*
X028657Y007041D01*
X028740Y007124D01*
X028785Y007233D01*
X028785Y007350D01*
X028740Y007459D01*
X028657Y007542D01*
X028549Y007587D01*
X028473Y007587D01*
X026226Y009834D01*
X026226Y009909D01*
X026181Y010018D01*
X026098Y010101D01*
X026203Y009965D02*
X031344Y009965D01*
X031362Y009848D02*
X026226Y009848D01*
X026328Y009732D02*
X031439Y009732D01*
X031421Y009615D02*
X026445Y009615D01*
X026561Y009499D02*
X031304Y009499D01*
X031188Y009382D02*
X026678Y009382D01*
X026795Y009265D02*
X031071Y009265D01*
X030955Y009149D02*
X026911Y009149D01*
X027028Y009032D02*
X030838Y009032D01*
X030721Y008916D02*
X027145Y008916D01*
X027261Y008799D02*
X030605Y008799D01*
X030488Y008682D02*
X027378Y008682D01*
X027494Y008566D02*
X030372Y008566D01*
X030255Y008449D02*
X027611Y008449D01*
X027728Y008332D02*
X030138Y008332D01*
X030022Y008216D02*
X027844Y008216D01*
X027961Y008099D02*
X029905Y008099D01*
X029789Y007983D02*
X028077Y007983D01*
X028194Y007866D02*
X029672Y007866D01*
X029555Y007749D02*
X028311Y007749D01*
X028427Y007633D02*
X029439Y007633D01*
X029322Y007516D02*
X028683Y007516D01*
X028765Y007400D02*
X029205Y007400D01*
X029089Y007283D02*
X028785Y007283D01*
X028758Y007166D02*
X028972Y007166D01*
X028856Y007050D02*
X028666Y007050D01*
X028739Y006933D02*
X026589Y006933D01*
X026575Y006967D02*
X026492Y007050D01*
X026383Y007095D01*
X026266Y007095D01*
X026157Y007050D01*
X024228Y007050D01*
X024120Y007095D01*
X024002Y007095D01*
X023894Y007050D01*
X023811Y006967D01*
X023766Y006858D01*
X023766Y006741D01*
X023811Y006632D01*
X023894Y006549D01*
X024002Y006504D01*
X024120Y006504D01*
X024228Y006549D01*
X024301Y006622D01*
X025212Y006622D01*
X025111Y006521D01*
X025053Y006383D01*
X025053Y006232D01*
X025111Y006093D01*
X025217Y005987D01*
X025356Y005930D01*
X025506Y005930D01*
X025645Y005987D01*
X025751Y006093D01*
X025809Y006232D01*
X025809Y006383D01*
X025751Y006521D01*
X025650Y006622D01*
X026084Y006622D01*
X026148Y006559D01*
X026111Y006521D01*
X026053Y006383D01*
X026053Y006232D01*
X026111Y006093D01*
X026217Y005987D01*
X026356Y005930D01*
X026506Y005930D01*
X026645Y005987D01*
X026751Y006093D01*
X026809Y006232D01*
X026809Y006383D01*
X026751Y006521D01*
X026645Y006628D01*
X026584Y006653D01*
X026620Y006741D01*
X026620Y006858D01*
X026575Y006967D01*
X026492Y007050D02*
X028314Y007050D01*
X028222Y007166D02*
X021777Y007166D01*
X021777Y007050D02*
X023894Y007050D01*
X023797Y006933D02*
X021777Y006933D01*
X021777Y006817D02*
X023766Y006817D01*
X023783Y006700D02*
X021777Y006700D01*
X021777Y006583D02*
X023859Y006583D01*
X024262Y006583D02*
X025173Y006583D01*
X025088Y006467D02*
X021777Y006467D01*
X021777Y006350D02*
X025053Y006350D01*
X025053Y006234D02*
X021777Y006234D01*
X021777Y006117D02*
X025101Y006117D01*
X025204Y006000D02*
X021777Y006000D01*
X021777Y005884D02*
X027690Y005884D01*
X027806Y006000D02*
X026658Y006000D01*
X026761Y006117D02*
X027923Y006117D01*
X028039Y006234D02*
X026809Y006234D01*
X026809Y006350D02*
X028156Y006350D01*
X028273Y006467D02*
X026774Y006467D01*
X026689Y006583D02*
X028389Y006583D01*
X028506Y006700D02*
X026603Y006700D01*
X026620Y006817D02*
X028622Y006817D01*
X028946Y006583D02*
X033611Y006583D01*
X033683Y006655D02*
X033426Y006398D01*
X033426Y006035D01*
X033548Y005914D01*
X033133Y005914D01*
X033018Y005798D01*
X032641Y005422D01*
X032565Y005422D01*
X032457Y005377D01*
X032374Y005294D01*
X032329Y005185D01*
X032329Y005068D01*
X032374Y004959D01*
X032457Y004876D01*
X032565Y004831D01*
X032683Y004831D01*
X032731Y004851D01*
X032767Y004762D01*
X032850Y004679D01*
X032959Y004634D01*
X033076Y004634D01*
X033185Y004679D01*
X033268Y004762D01*
X033313Y004871D01*
X033313Y004988D01*
X033268Y005097D01*
X033185Y005180D01*
X033076Y005225D01*
X033001Y005225D01*
X033296Y005520D01*
X033405Y005520D01*
X033405Y005258D01*
X033823Y005258D01*
X033823Y005176D01*
X033405Y005176D01*
X033405Y004896D01*
X033416Y004855D01*
X033437Y004819D01*
X033466Y004790D01*
X033503Y004769D01*
X033543Y004758D01*
X033823Y004758D01*
X033823Y005176D01*
X033905Y005176D01*
X033905Y005258D01*
X034323Y005258D01*
X034323Y005520D01*
X034548Y005520D01*
X034426Y005398D01*
X034426Y005035D01*
X034683Y004779D01*
X035045Y004779D01*
X035302Y005035D01*
X035302Y005398D01*
X035180Y005520D01*
X035461Y005520D01*
X035577Y005635D01*
X035720Y005779D01*
X036023Y005779D01*
X036283Y005520D01*
X036518Y005520D01*
X036405Y005407D01*
X036405Y005258D01*
X036823Y005258D01*
X036823Y005176D01*
X036405Y005176D01*
X036405Y005027D01*
X036674Y004758D01*
X036823Y004758D01*
X036823Y005176D01*
X036905Y005176D01*
X036905Y005258D01*
X037323Y005258D01*
X037323Y005407D01*
X037210Y005520D01*
X037267Y005520D01*
X037426Y005360D01*
X037426Y005035D01*
X037683Y004779D01*
X038045Y004779D01*
X038302Y005035D01*
X038302Y005398D01*
X038045Y005655D01*
X037689Y005655D01*
X037430Y005914D01*
X037180Y005914D01*
X037302Y006035D01*
X037302Y006376D01*
X037922Y006996D01*
X037998Y006996D01*
X038106Y007041D01*
X038189Y007124D01*
X038234Y007233D01*
X038234Y007350D01*
X038189Y007459D01*
X038106Y007542D01*
X037998Y007587D01*
X037880Y007587D01*
X037772Y007542D01*
X037693Y007463D01*
X037614Y007542D01*
X037505Y007587D01*
X037388Y007587D01*
X037279Y007542D01*
X037226Y007488D01*
X036782Y007488D01*
X036728Y007542D01*
X036620Y007587D01*
X036502Y007587D01*
X036394Y007542D01*
X036311Y007459D01*
X036266Y007350D01*
X036266Y007233D01*
X036311Y007124D01*
X036394Y007041D01*
X036502Y006996D01*
X036620Y006996D01*
X036728Y007041D01*
X036782Y007095D01*
X037226Y007095D01*
X037279Y007041D01*
X037372Y007003D01*
X037023Y006655D01*
X036683Y006655D01*
X036426Y006398D01*
X036426Y006035D01*
X036548Y005914D01*
X036446Y005914D01*
X036302Y006057D01*
X036302Y006398D01*
X036045Y006655D01*
X035683Y006655D01*
X035426Y006398D01*
X035426Y006042D01*
X035298Y005914D01*
X035180Y005914D01*
X035302Y006035D01*
X035302Y006398D01*
X035045Y006655D01*
X034683Y006655D01*
X034426Y006398D01*
X034426Y006035D01*
X034548Y005914D01*
X034180Y005914D01*
X034302Y006035D01*
X034302Y006398D01*
X034045Y006655D01*
X033683Y006655D01*
X033495Y006467D02*
X031395Y006467D01*
X031507Y006350D02*
X033426Y006350D01*
X033426Y006234D02*
X031541Y006234D01*
X031527Y006117D02*
X033426Y006117D01*
X033461Y006000D02*
X031455Y006000D01*
X031171Y005884D02*
X033103Y005884D01*
X033018Y005798D02*
X033018Y005798D01*
X032986Y005767D02*
X031055Y005767D01*
X030938Y005650D02*
X032870Y005650D01*
X032753Y005534D02*
X030821Y005534D01*
X030705Y005417D02*
X032555Y005417D01*
X032381Y005301D02*
X030588Y005301D01*
X030472Y005184D02*
X032329Y005184D01*
X032329Y005067D02*
X030837Y005067D01*
X030925Y004951D02*
X032382Y004951D01*
X032557Y004834D02*
X031267Y004834D01*
X031334Y004718D02*
X032812Y004718D01*
X032737Y004834D02*
X032690Y004834D01*
X032624Y005126D02*
X033214Y005717D01*
X035380Y005717D01*
X035864Y006201D01*
X035864Y006217D01*
X036364Y005717D01*
X037348Y005717D01*
X037848Y005217D01*
X037864Y005217D01*
X038166Y005534D02*
X038562Y005534D01*
X038679Y005650D02*
X038050Y005650D01*
X038045Y005779D02*
X038302Y006035D01*
X038302Y006398D01*
X038045Y006655D01*
X037683Y006655D01*
X037426Y006398D01*
X037426Y006035D01*
X037683Y005779D01*
X038045Y005779D01*
X038150Y005884D02*
X038578Y005884D01*
X038683Y005779D02*
X039045Y005779D01*
X039302Y006035D01*
X039302Y006398D01*
X039045Y006655D01*
X038683Y006655D01*
X038426Y006398D01*
X038426Y006035D01*
X038683Y005779D01*
X038683Y005655D02*
X038426Y005398D01*
X038426Y005035D01*
X038683Y004779D01*
X039045Y004779D01*
X039302Y005035D01*
X039302Y005398D01*
X039045Y005655D01*
X038683Y005655D01*
X038445Y005417D02*
X038283Y005417D01*
X038302Y005301D02*
X038426Y005301D01*
X038426Y005184D02*
X038302Y005184D01*
X038302Y005067D02*
X038426Y005067D01*
X038511Y004951D02*
X038217Y004951D01*
X038101Y004834D02*
X038628Y004834D01*
X039101Y004834D02*
X043438Y004834D01*
X043438Y004718D02*
X033506Y004718D01*
X033428Y004834D02*
X033298Y004834D01*
X033313Y004951D02*
X033405Y004951D01*
X033405Y005067D02*
X033280Y005067D01*
X033175Y005184D02*
X033823Y005184D01*
X033905Y005184D02*
X034426Y005184D01*
X034323Y005176D02*
X033905Y005176D01*
X033905Y004758D01*
X034185Y004758D01*
X034225Y004769D01*
X034262Y004790D01*
X034291Y004819D01*
X034312Y004855D01*
X034323Y004896D01*
X034323Y005176D01*
X034323Y005067D02*
X034426Y005067D01*
X034511Y004951D02*
X034323Y004951D01*
X034300Y004834D02*
X034628Y004834D01*
X035101Y004834D02*
X035628Y004834D01*
X035683Y004779D02*
X036045Y004779D01*
X036302Y005035D01*
X036302Y005398D01*
X036045Y005655D01*
X035683Y005655D01*
X035426Y005398D01*
X035426Y005035D01*
X035683Y004779D01*
X035511Y004951D02*
X035217Y004951D01*
X035302Y005067D02*
X035426Y005067D01*
X035426Y005184D02*
X035302Y005184D01*
X035302Y005301D02*
X035426Y005301D01*
X035445Y005417D02*
X035283Y005417D01*
X035475Y005534D02*
X035562Y005534D01*
X035592Y005650D02*
X035679Y005650D01*
X035708Y005767D02*
X036035Y005767D01*
X036050Y005650D02*
X036152Y005650D01*
X036166Y005534D02*
X036269Y005534D01*
X036283Y005417D02*
X036415Y005417D01*
X036405Y005301D02*
X036302Y005301D01*
X036302Y005184D02*
X036823Y005184D01*
X036905Y005184D02*
X037426Y005184D01*
X037323Y005176D02*
X036905Y005176D01*
X036905Y004758D01*
X037054Y004758D01*
X037323Y005027D01*
X037323Y005176D01*
X037323Y005067D02*
X037426Y005067D01*
X037511Y004951D02*
X037247Y004951D01*
X037131Y004834D02*
X037628Y004834D01*
X037426Y005301D02*
X037323Y005301D01*
X037313Y005417D02*
X037370Y005417D01*
X037576Y005767D02*
X043501Y005767D01*
X043470Y005650D02*
X039050Y005650D01*
X039166Y005534D02*
X043439Y005534D01*
X043438Y005417D02*
X039283Y005417D01*
X039302Y005301D02*
X043438Y005301D01*
X043438Y005184D02*
X039302Y005184D01*
X039302Y005067D02*
X043438Y005067D01*
X043438Y004951D02*
X039217Y004951D01*
X039150Y005884D02*
X043533Y005884D01*
X043584Y006000D02*
X039267Y006000D01*
X039302Y006117D02*
X043651Y006117D01*
X043719Y006234D02*
X039302Y006234D01*
X039302Y006350D02*
X043808Y006350D01*
X043925Y006467D02*
X039233Y006467D01*
X039117Y006583D02*
X044041Y006583D01*
X044236Y006700D02*
X037626Y006700D01*
X037611Y006583D02*
X037509Y006583D01*
X037495Y006467D02*
X037392Y006467D01*
X037426Y006350D02*
X037302Y006350D01*
X037302Y006234D02*
X037426Y006234D01*
X037426Y006117D02*
X037302Y006117D01*
X037267Y006000D02*
X037461Y006000D01*
X037460Y005884D02*
X037578Y005884D01*
X038267Y006000D02*
X038461Y006000D01*
X038426Y006117D02*
X038302Y006117D01*
X038302Y006234D02*
X038426Y006234D01*
X038426Y006350D02*
X038302Y006350D01*
X038233Y006467D02*
X038495Y006467D01*
X038611Y006583D02*
X038117Y006583D01*
X037859Y006933D02*
X040275Y006933D01*
X040285Y006924D02*
X040615Y006787D01*
X040972Y006787D01*
X041302Y006924D01*
X041555Y007177D01*
X041691Y007507D01*
X041691Y007864D01*
X041555Y008194D01*
X041302Y008447D01*
X040972Y008583D01*
X040615Y008583D01*
X040285Y008447D01*
X040032Y008194D01*
X039895Y007864D01*
X039895Y007507D01*
X040032Y007177D01*
X040285Y006924D01*
X040159Y007050D02*
X038115Y007050D01*
X038207Y007166D02*
X040042Y007166D01*
X039988Y007283D02*
X038234Y007283D01*
X038214Y007400D02*
X039940Y007400D01*
X039895Y007516D02*
X038132Y007516D01*
X037939Y007292D02*
X036864Y006217D01*
X036426Y006234D02*
X036302Y006234D01*
X036302Y006350D02*
X036426Y006350D01*
X036495Y006467D02*
X036233Y006467D01*
X036117Y006583D02*
X036611Y006583D01*
X037069Y006700D02*
X029063Y006700D01*
X029179Y006817D02*
X037185Y006817D01*
X037302Y006933D02*
X029296Y006933D01*
X029412Y007050D02*
X036385Y007050D01*
X036293Y007166D02*
X029529Y007166D01*
X029646Y007283D02*
X036266Y007283D01*
X036286Y007400D02*
X029762Y007400D01*
X029879Y007516D02*
X036368Y007516D01*
X036561Y007292D02*
X037447Y007292D01*
X037640Y007516D02*
X037746Y007516D01*
X037254Y007516D02*
X036754Y007516D01*
X036737Y007050D02*
X037271Y007050D01*
X037742Y006817D02*
X040544Y006817D01*
X041042Y006817D02*
X044467Y006817D01*
X046490Y006933D02*
X041311Y006933D01*
X041428Y007050D02*
X046490Y007050D01*
X046490Y007166D02*
X041544Y007166D01*
X041599Y007283D02*
X046490Y007283D01*
X046490Y007400D02*
X041647Y007400D01*
X041691Y007516D02*
X046490Y007516D01*
X046490Y007633D02*
X041691Y007633D01*
X041691Y007749D02*
X046490Y007749D01*
X046490Y007866D02*
X041690Y007866D01*
X041642Y007983D02*
X046490Y007983D01*
X046490Y008099D02*
X041594Y008099D01*
X041533Y008216D02*
X046490Y008216D01*
X046490Y008332D02*
X041416Y008332D01*
X041296Y008449D02*
X046490Y008449D01*
X046490Y008566D02*
X041014Y008566D01*
X040572Y008566D02*
X030928Y008566D01*
X030812Y008449D02*
X040290Y008449D01*
X040170Y008332D02*
X030695Y008332D01*
X030579Y008216D02*
X040054Y008216D01*
X039993Y008099D02*
X030462Y008099D01*
X030345Y007983D02*
X039944Y007983D01*
X039896Y007866D02*
X030229Y007866D01*
X030112Y007749D02*
X039895Y007749D01*
X039895Y007633D02*
X029995Y007633D01*
X028490Y007292D02*
X025931Y009851D01*
X025659Y009965D02*
X025616Y009965D01*
X025616Y009848D02*
X025636Y009848D01*
X025616Y009732D02*
X025661Y009732D01*
X025616Y009615D02*
X025749Y009615D01*
X025616Y009499D02*
X026005Y009499D01*
X026121Y009382D02*
X025616Y009382D01*
X025616Y009265D02*
X026238Y009265D01*
X026355Y009149D02*
X025616Y009149D01*
X025721Y009032D02*
X026471Y009032D01*
X026588Y008916D02*
X025837Y008916D01*
X025954Y008799D02*
X026704Y008799D01*
X027078Y008332D02*
X027171Y008332D01*
X027287Y008216D02*
X026968Y008216D01*
X026694Y008099D02*
X027404Y008099D01*
X027521Y007983D02*
X026577Y007983D01*
X026461Y007866D02*
X027637Y007866D01*
X027754Y007749D02*
X025802Y007749D01*
X025706Y007633D02*
X027870Y007633D01*
X027987Y007516D02*
X021777Y007516D01*
X021777Y007400D02*
X028104Y007400D01*
X028195Y007283D02*
X021777Y007283D01*
X021777Y007633D02*
X025369Y007633D01*
X025273Y007749D02*
X021777Y007749D01*
X021777Y007866D02*
X025242Y007866D01*
X025259Y007983D02*
X021777Y007983D01*
X021777Y008099D02*
X025168Y008099D01*
X025051Y008216D02*
X021777Y008216D01*
X021777Y008332D02*
X024935Y008332D01*
X024818Y008449D02*
X021777Y008449D01*
X021777Y008566D02*
X024702Y008566D01*
X024671Y008682D02*
X021777Y008682D01*
X021777Y008799D02*
X024671Y008799D01*
X024671Y008916D02*
X021777Y008916D01*
X021777Y009032D02*
X024671Y009032D01*
X024671Y009149D02*
X021777Y009149D01*
X021777Y009265D02*
X024671Y009265D01*
X024671Y009382D02*
X021777Y009382D01*
X021777Y009499D02*
X024556Y009499D01*
X024440Y009615D02*
X021777Y009615D01*
X021777Y009732D02*
X024323Y009732D01*
X024206Y009848D02*
X021777Y009848D01*
X021777Y009965D02*
X024090Y009965D01*
X023821Y010082D02*
X021777Y010082D01*
X021777Y010198D02*
X023703Y010198D01*
X023667Y010315D02*
X021777Y010315D01*
X021777Y010431D02*
X023680Y010431D01*
X023750Y010548D02*
X021777Y010548D01*
X021777Y010665D02*
X024162Y010665D01*
X024356Y010781D02*
X021777Y010781D01*
X021815Y010898D02*
X024399Y010898D01*
X024478Y011015D02*
X021932Y011015D01*
X022049Y011131D02*
X024455Y011131D01*
X024479Y011248D02*
X022296Y011248D01*
X022444Y011364D02*
X024566Y011364D01*
X024933Y011364D02*
X030663Y011364D01*
X030779Y011248D02*
X025021Y011248D01*
X025045Y011131D02*
X032077Y011131D01*
X032194Y011015D02*
X025116Y011015D01*
X025233Y010898D02*
X032310Y010898D01*
X032427Y010781D02*
X025349Y010781D01*
X025466Y010665D02*
X027115Y010665D01*
X027034Y010548D02*
X025583Y010548D01*
X025616Y010431D02*
X027014Y010431D01*
X027042Y010315D02*
X025616Y010315D01*
X025616Y010198D02*
X027134Y010198D01*
X027604Y010431D02*
X032777Y010431D01*
X032660Y010548D02*
X027584Y010548D01*
X027503Y010665D02*
X032544Y010665D01*
X033052Y011248D02*
X040720Y011248D01*
X040604Y011364D02*
X032936Y011364D01*
X032819Y011481D02*
X040487Y011481D01*
X040371Y011598D02*
X032702Y011598D01*
X032586Y011714D02*
X040254Y011714D01*
X040137Y011831D02*
X032469Y011831D01*
X031216Y012181D02*
X039295Y012181D01*
X039238Y012297D02*
X035980Y012297D01*
X035941Y012258D02*
X036024Y012341D01*
X036069Y012449D01*
X036069Y012567D01*
X036024Y012675D01*
X035951Y012749D01*
X035951Y017091D01*
X036024Y017164D01*
X036069Y017272D01*
X036069Y017390D01*
X036024Y017498D01*
X035941Y017581D01*
X035832Y017626D01*
X035715Y017626D01*
X035606Y017581D01*
X035523Y017498D01*
X035478Y017390D01*
X035478Y017272D01*
X035523Y017164D01*
X035596Y017091D01*
X035596Y012749D01*
X035523Y012675D01*
X035478Y012567D01*
X035478Y012449D01*
X035523Y012341D01*
X035606Y012258D01*
X035715Y012213D01*
X035832Y012213D01*
X035941Y012258D01*
X036054Y012414D02*
X039238Y012414D01*
X039172Y012530D02*
X036069Y012530D01*
X036036Y012647D02*
X038176Y012647D01*
X038165Y012652D02*
X038274Y012607D01*
X038391Y012607D01*
X038500Y012652D01*
X038583Y012735D01*
X038628Y012843D01*
X038628Y012961D01*
X038583Y013069D01*
X038529Y013123D01*
X038529Y014453D01*
X038583Y014506D01*
X038628Y014615D01*
X038628Y014732D01*
X038583Y014841D01*
X038500Y014924D01*
X038391Y014969D01*
X038274Y014969D01*
X038165Y014924D01*
X038082Y014841D01*
X038037Y014732D01*
X038037Y014615D01*
X038082Y014506D01*
X038136Y014453D01*
X038136Y013123D01*
X038082Y013069D01*
X038037Y012961D01*
X038037Y012843D01*
X038082Y012735D01*
X038165Y012652D01*
X038070Y012764D02*
X035951Y012764D01*
X035951Y012880D02*
X038037Y012880D01*
X038052Y012997D02*
X035951Y012997D01*
X035951Y013114D02*
X038127Y013114D01*
X038136Y013230D02*
X035951Y013230D01*
X035951Y013347D02*
X038136Y013347D01*
X038136Y013463D02*
X035951Y013463D01*
X035951Y013580D02*
X038136Y013580D01*
X038136Y013697D02*
X035951Y013697D01*
X035951Y013813D02*
X038136Y013813D01*
X038136Y013930D02*
X035951Y013930D01*
X035951Y014046D02*
X038136Y014046D01*
X038136Y014163D02*
X035951Y014163D01*
X035951Y014280D02*
X038136Y014280D01*
X038136Y014396D02*
X035951Y014396D01*
X035951Y014513D02*
X038080Y014513D01*
X038037Y014629D02*
X035951Y014629D01*
X035951Y014746D02*
X038043Y014746D01*
X038104Y014863D02*
X035951Y014863D01*
X035951Y014979D02*
X046490Y014979D01*
X046490Y014863D02*
X038561Y014863D01*
X038622Y014746D02*
X046490Y014746D01*
X046490Y014629D02*
X038628Y014629D01*
X038586Y014513D02*
X046490Y014513D01*
X046490Y014396D02*
X038529Y014396D01*
X038529Y014280D02*
X046490Y014280D01*
X046490Y014163D02*
X046408Y014163D01*
X046202Y014163D02*
X038529Y014163D01*
X038529Y014046D02*
X046052Y014046D01*
X046010Y013930D02*
X038529Y013930D01*
X038529Y013813D02*
X045982Y013813D01*
X045865Y013697D02*
X041991Y013697D01*
X042061Y013580D02*
X045748Y013580D01*
X046177Y013114D02*
X046490Y013114D01*
X046490Y013230D02*
X046443Y013230D01*
X046472Y013242D02*
X046490Y013259D01*
X046490Y012938D01*
X046472Y012955D01*
X046364Y013000D01*
X046260Y013000D01*
X046187Y013074D01*
X046162Y013099D01*
X046260Y013197D01*
X046364Y013197D01*
X046472Y013242D01*
X046490Y012997D02*
X046372Y012997D01*
X046010Y012750D02*
X045936Y012823D01*
X041978Y012823D01*
X041998Y012803D01*
X042450Y012803D01*
X042565Y012688D01*
X042745Y012508D01*
X046084Y012508D01*
X046084Y012508D01*
X046055Y012538D01*
X046010Y012646D01*
X046010Y012750D01*
X045996Y012764D02*
X042489Y012764D01*
X042606Y012647D02*
X046010Y012647D01*
X046062Y012530D02*
X042723Y012530D01*
X042663Y012311D02*
X042368Y012607D01*
X041777Y012607D01*
X041576Y012823D02*
X041527Y012774D01*
X041482Y012665D01*
X041482Y012660D01*
X041324Y012818D01*
X041329Y012823D01*
X041576Y012823D01*
X041523Y012764D02*
X041379Y012764D01*
X041831Y012311D02*
X042245Y011898D01*
X046010Y011898D01*
X046010Y011976D01*
X046055Y012085D01*
X046084Y012114D01*
X046084Y012114D01*
X042582Y012114D01*
X042286Y012410D01*
X041998Y012410D01*
X041945Y012356D01*
X041836Y012311D01*
X041831Y012311D01*
X041845Y012297D02*
X042399Y012297D01*
X042516Y012181D02*
X041962Y012181D01*
X042078Y012064D02*
X046046Y012064D01*
X046010Y011947D02*
X042195Y011947D01*
X041542Y011509D02*
X041527Y011494D01*
X041482Y011386D01*
X041482Y011268D01*
X041507Y011209D01*
X041260Y011209D01*
X040237Y012233D01*
X040523Y012233D01*
X040498Y012173D01*
X040498Y012056D01*
X040543Y011947D01*
X040626Y011864D01*
X040734Y011819D01*
X040852Y011819D01*
X040960Y011864D01*
X041034Y011937D01*
X041114Y011937D01*
X041542Y011509D01*
X041522Y011481D02*
X040988Y011481D01*
X040872Y011598D02*
X041453Y011598D01*
X041337Y011714D02*
X040755Y011714D01*
X040706Y011831D02*
X040638Y011831D01*
X040543Y011947D02*
X040522Y011947D01*
X040498Y012064D02*
X040405Y012064D01*
X040501Y012181D02*
X040289Y012181D01*
X040880Y011831D02*
X041220Y011831D01*
X041105Y011364D02*
X041482Y011364D01*
X041491Y011248D02*
X041221Y011248D01*
X040954Y011015D02*
X033285Y011015D01*
X033169Y011131D02*
X040837Y011131D01*
X041070Y010898D02*
X033402Y010898D01*
X033519Y010781D02*
X046490Y010781D01*
X046490Y010665D02*
X033635Y010665D01*
X031745Y009382D02*
X046490Y009382D01*
X046490Y009265D02*
X031628Y009265D01*
X031511Y009149D02*
X046490Y009149D01*
X046490Y009032D02*
X031395Y009032D01*
X031278Y008916D02*
X046490Y008916D01*
X046490Y008799D02*
X031162Y008799D01*
X031045Y008682D02*
X046490Y008682D01*
X046018Y011209D02*
X042048Y011209D01*
X042073Y011268D01*
X042073Y011347D01*
X046065Y011347D01*
X046084Y011327D01*
X046055Y011297D01*
X046018Y011209D01*
X046034Y011248D02*
X042064Y011248D01*
X042663Y012311D02*
X046305Y012311D01*
X041564Y013697D02*
X038529Y013697D01*
X038529Y013580D02*
X041494Y013580D01*
X041482Y013463D02*
X041270Y013463D01*
X040907Y013463D02*
X038529Y013463D01*
X038529Y013347D02*
X040791Y013347D01*
X040310Y013230D02*
X038529Y013230D01*
X038538Y013114D02*
X040225Y013114D01*
X040203Y012997D02*
X039482Y012997D01*
X039348Y012997D02*
X038613Y012997D01*
X038628Y012880D02*
X039173Y012880D01*
X039120Y012764D02*
X038595Y012764D01*
X038489Y012647D02*
X039120Y012647D01*
X039658Y012880D02*
X040228Y012880D01*
X040317Y012764D02*
X039711Y012764D01*
X039891Y012647D02*
X040498Y012647D01*
X039529Y011947D02*
X031171Y011947D01*
X031121Y012064D02*
X039412Y012064D01*
X038333Y012902D02*
X038333Y014674D01*
X035951Y015096D02*
X046490Y015096D01*
X046490Y015213D02*
X035951Y015213D01*
X035951Y015329D02*
X046490Y015329D01*
X046490Y015446D02*
X035951Y015446D01*
X035951Y015562D02*
X046490Y015562D01*
X046490Y015679D02*
X035951Y015679D01*
X035951Y015796D02*
X046490Y015796D01*
X046490Y015912D02*
X035951Y015912D01*
X035951Y016029D02*
X046490Y016029D01*
X046490Y016145D02*
X035951Y016145D01*
X035951Y016262D02*
X046490Y016262D01*
X046490Y016379D02*
X035951Y016379D01*
X035951Y016495D02*
X046490Y016495D01*
X046490Y016612D02*
X035951Y016612D01*
X035951Y016728D02*
X046490Y016728D01*
X046490Y016845D02*
X035951Y016845D01*
X035951Y016962D02*
X046490Y016962D01*
X046490Y017078D02*
X035951Y017078D01*
X036037Y017195D02*
X046490Y017195D01*
X046490Y017312D02*
X036069Y017312D01*
X036053Y017428D02*
X046490Y017428D01*
X046490Y017545D02*
X035977Y017545D01*
X035570Y017545D02*
X025558Y017545D01*
X025555Y017548D02*
X025384Y017548D01*
X025394Y017557D01*
X025439Y017666D01*
X025439Y017783D01*
X025394Y017892D01*
X025311Y017975D01*
X025202Y018020D01*
X025085Y018020D01*
X024976Y017975D01*
X024923Y017922D01*
X024176Y017922D01*
X024078Y017823D01*
X023962Y017708D01*
X023962Y017548D01*
X023748Y017548D01*
X023667Y017467D01*
X023586Y017548D01*
X023416Y017548D01*
X023425Y017557D01*
X023470Y017666D01*
X023470Y017783D01*
X023425Y017892D01*
X023342Y017975D01*
X023234Y018020D01*
X023116Y018020D01*
X023008Y017975D01*
X022954Y017922D01*
X021977Y017922D01*
X021403Y018495D01*
X021403Y018571D01*
X021358Y018679D01*
X021275Y018762D01*
X021167Y018807D01*
X021049Y018807D01*
X020941Y018762D01*
X020858Y018679D01*
X020813Y018571D01*
X020813Y018453D01*
X020858Y018345D01*
X020941Y018262D01*
X021049Y018217D01*
X021125Y018217D01*
X021814Y017528D01*
X022744Y017528D01*
X022683Y017467D01*
X022683Y016723D01*
X022764Y016642D01*
X023586Y016642D01*
X023667Y016723D01*
X023667Y017467D01*
X023667Y016723D01*
X023748Y016642D01*
X024571Y016642D01*
X024651Y016723D01*
X024651Y016937D01*
X024651Y016937D01*
X024651Y016723D01*
X024732Y016642D01*
X025537Y016642D01*
X025537Y016461D01*
X025519Y016466D01*
X025203Y016466D01*
X025203Y016051D01*
X025085Y016051D01*
X025085Y015933D01*
X025203Y015933D01*
X025203Y015518D01*
X025519Y015518D01*
X025537Y015523D01*
X025537Y015398D01*
X025519Y015403D01*
X025203Y015403D01*
X025203Y014988D01*
X025085Y014988D01*
X025085Y014870D01*
X025203Y014870D01*
X025203Y014455D01*
X025519Y014455D01*
X025537Y014460D01*
X025537Y014280D01*
X024732Y014280D01*
X024651Y014199D01*
X024571Y014280D01*
X023748Y014280D01*
X023667Y014199D01*
X023586Y014280D01*
X022764Y014280D01*
X022683Y014199D01*
X022683Y014067D01*
X022643Y014083D01*
X022526Y014083D01*
X022417Y014038D01*
X022334Y013955D01*
X022289Y013846D01*
X022289Y013841D01*
X022264Y013866D01*
X020591Y013866D01*
X020616Y013926D01*
X020616Y014043D01*
X020571Y014152D01*
X020541Y014181D01*
X020571Y014211D01*
X020616Y014320D01*
X020616Y014437D01*
X020571Y014545D01*
X020541Y014575D01*
X020571Y014605D01*
X020616Y014713D01*
X020616Y014831D01*
X020571Y014939D01*
X020541Y014969D01*
X020571Y014998D01*
X020616Y015107D01*
X020616Y015224D01*
X020571Y015333D01*
X020488Y015416D01*
X020379Y015461D01*
X020276Y015461D01*
X017245Y018492D01*
X016427Y018492D01*
X016354Y018566D01*
X016246Y018611D01*
X016128Y018611D01*
X016069Y018586D01*
X016069Y019708D01*
X015645Y020131D01*
X015648Y020134D01*
X015648Y020497D01*
X015392Y020753D01*
X015029Y020753D01*
X014773Y020497D01*
X014773Y020134D01*
X015029Y019877D01*
X015392Y019877D01*
X015395Y019880D01*
X015714Y019561D01*
X015714Y018143D01*
X015818Y018040D01*
X015818Y018040D01*
X015911Y017947D01*
X016015Y017843D01*
X016999Y017843D01*
X020025Y014817D01*
X020025Y014713D01*
X020070Y014605D01*
X020100Y014575D01*
X020080Y014555D01*
X020001Y014555D01*
X020025Y014615D01*
X020025Y014732D01*
X019981Y014841D01*
X019897Y014924D01*
X019789Y014969D01*
X019713Y014969D01*
X019238Y015444D01*
X019238Y015520D01*
X019193Y015628D01*
X019110Y015711D01*
X019002Y015756D01*
X018884Y015756D01*
X018776Y015711D01*
X018692Y015628D01*
X018648Y015520D01*
X018648Y015402D01*
X018692Y015294D01*
X018776Y015211D01*
X018884Y015166D01*
X018960Y015166D01*
X019435Y014690D01*
X019435Y014615D01*
X019460Y014555D01*
X019311Y014555D01*
X017545Y016322D01*
X017441Y016425D01*
X016427Y016425D01*
X016354Y016499D01*
X016246Y016544D01*
X016128Y016544D01*
X016069Y016519D01*
X016069Y016708D01*
X015645Y017131D01*
X015648Y017134D01*
X015648Y017497D01*
X015392Y017753D01*
X015029Y017753D01*
X014773Y017497D01*
X014773Y017134D01*
X015029Y016877D01*
X015392Y016877D01*
X015395Y016880D01*
X015522Y016753D01*
X014853Y016753D01*
X014773Y016672D01*
X014773Y015958D01*
X014853Y015877D01*
X015568Y015877D01*
X015648Y015958D01*
X015648Y016627D01*
X015714Y016561D01*
X015714Y016077D01*
X015818Y015973D01*
X016015Y015776D01*
X017196Y015776D01*
X019066Y013906D01*
X019041Y013846D01*
X019041Y013841D01*
X018333Y014550D01*
X018229Y014654D01*
X014981Y014654D01*
X014120Y015515D01*
X014120Y015618D01*
X014075Y015727D01*
X013992Y015810D01*
X013883Y015855D01*
X013766Y015855D01*
X013657Y015810D01*
X013574Y015727D01*
X013529Y015618D01*
X013529Y015501D01*
X013574Y015392D01*
X013657Y015309D01*
X013766Y015264D01*
X013869Y015264D01*
X014677Y014457D01*
X011470Y014457D01*
X011423Y014477D01*
X011305Y014477D01*
X011197Y014432D01*
X011114Y014349D01*
X011069Y014240D01*
X011069Y014123D01*
X011114Y014014D01*
X011197Y013931D01*
X011305Y013886D01*
X011423Y013886D01*
X011531Y013931D01*
X011614Y014014D01*
X011651Y014103D01*
X017984Y014103D01*
X018968Y013118D01*
X019066Y013118D01*
X019041Y013059D01*
X019041Y012942D01*
X019086Y012833D01*
X019116Y012803D01*
X019086Y012774D01*
X019041Y012665D01*
X019041Y012548D01*
X019086Y012439D01*
X019169Y012356D01*
X019278Y012311D01*
X019395Y012311D01*
X019504Y012356D01*
X019587Y012439D01*
X019632Y012548D01*
X019632Y012553D01*
X019804Y012725D01*
X021724Y012725D01*
X022511Y011937D01*
X024823Y011937D01*
X024927Y012041D01*
X025020Y012134D01*
X026004Y012134D01*
X026108Y012238D01*
X026575Y012705D01*
X026679Y012705D01*
X026787Y012750D01*
X026870Y012833D01*
X026915Y012942D01*
X026915Y013059D01*
X026870Y013168D01*
X026841Y013197D01*
X026870Y013227D01*
X026915Y013335D01*
X026915Y013453D01*
X026870Y013561D01*
X026787Y013644D01*
X026679Y013689D01*
X026561Y013689D01*
X026453Y013644D01*
X026370Y013561D01*
X026333Y013473D01*
X025636Y013473D01*
X025636Y013607D01*
X025675Y013591D01*
X025793Y013591D01*
X025901Y013636D01*
X025984Y013719D01*
X026029Y013827D01*
X026029Y013945D01*
X025984Y014053D01*
X025931Y014107D01*
X025931Y016913D01*
X025984Y016967D01*
X026029Y017075D01*
X026029Y017193D01*
X025984Y017301D01*
X025901Y017384D01*
X025793Y017429D01*
X025675Y017429D01*
X025636Y017413D01*
X025636Y017467D01*
X025555Y017548D01*
X025636Y017428D02*
X025672Y017428D01*
X025796Y017428D02*
X035494Y017428D01*
X035478Y017312D02*
X025974Y017312D01*
X026029Y017195D02*
X035510Y017195D01*
X035596Y017078D02*
X026029Y017078D01*
X025979Y016962D02*
X035596Y016962D01*
X035596Y016845D02*
X025931Y016845D01*
X025931Y016728D02*
X035596Y016728D01*
X035596Y016612D02*
X028082Y016612D01*
X028198Y016495D02*
X035596Y016495D01*
X035596Y016379D02*
X028315Y016379D01*
X028432Y016262D02*
X029267Y016262D01*
X029194Y016145D02*
X029150Y016145D01*
X029011Y016145D02*
X028548Y016145D01*
X028665Y016029D02*
X028837Y016029D01*
X028514Y015679D02*
X025931Y015679D01*
X025931Y015796D02*
X028397Y015796D01*
X028280Y015912D02*
X025931Y015912D01*
X025931Y016029D02*
X026422Y016029D01*
X026343Y016145D02*
X025931Y016145D01*
X025931Y016262D02*
X026325Y016262D01*
X026354Y016379D02*
X025931Y016379D01*
X025931Y016495D02*
X026449Y016495D01*
X026733Y016612D02*
X025931Y016612D01*
X025537Y016612D02*
X020571Y016612D01*
X020541Y016642D01*
X020571Y016672D01*
X020616Y016780D01*
X020616Y016898D01*
X020571Y017006D01*
X020541Y017036D01*
X020571Y017065D01*
X020616Y017174D01*
X020616Y017291D01*
X020571Y017400D01*
X020541Y017429D01*
X020571Y017459D01*
X020616Y017568D01*
X020616Y017685D01*
X020571Y017794D01*
X020541Y017823D01*
X020571Y017853D01*
X020616Y017961D01*
X020616Y018079D01*
X020571Y018187D01*
X020488Y018270D01*
X020399Y018307D01*
X020399Y020545D01*
X021463Y019481D01*
X021448Y019467D01*
X021403Y019358D01*
X021403Y019241D01*
X021448Y019132D01*
X021531Y019049D01*
X021640Y019004D01*
X021757Y019004D01*
X021866Y019049D01*
X021896Y019079D01*
X021925Y019049D01*
X022034Y019004D01*
X022151Y019004D01*
X022260Y019049D01*
X022289Y019079D01*
X022319Y019049D01*
X022427Y019004D01*
X022545Y019004D01*
X022653Y019049D01*
X022736Y019132D01*
X022781Y019241D01*
X022781Y019358D01*
X022736Y019467D01*
X022653Y019550D01*
X022545Y019595D01*
X022441Y019595D01*
X018431Y023605D01*
X018327Y023709D01*
X015178Y023709D01*
X014986Y023900D01*
X014986Y025711D01*
X014882Y025815D01*
X014786Y025911D01*
X014786Y026456D01*
X014705Y026537D01*
X013991Y026537D01*
X013911Y026456D01*
X013911Y025787D01*
X013898Y025799D01*
X013783Y025914D01*
X013786Y025917D01*
X013786Y026280D01*
X013530Y026537D01*
X013167Y026537D01*
X012911Y026280D01*
X012911Y025917D01*
X013167Y025661D01*
X013530Y025661D01*
X013533Y025664D01*
X013648Y025549D01*
X013648Y025419D01*
X013530Y025537D01*
X013167Y025537D01*
X013018Y025387D01*
X013018Y025680D01*
X012783Y025914D01*
X012786Y025917D01*
X012786Y026280D01*
X012530Y026537D01*
X012167Y026537D01*
X011911Y026280D01*
X011911Y025917D01*
X012167Y025661D01*
X012530Y025661D01*
X012533Y025664D01*
X012663Y025533D01*
X012663Y025403D01*
X012530Y025537D01*
X012167Y025537D01*
X012033Y025403D01*
X012033Y025664D01*
X011783Y025914D01*
X011786Y025917D01*
X011786Y026280D01*
X011530Y026537D01*
X011167Y026537D01*
X010911Y026280D01*
X010911Y025917D01*
X011167Y025661D01*
X011530Y025661D01*
X011533Y025664D01*
X011679Y025517D01*
X011679Y025387D01*
X011530Y025537D01*
X011167Y025537D01*
X010911Y025280D01*
X010911Y024917D01*
X011167Y024661D01*
X011171Y024661D01*
X011171Y022785D01*
X011876Y022080D01*
X011980Y021977D01*
X017491Y021977D01*
X019258Y020210D01*
X019258Y017258D01*
X019362Y017154D01*
X020025Y016490D01*
X020025Y016386D01*
X020070Y016278D01*
X020153Y016195D01*
X020262Y016150D01*
X020379Y016150D01*
X020488Y016195D01*
X020571Y016278D01*
X020616Y016386D01*
X020616Y016504D01*
X020571Y016612D01*
X020595Y016728D02*
X022683Y016728D01*
X022683Y016845D02*
X020616Y016845D01*
X020589Y016962D02*
X022683Y016962D01*
X022683Y017078D02*
X020576Y017078D01*
X020616Y017195D02*
X022683Y017195D01*
X022683Y017312D02*
X020608Y017312D01*
X020543Y017428D02*
X022683Y017428D01*
X023175Y017725D02*
X021896Y017725D01*
X021108Y018512D01*
X020983Y018244D02*
X020514Y018244D01*
X020596Y018128D02*
X021214Y018128D01*
X021331Y018011D02*
X020616Y018011D01*
X020588Y017895D02*
X021447Y017895D01*
X021564Y017778D02*
X020578Y017778D01*
X020616Y017661D02*
X021681Y017661D01*
X021797Y017545D02*
X020607Y017545D01*
X019670Y016845D02*
X018892Y016845D01*
X019008Y016728D02*
X019787Y016728D01*
X019904Y016612D02*
X019125Y016612D01*
X019242Y016495D02*
X020020Y016495D01*
X020029Y016379D02*
X019358Y016379D01*
X019475Y016262D02*
X020086Y016262D01*
X019825Y015912D02*
X022662Y015912D01*
X022662Y015933D02*
X022662Y015657D01*
X022673Y015616D01*
X022693Y015580D01*
X022723Y015550D01*
X022759Y015529D01*
X022800Y015518D01*
X023116Y015518D01*
X023116Y015933D01*
X023234Y015933D01*
X023234Y015518D01*
X023550Y015518D01*
X023591Y015529D01*
X023627Y015550D01*
X023657Y015580D01*
X023667Y015598D01*
X023678Y015580D01*
X023707Y015550D01*
X023744Y015529D01*
X023784Y015518D01*
X024100Y015518D01*
X024100Y015933D01*
X024218Y015933D01*
X024218Y015518D01*
X024535Y015518D01*
X024575Y015529D01*
X024611Y015550D01*
X024641Y015580D01*
X024651Y015598D01*
X024662Y015580D01*
X024692Y015550D01*
X024728Y015529D01*
X024768Y015518D01*
X025085Y015518D01*
X025085Y015933D01*
X024218Y015933D01*
X024218Y016051D01*
X024673Y016051D01*
X025085Y016051D01*
X025085Y016466D01*
X024768Y016466D01*
X024728Y016456D01*
X024692Y016435D01*
X024662Y016405D01*
X024651Y016387D01*
X024641Y016405D01*
X024611Y016435D01*
X024575Y016456D01*
X024535Y016466D01*
X024218Y016466D01*
X024218Y016051D01*
X024100Y016051D01*
X024100Y015933D01*
X023234Y015933D01*
X023234Y016051D01*
X023688Y016051D01*
X024100Y016051D01*
X024100Y016466D01*
X023784Y016466D01*
X023744Y016456D01*
X023707Y016435D01*
X023678Y016405D01*
X023667Y016387D01*
X023657Y016405D01*
X023627Y016435D01*
X023591Y016456D01*
X023550Y016466D01*
X023234Y016466D01*
X023234Y016051D01*
X023116Y016051D01*
X023116Y015933D01*
X022662Y015933D01*
X022662Y016051D02*
X023116Y016051D01*
X023116Y016466D01*
X022800Y016466D01*
X022759Y016456D01*
X022723Y016435D01*
X022693Y016405D01*
X022673Y016369D01*
X022662Y016328D01*
X022662Y016051D01*
X022662Y016145D02*
X019592Y016145D01*
X019708Y016029D02*
X023116Y016029D01*
X023116Y016145D02*
X023234Y016145D01*
X023234Y016029D02*
X024100Y016029D01*
X024100Y016145D02*
X024218Y016145D01*
X024218Y016029D02*
X025085Y016029D01*
X025085Y016145D02*
X025203Y016145D01*
X025203Y016262D02*
X025085Y016262D01*
X025085Y016379D02*
X025203Y016379D01*
X025537Y016495D02*
X020616Y016495D01*
X020613Y016379D02*
X022678Y016379D01*
X022662Y016262D02*
X020555Y016262D01*
X020058Y015679D02*
X022662Y015679D01*
X022662Y015796D02*
X019941Y015796D01*
X020175Y015562D02*
X022711Y015562D01*
X022759Y015393D02*
X022723Y015372D01*
X022693Y015342D01*
X022673Y015306D01*
X022662Y015265D01*
X022662Y014988D01*
X023116Y014988D01*
X023116Y014870D01*
X023234Y014870D01*
X023234Y014455D01*
X023550Y014455D01*
X023591Y014466D01*
X023627Y014487D01*
X023657Y014517D01*
X023667Y014535D01*
X023678Y014517D01*
X023707Y014487D01*
X023744Y014466D01*
X023784Y014455D01*
X024100Y014455D01*
X024100Y014870D01*
X024218Y014870D01*
X024218Y014455D01*
X024535Y014455D01*
X024575Y014466D01*
X024611Y014487D01*
X024641Y014517D01*
X024651Y014535D01*
X024662Y014517D01*
X024692Y014487D01*
X024728Y014466D01*
X024768Y014455D01*
X025085Y014455D01*
X025085Y014870D01*
X024630Y014870D01*
X024218Y014870D01*
X024218Y014988D01*
X025085Y014988D01*
X025085Y015403D01*
X024768Y015403D01*
X024728Y015393D01*
X024692Y015372D01*
X024662Y015342D01*
X024651Y015324D01*
X024641Y015342D01*
X024611Y015372D01*
X024575Y015393D01*
X024535Y015403D01*
X024218Y015403D01*
X024218Y014988D01*
X024100Y014988D01*
X024100Y014870D01*
X023234Y014870D01*
X023234Y014988D01*
X023688Y014988D01*
X024100Y014988D01*
X024100Y015403D01*
X023784Y015403D01*
X023744Y015393D01*
X023707Y015372D01*
X023678Y015342D01*
X023667Y015324D01*
X023657Y015342D01*
X023627Y015372D01*
X023591Y015393D01*
X023550Y015403D01*
X023234Y015403D01*
X023234Y014988D01*
X023116Y014988D01*
X023116Y015403D01*
X022800Y015403D01*
X022759Y015393D01*
X022686Y015329D02*
X020573Y015329D01*
X020616Y015213D02*
X022662Y015213D01*
X022662Y015096D02*
X020611Y015096D01*
X020552Y014979D02*
X023116Y014979D01*
X023116Y014870D02*
X022662Y014870D01*
X022662Y014594D01*
X022673Y014553D01*
X022693Y014517D01*
X022723Y014487D01*
X022759Y014466D01*
X022800Y014455D01*
X023116Y014455D01*
X023116Y014870D01*
X023116Y014863D02*
X023234Y014863D01*
X023234Y014979D02*
X024100Y014979D01*
X024100Y014863D02*
X024218Y014863D01*
X024218Y014979D02*
X025085Y014979D01*
X025085Y014863D02*
X025203Y014863D01*
X025203Y014746D02*
X025085Y014746D01*
X025085Y014629D02*
X025203Y014629D01*
X025203Y014513D02*
X025085Y014513D01*
X024666Y014513D02*
X024637Y014513D01*
X024571Y014280D02*
X024732Y014280D01*
X024651Y014199D02*
X024651Y014024D01*
X024651Y014199D01*
X024651Y014163D02*
X024651Y014163D01*
X024651Y014046D02*
X024651Y014046D01*
X024651Y014024D02*
X024651Y014024D01*
X024159Y013827D02*
X024159Y013197D01*
X023889Y013079D02*
X023864Y013138D01*
X023864Y013256D01*
X023909Y013364D01*
X023919Y013374D01*
X023748Y013374D01*
X023667Y013455D01*
X023667Y013630D01*
X023667Y013630D01*
X023667Y013455D01*
X023586Y013374D01*
X022764Y013374D01*
X022683Y013455D01*
X022683Y013509D01*
X022643Y013492D01*
X022638Y013492D01*
X023052Y013079D01*
X023889Y013079D01*
X023874Y013114D02*
X023017Y013114D01*
X022901Y013230D02*
X023864Y013230D01*
X023902Y013347D02*
X022784Y013347D01*
X022683Y013463D02*
X022667Y013463D01*
X022585Y013788D02*
X023136Y013788D01*
X023175Y013827D01*
X024159Y013827D01*
X025144Y013827D01*
X025203Y013886D01*
X025734Y013886D01*
X025734Y017134D01*
X025183Y017134D01*
X024199Y017134D01*
X024159Y017095D01*
X024159Y017626D01*
X024258Y017725D01*
X025144Y017725D01*
X025224Y018011D02*
X046490Y018011D01*
X046490Y017895D02*
X025391Y017895D01*
X025439Y017778D02*
X046490Y017778D01*
X046490Y017661D02*
X025437Y017661D01*
X025064Y018011D02*
X023255Y018011D01*
X023095Y018011D02*
X021887Y018011D01*
X021771Y018128D02*
X027079Y018128D01*
X027059Y018148D02*
X027142Y018065D01*
X027250Y018020D01*
X027368Y018020D01*
X027476Y018065D01*
X027559Y018148D01*
X027604Y018257D01*
X027604Y018374D01*
X027559Y018483D01*
X027545Y018497D01*
X032304Y023256D01*
X032599Y023256D01*
X032703Y023360D01*
X033288Y023945D01*
X034469Y023945D01*
X034573Y024049D01*
X034745Y024221D01*
X034848Y024221D01*
X034957Y024266D01*
X035040Y024349D01*
X035085Y024457D01*
X035085Y024575D01*
X035040Y024683D01*
X034957Y024766D01*
X034848Y024811D01*
X034731Y024811D01*
X034622Y024766D01*
X034539Y024683D01*
X034494Y024575D01*
X034494Y024471D01*
X034322Y024299D01*
X033141Y024299D01*
X033037Y024196D01*
X033037Y024196D01*
X032695Y023853D01*
X032677Y023896D01*
X032599Y023975D01*
X032677Y024053D01*
X032722Y024162D01*
X032722Y024279D01*
X032677Y024388D01*
X032594Y024471D01*
X032486Y024516D01*
X032368Y024516D01*
X032260Y024471D01*
X032177Y024388D01*
X032132Y024279D01*
X032132Y024176D01*
X031344Y023389D01*
X031344Y023394D01*
X031299Y023502D01*
X031216Y023585D01*
X031108Y023630D01*
X030990Y023630D01*
X030882Y023585D01*
X030799Y023502D01*
X030754Y023394D01*
X030754Y023276D01*
X030799Y023168D01*
X030813Y023153D01*
X027432Y019772D01*
X026153Y019772D01*
X025976Y019595D01*
X025872Y019595D01*
X025764Y019550D01*
X025681Y019467D01*
X025636Y019358D01*
X025636Y019241D01*
X025681Y019132D01*
X025764Y019049D01*
X025872Y019004D01*
X025990Y019004D01*
X026098Y019049D01*
X026128Y019079D01*
X026157Y019049D01*
X026266Y019004D01*
X026383Y019004D01*
X026492Y019049D01*
X026575Y019132D01*
X026612Y019221D01*
X027472Y019221D01*
X027132Y018881D01*
X027072Y018906D01*
X026955Y018906D01*
X026846Y018861D01*
X026763Y018778D01*
X026718Y018669D01*
X026718Y018552D01*
X026763Y018443D01*
X026846Y018360D01*
X026955Y018315D01*
X027014Y018315D01*
X027014Y018257D01*
X027059Y018148D01*
X027019Y018244D02*
X021654Y018244D01*
X021538Y018361D02*
X026846Y018361D01*
X026749Y018478D02*
X021421Y018478D01*
X021394Y018594D02*
X026718Y018594D01*
X026736Y018711D02*
X021327Y018711D01*
X021520Y019061D02*
X020399Y019061D01*
X020399Y019177D02*
X021430Y019177D01*
X021403Y019294D02*
X020399Y019294D01*
X020399Y019410D02*
X021425Y019410D01*
X021417Y019527D02*
X020399Y019527D01*
X020399Y019644D02*
X021301Y019644D01*
X021184Y019760D02*
X020399Y019760D01*
X020399Y019877D02*
X021068Y019877D01*
X020951Y019994D02*
X020399Y019994D01*
X020399Y020110D02*
X020834Y020110D01*
X020718Y020227D02*
X020399Y020227D01*
X020399Y020343D02*
X020601Y020343D01*
X020485Y020460D02*
X020399Y020460D01*
X020993Y021043D02*
X022280Y021043D01*
X022299Y021088D02*
X022241Y020949D01*
X022241Y020799D01*
X022299Y020660D01*
X022405Y020554D01*
X022544Y020497D01*
X022694Y020497D01*
X022833Y020554D01*
X022939Y020660D01*
X022997Y020799D01*
X022997Y020949D01*
X022939Y021088D01*
X022833Y021195D01*
X022694Y021252D01*
X022544Y021252D01*
X022405Y021195D01*
X022299Y021088D01*
X022370Y021160D02*
X020877Y021160D01*
X020760Y021276D02*
X028937Y021276D01*
X029053Y021393D02*
X020643Y021393D01*
X020527Y021509D02*
X029170Y021509D01*
X029287Y021626D02*
X020410Y021626D01*
X020293Y021743D02*
X029403Y021743D01*
X029520Y021859D02*
X020177Y021859D01*
X020060Y021976D02*
X029636Y021976D01*
X029753Y022093D02*
X019944Y022093D01*
X019827Y022209D02*
X029870Y022209D01*
X029986Y022326D02*
X019710Y022326D01*
X019594Y022442D02*
X030103Y022442D01*
X030219Y022559D02*
X019477Y022559D01*
X019361Y022676D02*
X030336Y022676D01*
X030453Y022792D02*
X019244Y022792D01*
X019127Y022909D02*
X030569Y022909D01*
X030686Y023025D02*
X019011Y023025D01*
X018894Y023142D02*
X030803Y023142D01*
X030761Y023259D02*
X018778Y023259D01*
X018661Y023375D02*
X030754Y023375D01*
X030795Y023492D02*
X018544Y023492D01*
X018428Y023608D02*
X030938Y023608D01*
X031160Y023608D02*
X031564Y023608D01*
X031448Y023492D02*
X031304Y023492D01*
X031681Y023725D02*
X015161Y023725D01*
X015045Y023842D02*
X031797Y023842D01*
X031914Y023958D02*
X014986Y023958D01*
X014986Y024075D02*
X032031Y024075D01*
X032132Y024192D02*
X014986Y024192D01*
X014986Y024308D02*
X032144Y024308D01*
X032213Y024425D02*
X014986Y024425D01*
X014986Y024541D02*
X022969Y024541D01*
X023118Y024541D01*
X023118Y024959D01*
X022700Y024959D01*
X022700Y024810D01*
X022969Y024541D01*
X023118Y024541D02*
X023200Y024541D01*
X023349Y024541D01*
X023618Y024810D01*
X023618Y024959D01*
X023200Y024959D01*
X023200Y024541D01*
X023200Y024658D02*
X023118Y024658D01*
X023118Y024775D02*
X023200Y024775D01*
X023200Y024891D02*
X023118Y024891D01*
X023118Y024959D02*
X023200Y024959D01*
X023200Y025041D01*
X023618Y025041D01*
X023618Y025190D01*
X023505Y025303D01*
X023843Y025303D01*
X023722Y025182D01*
X023722Y024819D01*
X023978Y024562D01*
X024341Y024562D01*
X024597Y024819D01*
X024597Y025182D01*
X024475Y025303D01*
X024570Y025303D01*
X024722Y025152D01*
X024722Y024819D01*
X024978Y024562D01*
X025341Y024562D01*
X025590Y024811D01*
X027383Y024811D01*
X027437Y024758D01*
X027545Y024713D01*
X027663Y024713D01*
X027771Y024758D01*
X027855Y024841D01*
X027899Y024949D01*
X027899Y025067D01*
X027855Y025175D01*
X027771Y025258D01*
X027663Y025303D01*
X027545Y025303D01*
X027437Y025258D01*
X027383Y025205D01*
X025574Y025205D01*
X025341Y025438D01*
X024992Y025438D01*
X024868Y025562D01*
X025516Y025562D01*
X025597Y025643D01*
X025597Y026357D01*
X025516Y026438D01*
X024802Y026438D01*
X024722Y026357D01*
X024722Y025697D01*
X024475Y025697D01*
X024597Y025819D01*
X024597Y026182D01*
X024341Y026438D01*
X023978Y026438D01*
X023722Y026182D01*
X023722Y025819D01*
X023843Y025697D01*
X023475Y025697D01*
X023597Y025819D01*
X023597Y026182D01*
X023341Y026438D01*
X022978Y026438D01*
X022722Y026182D01*
X022722Y025839D01*
X021780Y026780D01*
X018770Y026780D01*
X018716Y026833D01*
X018608Y026878D01*
X018490Y026878D01*
X018382Y026833D01*
X018299Y026750D01*
X018254Y026642D01*
X018254Y026524D01*
X014718Y026524D01*
X014786Y026407D02*
X018307Y026407D01*
X018299Y026416D02*
X018382Y026333D01*
X018490Y026288D01*
X018608Y026288D01*
X018716Y026333D01*
X018770Y026386D01*
X021617Y026386D01*
X022585Y025419D01*
X022700Y025303D01*
X022813Y025303D01*
X022700Y025190D01*
X022700Y025041D01*
X023118Y025041D01*
X023118Y024959D01*
X023118Y025008D02*
X014986Y025008D01*
X014986Y025124D02*
X022700Y025124D01*
X022751Y025241D02*
X014986Y025241D01*
X014986Y025358D02*
X022646Y025358D01*
X022529Y025474D02*
X014986Y025474D01*
X014986Y025591D02*
X022412Y025591D01*
X022296Y025707D02*
X014986Y025707D01*
X014874Y025824D02*
X022179Y025824D01*
X022063Y025941D02*
X014786Y025941D01*
X014786Y026057D02*
X021946Y026057D01*
X021829Y026174D02*
X014786Y026174D01*
X014786Y026291D02*
X018484Y026291D01*
X018615Y026291D02*
X021713Y026291D01*
X021699Y026583D02*
X022781Y025500D01*
X024651Y025500D01*
X025045Y025107D01*
X025053Y025107D01*
X025159Y025000D01*
X025167Y025008D01*
X027604Y025008D01*
X027875Y024891D02*
X040310Y024891D01*
X040301Y024870D02*
X040301Y024753D01*
X040346Y024644D01*
X040410Y024580D01*
X040326Y024496D01*
X036408Y024496D01*
X036334Y024570D01*
X036226Y024614D01*
X036108Y024614D01*
X036000Y024570D01*
X035917Y024486D01*
X035872Y024378D01*
X035872Y024260D01*
X035917Y024152D01*
X036000Y024069D01*
X036108Y024024D01*
X036226Y024024D01*
X036334Y024069D01*
X036408Y024142D01*
X040473Y024142D01*
X040670Y024339D01*
X040774Y024443D01*
X040774Y024571D01*
X040847Y024644D01*
X040892Y024753D01*
X040892Y024870D01*
X040847Y024979D01*
X040764Y025062D01*
X040655Y025107D01*
X040538Y025107D01*
X040429Y025062D01*
X040346Y024979D01*
X040301Y024870D01*
X040301Y024775D02*
X034937Y024775D01*
X035050Y024658D02*
X040340Y024658D01*
X040371Y024541D02*
X036363Y024541D01*
X035972Y024541D02*
X035085Y024541D01*
X035071Y024425D02*
X035891Y024425D01*
X035872Y024308D02*
X034999Y024308D01*
X034957Y024077D02*
X034848Y024122D01*
X034731Y024122D01*
X034622Y024077D01*
X034539Y023994D01*
X034494Y023886D01*
X034494Y023782D01*
X034224Y023512D01*
X034120Y023408D01*
X034120Y022227D01*
X034027Y022134D01*
X033714Y022134D01*
X033667Y022154D01*
X033549Y022154D01*
X033441Y022109D01*
X033358Y022026D01*
X033313Y021917D01*
X033313Y021800D01*
X033358Y021691D01*
X033441Y021608D01*
X033549Y021563D01*
X033667Y021563D01*
X033775Y021608D01*
X033858Y021691D01*
X033895Y021780D01*
X034174Y021780D01*
X034277Y021884D01*
X034371Y021977D01*
X034474Y022080D01*
X034474Y023262D01*
X034521Y023309D01*
X034539Y023266D01*
X034592Y023213D01*
X034592Y021974D01*
X034691Y021875D01*
X034691Y021800D01*
X034736Y021691D01*
X034819Y021608D01*
X034927Y021563D01*
X035045Y021563D01*
X035153Y021608D01*
X035236Y021691D01*
X035281Y021800D01*
X035281Y021917D01*
X035236Y022026D01*
X035153Y022109D01*
X035045Y022154D01*
X034986Y022154D01*
X034986Y023213D01*
X035040Y023266D01*
X035085Y023375D01*
X039895Y023375D01*
X039895Y023415D02*
X039895Y023058D01*
X040032Y022728D01*
X040285Y022475D01*
X040615Y022338D01*
X040972Y022338D01*
X041302Y022475D01*
X041555Y022728D01*
X041691Y023058D01*
X041691Y023415D01*
X041555Y023745D01*
X041302Y023998D01*
X040972Y024135D01*
X040615Y024135D01*
X040285Y023998D01*
X040032Y023745D01*
X039895Y023415D01*
X039927Y023492D02*
X035085Y023492D01*
X035040Y023601D01*
X035010Y023630D01*
X035040Y023660D01*
X035085Y023768D01*
X035085Y023886D01*
X035040Y023994D01*
X034957Y024077D01*
X034959Y024075D02*
X035994Y024075D01*
X035900Y024192D02*
X034715Y024192D01*
X034620Y024075D02*
X034599Y024075D01*
X034524Y023958D02*
X034482Y023958D01*
X034494Y023842D02*
X033184Y023842D01*
X033068Y023725D02*
X034437Y023725D01*
X034320Y023608D02*
X032951Y023608D01*
X032835Y023492D02*
X034204Y023492D01*
X034120Y023375D02*
X032718Y023375D01*
X032703Y023360D02*
X032703Y023360D01*
X032601Y023259D02*
X034120Y023259D01*
X034120Y023142D02*
X032189Y023142D01*
X032073Y023025D02*
X034120Y023025D01*
X034120Y022909D02*
X031956Y022909D01*
X031840Y022792D02*
X034120Y022792D01*
X034120Y022676D02*
X031723Y022676D01*
X031606Y022559D02*
X034120Y022559D01*
X034120Y022442D02*
X031490Y022442D01*
X031373Y022326D02*
X034120Y022326D01*
X034102Y022209D02*
X031257Y022209D01*
X031140Y022093D02*
X033425Y022093D01*
X033337Y021976D02*
X031023Y021976D01*
X030907Y021859D02*
X033313Y021859D01*
X033337Y021743D02*
X030790Y021743D01*
X030673Y021626D02*
X033423Y021626D01*
X033793Y021626D02*
X034801Y021626D01*
X034714Y021743D02*
X033880Y021743D01*
X034253Y021859D02*
X034691Y021859D01*
X034592Y021976D02*
X034370Y021976D01*
X034371Y021977D02*
X034371Y021977D01*
X034474Y022093D02*
X034592Y022093D01*
X034592Y022209D02*
X034474Y022209D01*
X034474Y022326D02*
X034592Y022326D01*
X034592Y022442D02*
X034474Y022442D01*
X034474Y022559D02*
X034592Y022559D01*
X034592Y022676D02*
X034474Y022676D01*
X034474Y022792D02*
X034592Y022792D01*
X034592Y022909D02*
X034474Y022909D01*
X034474Y023025D02*
X034592Y023025D01*
X034592Y023142D02*
X034474Y023142D01*
X034474Y023259D02*
X034546Y023259D01*
X034789Y023433D02*
X034789Y022055D01*
X034986Y021859D01*
X035257Y021976D02*
X035829Y021976D01*
X035818Y021987D02*
X035902Y021904D01*
X036010Y021859D01*
X036114Y021859D01*
X037447Y020525D01*
X037447Y020422D01*
X037492Y020313D01*
X037575Y020230D01*
X037683Y020185D01*
X037801Y020185D01*
X037909Y020230D01*
X037992Y020313D01*
X038010Y020356D01*
X038923Y019443D01*
X038923Y019339D01*
X038968Y019231D01*
X039051Y019148D01*
X039160Y019103D01*
X039277Y019103D01*
X039386Y019148D01*
X039469Y019231D01*
X039514Y019339D01*
X039514Y019457D01*
X039469Y019565D01*
X039386Y019648D01*
X039277Y019693D01*
X039174Y019693D01*
X037914Y020953D01*
X037815Y020953D01*
X036541Y022227D01*
X036541Y022326D01*
X043175Y022326D01*
X043175Y022442D02*
X041223Y022442D01*
X041386Y022559D02*
X043175Y022559D01*
X043175Y022676D02*
X041502Y022676D01*
X041581Y022792D02*
X043175Y022792D01*
X043175Y022909D02*
X041629Y022909D01*
X041678Y023025D02*
X043175Y023025D01*
X043175Y023142D02*
X041691Y023142D01*
X041691Y023259D02*
X043175Y023259D01*
X043175Y023375D02*
X041691Y023375D01*
X041659Y023492D02*
X043175Y023492D01*
X043175Y023608D02*
X041611Y023608D01*
X041563Y023725D02*
X043175Y023725D01*
X043175Y023842D02*
X041458Y023842D01*
X041341Y023958D02*
X043175Y023958D01*
X043175Y024049D02*
X043175Y019638D01*
X043102Y019565D01*
X043057Y019457D01*
X043057Y019339D01*
X043102Y019231D01*
X043185Y019148D01*
X043294Y019103D01*
X043411Y019103D01*
X043520Y019148D01*
X043603Y019231D01*
X043648Y019339D01*
X043648Y019457D01*
X043603Y019565D01*
X043529Y019638D01*
X043529Y024196D01*
X042959Y024767D01*
X042959Y024870D01*
X042914Y024979D01*
X042831Y025062D01*
X042722Y025107D01*
X042605Y025107D01*
X042496Y025062D01*
X042413Y024979D01*
X042368Y024870D01*
X042368Y024753D01*
X042413Y024644D01*
X042496Y024561D01*
X042605Y024516D01*
X042708Y024516D01*
X043175Y024049D01*
X043149Y024075D02*
X041116Y024075D01*
X040756Y024425D02*
X042799Y024425D01*
X042916Y024308D02*
X040639Y024308D01*
X040522Y024192D02*
X043033Y024192D01*
X043300Y024425D02*
X043955Y024425D01*
X043838Y024541D02*
X043184Y024541D01*
X043067Y024658D02*
X043736Y024658D01*
X043669Y024775D02*
X042959Y024775D01*
X042950Y024891D02*
X043601Y024891D01*
X043541Y025008D02*
X042884Y025008D01*
X042442Y025008D02*
X040817Y025008D01*
X040883Y024891D02*
X042377Y024891D01*
X042368Y024775D02*
X040892Y024775D01*
X040852Y024658D02*
X042407Y024658D01*
X042543Y024541D02*
X040774Y024541D01*
X040375Y025008D02*
X027899Y025008D01*
X027876Y025124D02*
X043510Y025124D01*
X043478Y025241D02*
X027789Y025241D01*
X027419Y025241D02*
X025538Y025241D01*
X025421Y025358D02*
X043447Y025358D01*
X043438Y025474D02*
X024956Y025474D01*
X024722Y025707D02*
X024486Y025707D01*
X024597Y025824D02*
X024722Y025824D01*
X024722Y025941D02*
X024597Y025941D01*
X024597Y026057D02*
X024722Y026057D01*
X024722Y026174D02*
X024597Y026174D01*
X024488Y026291D02*
X024722Y026291D01*
X024771Y026407D02*
X024372Y026407D01*
X023947Y026407D02*
X023372Y026407D01*
X023488Y026291D02*
X023830Y026291D01*
X023722Y026174D02*
X023597Y026174D01*
X023597Y026057D02*
X023722Y026057D01*
X023722Y025941D02*
X023597Y025941D01*
X023597Y025824D02*
X023722Y025824D01*
X023833Y025707D02*
X023486Y025707D01*
X022722Y025941D02*
X022619Y025941D01*
X022722Y026057D02*
X022503Y026057D01*
X022386Y026174D02*
X022722Y026174D01*
X022830Y026291D02*
X022270Y026291D01*
X022153Y026407D02*
X022947Y026407D01*
X022036Y026524D02*
X043438Y026524D01*
X043438Y026640D02*
X021920Y026640D01*
X021803Y026757D02*
X043438Y026757D01*
X043438Y026874D02*
X018619Y026874D01*
X018479Y026874D02*
X004880Y026874D01*
X004880Y026990D02*
X043438Y026990D01*
X043438Y027107D02*
X004880Y027107D01*
X004880Y026757D02*
X018306Y026757D01*
X018254Y026640D02*
X004880Y026640D01*
X004880Y026524D02*
X010154Y026524D01*
X010167Y026537D02*
X009911Y026280D01*
X009911Y025917D01*
X010167Y025661D01*
X010530Y025661D01*
X010786Y025917D01*
X010786Y026280D01*
X010530Y026537D01*
X010167Y026537D01*
X010038Y026407D02*
X004880Y026407D01*
X004880Y026291D02*
X009921Y026291D01*
X009911Y026174D02*
X004880Y026174D01*
X004880Y026057D02*
X009911Y026057D01*
X009911Y025941D02*
X004880Y025941D01*
X004880Y025824D02*
X010004Y025824D01*
X010120Y025707D02*
X004880Y025707D01*
X004880Y025591D02*
X011606Y025591D01*
X011592Y025474D02*
X011679Y025474D01*
X012033Y025474D02*
X012105Y025474D01*
X012033Y025591D02*
X012606Y025591D01*
X012592Y025474D02*
X012663Y025474D01*
X013018Y025474D02*
X013105Y025474D01*
X013018Y025591D02*
X013606Y025591D01*
X013592Y025474D02*
X013648Y025474D01*
X014002Y025474D02*
X014105Y025474D01*
X014167Y025537D02*
X014002Y025371D01*
X014002Y025661D01*
X014536Y025661D01*
X014632Y025565D01*
X014632Y025434D01*
X014530Y025537D01*
X014167Y025537D01*
X014002Y025591D02*
X014606Y025591D01*
X014592Y025474D02*
X014632Y025474D01*
X013911Y025824D02*
X013874Y025824D01*
X013898Y025799D02*
X013898Y025799D01*
X013911Y025941D02*
X013786Y025941D01*
X013786Y026057D02*
X013911Y026057D01*
X013911Y026174D02*
X013786Y026174D01*
X013776Y026291D02*
X013911Y026291D01*
X013911Y026407D02*
X013659Y026407D01*
X013542Y026524D02*
X013978Y026524D01*
X013154Y026524D02*
X012542Y026524D01*
X012659Y026407D02*
X013038Y026407D01*
X012921Y026291D02*
X012776Y026291D01*
X012786Y026174D02*
X012911Y026174D01*
X012911Y026057D02*
X012786Y026057D01*
X012786Y025941D02*
X012911Y025941D01*
X012874Y025824D02*
X013004Y025824D01*
X012990Y025707D02*
X013120Y025707D01*
X012120Y025707D02*
X011990Y025707D01*
X012004Y025824D02*
X011874Y025824D01*
X011911Y025941D02*
X011786Y025941D01*
X011786Y026057D02*
X011911Y026057D01*
X011911Y026174D02*
X011786Y026174D01*
X011776Y026291D02*
X011921Y026291D01*
X012038Y026407D02*
X011659Y026407D01*
X011542Y026524D02*
X012154Y026524D01*
X011154Y026524D02*
X010542Y026524D01*
X010659Y026407D02*
X011038Y026407D01*
X010921Y026291D02*
X010776Y026291D01*
X010786Y026174D02*
X010911Y026174D01*
X010911Y026057D02*
X010786Y026057D01*
X010786Y025941D02*
X010911Y025941D01*
X011004Y025824D02*
X010693Y025824D01*
X010576Y025707D02*
X011120Y025707D01*
X011105Y025474D02*
X010622Y025474D01*
X010538Y025558D02*
X010389Y025558D01*
X010389Y025140D01*
X010307Y025140D01*
X010307Y025058D01*
X009889Y025058D01*
X009889Y024909D01*
X010158Y024640D01*
X010307Y024640D01*
X010307Y025058D01*
X010389Y025058D01*
X010389Y024640D01*
X010538Y024640D01*
X010807Y024909D01*
X010807Y025058D01*
X010389Y025058D01*
X010389Y025140D01*
X010807Y025140D01*
X010807Y025289D01*
X010538Y025558D01*
X010389Y025474D02*
X010307Y025474D01*
X010307Y025558D02*
X010158Y025558D01*
X009889Y025289D01*
X009889Y025140D01*
X010307Y025140D01*
X010307Y025558D01*
X010307Y025358D02*
X010389Y025358D01*
X010389Y025241D02*
X010307Y025241D01*
X010307Y025124D02*
X004809Y025124D01*
X004778Y025008D02*
X009889Y025008D01*
X009907Y024891D02*
X004717Y024891D01*
X004650Y024775D02*
X010023Y024775D01*
X010140Y024658D02*
X004583Y024658D01*
X004480Y024541D02*
X011171Y024541D01*
X011171Y024425D02*
X007954Y024425D01*
X008034Y024392D02*
X007704Y024528D01*
X007347Y024528D01*
X007017Y024392D01*
X006764Y024139D01*
X006627Y023809D01*
X006627Y023452D01*
X006764Y023122D01*
X007017Y022869D01*
X007347Y022732D01*
X007704Y022732D01*
X008034Y022869D01*
X008287Y023122D01*
X008424Y023452D01*
X008424Y023809D01*
X008287Y024139D01*
X008034Y024392D01*
X008118Y024308D02*
X011171Y024308D01*
X011171Y024192D02*
X008234Y024192D01*
X008313Y024075D02*
X011171Y024075D01*
X011171Y023958D02*
X008362Y023958D01*
X008410Y023842D02*
X011171Y023842D01*
X011171Y023725D02*
X008424Y023725D01*
X008424Y023608D02*
X011171Y023608D01*
X011171Y023492D02*
X008424Y023492D01*
X008392Y023375D02*
X011171Y023375D01*
X011171Y023259D02*
X008344Y023259D01*
X008295Y023142D02*
X011171Y023142D01*
X011171Y023025D02*
X008191Y023025D01*
X008074Y022909D02*
X011171Y022909D01*
X011171Y022792D02*
X007849Y022792D01*
X007202Y022792D02*
X001829Y022792D01*
X001829Y022676D02*
X011281Y022676D01*
X011397Y022559D02*
X001829Y022559D01*
X001829Y022442D02*
X011514Y022442D01*
X011631Y022326D02*
X001829Y022326D01*
X001829Y022209D02*
X011747Y022209D01*
X011864Y022093D02*
X001829Y022093D01*
X001829Y021976D02*
X017492Y021976D01*
X017609Y021859D02*
X001829Y021859D01*
X001829Y021743D02*
X017725Y021743D01*
X017842Y021626D02*
X001829Y021626D01*
X001829Y021509D02*
X017959Y021509D01*
X018075Y021393D02*
X001829Y021393D01*
X001829Y021276D02*
X009380Y021276D01*
X009372Y021268D02*
X009425Y021321D01*
X009534Y021366D01*
X009651Y021366D01*
X009760Y021321D01*
X009843Y021238D01*
X009888Y021130D01*
X009888Y021012D01*
X009843Y020904D01*
X009760Y020821D01*
X009651Y020776D01*
X009534Y020776D01*
X009425Y020821D01*
X009372Y020874D01*
X009281Y020874D01*
X009297Y020835D01*
X009297Y020717D01*
X009252Y020609D01*
X009169Y020526D01*
X009061Y020481D01*
X008985Y020481D01*
X008313Y019809D01*
X008313Y015288D01*
X008366Y015234D01*
X008411Y015126D01*
X008411Y015008D01*
X008366Y014900D01*
X008313Y014846D01*
X008313Y013123D01*
X008366Y013069D01*
X008411Y012961D01*
X008411Y012843D01*
X008366Y012735D01*
X008283Y012652D01*
X008175Y012607D01*
X008057Y012607D01*
X007949Y012652D01*
X007866Y012735D01*
X007821Y012843D01*
X007821Y012961D01*
X007866Y013069D01*
X007919Y013123D01*
X007919Y014846D01*
X007866Y014900D01*
X007821Y015008D01*
X007821Y015126D01*
X007866Y015234D01*
X007919Y015288D01*
X007919Y019972D01*
X008707Y020759D01*
X008707Y020835D01*
X008723Y020874D01*
X005540Y020874D01*
X005057Y020391D01*
X005057Y020127D01*
X004836Y019906D01*
X004523Y019906D01*
X004301Y020127D01*
X004301Y020440D01*
X004523Y020662D01*
X004771Y020662D01*
X005377Y021268D01*
X009372Y021268D01*
X009592Y021071D02*
X005459Y021071D01*
X004671Y020284D01*
X004679Y020284D01*
X004438Y020577D02*
X004032Y020577D01*
X004136Y020473D02*
X003868Y020740D01*
X003490Y020740D01*
X003222Y020473D01*
X003222Y020300D01*
X003010Y020087D01*
X002959Y019964D01*
X002959Y019135D01*
X003010Y019012D01*
X003104Y018917D01*
X003596Y018425D01*
X003719Y018374D01*
X005910Y018374D01*
X006386Y017899D01*
X006301Y017899D01*
X006044Y017642D01*
X006044Y017280D01*
X006301Y017023D01*
X006664Y017023D01*
X006797Y017157D01*
X006797Y016765D01*
X006664Y016899D01*
X006301Y016899D01*
X006044Y016642D01*
X006044Y016280D01*
X006301Y016023D01*
X006664Y016023D01*
X006797Y016157D01*
X006797Y015765D01*
X006664Y015899D01*
X006301Y015899D01*
X006044Y015642D01*
X006044Y015280D01*
X006301Y015023D01*
X006614Y015023D01*
X006569Y014977D01*
X006268Y014977D01*
X005966Y014675D01*
X005966Y014247D01*
X006268Y013944D01*
X006600Y013944D01*
X006625Y013920D01*
X006523Y013920D01*
X006523Y013502D01*
X006441Y013502D01*
X006441Y013420D01*
X006023Y013420D01*
X006023Y013140D01*
X006034Y013100D01*
X006055Y013063D01*
X006085Y013034D01*
X006121Y013013D01*
X006161Y013002D01*
X006441Y013002D01*
X006441Y013420D01*
X006523Y013420D01*
X006523Y013002D01*
X006660Y013002D01*
X004533Y010874D01*
X003569Y010874D01*
X003569Y010999D01*
X003442Y011126D01*
X002554Y011126D01*
X002427Y010999D01*
X002427Y010111D01*
X002554Y009985D01*
X002715Y009985D01*
X002663Y009947D01*
X002606Y009890D01*
X002559Y009824D01*
X002522Y009752D01*
X002497Y009676D01*
X002487Y009614D01*
X002939Y009614D01*
X002939Y009496D01*
X002487Y009496D01*
X002497Y009435D01*
X002522Y009358D01*
X002559Y009286D01*
X002606Y009221D01*
X002663Y009164D01*
X002729Y009116D01*
X002801Y009080D01*
X002878Y009055D01*
X002923Y009048D01*
X002900Y009048D01*
X002719Y008973D01*
X002581Y008834D01*
X002506Y008653D01*
X002506Y008458D01*
X002581Y008277D01*
X002719Y008138D01*
X002900Y008063D01*
X003096Y008063D01*
X003277Y008138D01*
X003415Y008277D01*
X003490Y008458D01*
X003490Y008653D01*
X003415Y008834D01*
X003277Y008973D01*
X003096Y009048D01*
X003073Y009048D01*
X003118Y009055D01*
X003195Y009080D01*
X003267Y009116D01*
X003332Y009164D01*
X003390Y009221D01*
X003437Y009286D01*
X003474Y009358D01*
X003499Y009435D01*
X003508Y009496D01*
X003057Y009496D01*
X003057Y009614D01*
X003508Y009614D01*
X003499Y009676D01*
X003474Y009752D01*
X003437Y009824D01*
X003390Y009890D01*
X003332Y009947D01*
X003281Y009985D01*
X003442Y009985D01*
X003569Y010111D01*
X003569Y010205D01*
X004738Y010205D01*
X004861Y010256D01*
X004955Y010350D01*
X007415Y012811D01*
X007466Y012934D01*
X007466Y013953D01*
X007415Y014076D01*
X007321Y014170D01*
X007014Y014477D01*
X007321Y014784D01*
X007415Y014878D01*
X007466Y015001D01*
X007466Y017693D01*
X007415Y017816D01*
X006333Y018899D01*
X006239Y018993D01*
X006116Y019044D01*
X003924Y019044D01*
X003628Y019340D01*
X003628Y019759D01*
X003696Y019827D01*
X003868Y019827D01*
X004136Y020095D01*
X004136Y020473D01*
X004136Y020460D02*
X004321Y020460D01*
X004301Y020343D02*
X004136Y020343D01*
X004136Y020227D02*
X004301Y020227D01*
X004318Y020110D02*
X004136Y020110D01*
X004034Y019994D02*
X004435Y019994D01*
X004344Y019933D02*
X004200Y019933D01*
X004200Y019555D01*
X004158Y019555D01*
X004158Y019933D01*
X004014Y019933D01*
X003780Y019699D01*
X003780Y019555D01*
X004158Y019555D01*
X004158Y019513D01*
X003780Y019513D01*
X003780Y019368D01*
X004014Y019135D01*
X004158Y019135D01*
X004158Y019513D01*
X004200Y019513D01*
X004200Y019555D01*
X004578Y019555D01*
X004578Y019699D01*
X004344Y019933D01*
X004400Y019877D02*
X007919Y019877D01*
X007919Y019760D02*
X004517Y019760D01*
X004578Y019644D02*
X007919Y019644D01*
X007919Y019527D02*
X004200Y019527D01*
X004200Y019513D02*
X004578Y019513D01*
X004578Y019368D01*
X004344Y019135D01*
X004200Y019135D01*
X004200Y019513D01*
X004158Y019527D02*
X003628Y019527D01*
X003628Y019410D02*
X003780Y019410D01*
X003855Y019294D02*
X003674Y019294D01*
X003790Y019177D02*
X003971Y019177D01*
X003907Y019061D02*
X007919Y019061D01*
X007919Y019177D02*
X004387Y019177D01*
X004504Y019294D02*
X007919Y019294D01*
X007919Y019410D02*
X004578Y019410D01*
X004200Y019410D02*
X004158Y019410D01*
X004158Y019294D02*
X004200Y019294D01*
X004200Y019177D02*
X004158Y019177D01*
X004158Y019644D02*
X004200Y019644D01*
X004200Y019760D02*
X004158Y019760D01*
X004158Y019877D02*
X004200Y019877D01*
X003958Y019877D02*
X003918Y019877D01*
X003841Y019760D02*
X003629Y019760D01*
X003628Y019644D02*
X003780Y019644D01*
X002971Y019994D02*
X001829Y019994D01*
X001829Y020110D02*
X003032Y020110D01*
X003149Y020227D02*
X001829Y020227D01*
X001829Y020343D02*
X003222Y020343D01*
X003222Y020460D02*
X001829Y020460D01*
X001829Y020577D02*
X003326Y020577D01*
X003443Y020693D02*
X001829Y020693D01*
X001829Y020810D02*
X004919Y020810D01*
X005035Y020926D02*
X001829Y020926D01*
X001829Y021043D02*
X005152Y021043D01*
X005269Y021160D02*
X001829Y021160D01*
X001829Y019877D02*
X002959Y019877D01*
X002959Y019760D02*
X001829Y019760D01*
X001829Y019644D02*
X002959Y019644D01*
X002959Y019527D02*
X001829Y019527D01*
X001829Y019410D02*
X002959Y019410D01*
X002959Y019294D02*
X001829Y019294D01*
X001829Y019177D02*
X002959Y019177D01*
X002989Y019061D02*
X001829Y019061D01*
X001829Y018944D02*
X003077Y018944D01*
X003104Y018917D02*
X003104Y018917D01*
X003194Y018827D02*
X001829Y018827D01*
X001829Y018711D02*
X003310Y018711D01*
X003427Y018594D02*
X001829Y018594D01*
X001829Y018478D02*
X003543Y018478D01*
X005044Y017642D02*
X005044Y017280D01*
X005301Y017023D01*
X005664Y017023D01*
X005920Y017280D01*
X005920Y017642D01*
X005664Y017899D01*
X005301Y017899D01*
X005044Y017642D01*
X005063Y017661D02*
X001829Y017661D01*
X001829Y017545D02*
X005044Y017545D01*
X005044Y017428D02*
X001829Y017428D01*
X001829Y017312D02*
X005044Y017312D01*
X005129Y017195D02*
X001829Y017195D01*
X001829Y017078D02*
X005246Y017078D01*
X005301Y016899D02*
X005044Y016642D01*
X005044Y016280D01*
X005301Y016023D01*
X005664Y016023D01*
X005920Y016280D01*
X005920Y016642D01*
X005664Y016899D01*
X005301Y016899D01*
X005247Y016845D02*
X001829Y016845D01*
X001829Y016728D02*
X005131Y016728D01*
X005044Y016612D02*
X001829Y016612D01*
X001829Y016495D02*
X005044Y016495D01*
X005044Y016379D02*
X001829Y016379D01*
X001829Y016262D02*
X005062Y016262D01*
X005179Y016145D02*
X001829Y016145D01*
X001829Y016029D02*
X005295Y016029D01*
X005301Y015899D02*
X005044Y015642D01*
X005044Y015280D01*
X005301Y015023D01*
X005664Y015023D01*
X005920Y015280D01*
X005920Y015642D01*
X005664Y015899D01*
X005301Y015899D01*
X005198Y015796D02*
X001829Y015796D01*
X001829Y015912D02*
X006797Y015912D01*
X006797Y015796D02*
X006767Y015796D01*
X006797Y016029D02*
X006669Y016029D01*
X006786Y016145D02*
X006797Y016145D01*
X006295Y016029D02*
X005669Y016029D01*
X005786Y016145D02*
X006179Y016145D01*
X006062Y016262D02*
X005902Y016262D01*
X005920Y016379D02*
X006044Y016379D01*
X006044Y016495D02*
X005920Y016495D01*
X005920Y016612D02*
X006044Y016612D01*
X006131Y016728D02*
X005834Y016728D01*
X005717Y016845D02*
X006247Y016845D01*
X006246Y017078D02*
X005719Y017078D01*
X005835Y017195D02*
X006129Y017195D01*
X006044Y017312D02*
X005920Y017312D01*
X005920Y017428D02*
X006044Y017428D01*
X006044Y017545D02*
X005920Y017545D01*
X005901Y017661D02*
X006063Y017661D01*
X006180Y017778D02*
X005784Y017778D01*
X005668Y017895D02*
X006297Y017895D01*
X006274Y018011D02*
X001829Y018011D01*
X001829Y017895D02*
X005297Y017895D01*
X005180Y017778D02*
X001829Y017778D01*
X001829Y018128D02*
X006157Y018128D01*
X006040Y018244D02*
X001829Y018244D01*
X001829Y018361D02*
X005924Y018361D01*
X006637Y018594D02*
X007919Y018594D01*
X007919Y018478D02*
X006754Y018478D01*
X006870Y018361D02*
X007919Y018361D01*
X007919Y018244D02*
X006987Y018244D01*
X007104Y018128D02*
X007919Y018128D01*
X007919Y018011D02*
X007220Y018011D01*
X007337Y017895D02*
X007919Y017895D01*
X007919Y017778D02*
X007431Y017778D01*
X007466Y017661D02*
X007919Y017661D01*
X007919Y017545D02*
X007466Y017545D01*
X007466Y017428D02*
X007919Y017428D01*
X007919Y017312D02*
X007466Y017312D01*
X007466Y017195D02*
X007919Y017195D01*
X007919Y017078D02*
X007466Y017078D01*
X007466Y016962D02*
X007919Y016962D01*
X007919Y016845D02*
X007466Y016845D01*
X007466Y016728D02*
X007919Y016728D01*
X007919Y016612D02*
X007466Y016612D01*
X007466Y016495D02*
X007919Y016495D01*
X007919Y016379D02*
X007466Y016379D01*
X007466Y016262D02*
X007919Y016262D01*
X007919Y016145D02*
X007466Y016145D01*
X007466Y016029D02*
X007919Y016029D01*
X007919Y015912D02*
X007466Y015912D01*
X007466Y015796D02*
X007919Y015796D01*
X007919Y015679D02*
X007466Y015679D01*
X007466Y015562D02*
X007919Y015562D01*
X007919Y015446D02*
X007466Y015446D01*
X007466Y015329D02*
X007919Y015329D01*
X007857Y015213D02*
X007466Y015213D01*
X007466Y015096D02*
X007821Y015096D01*
X007833Y014979D02*
X007458Y014979D01*
X007401Y014863D02*
X007903Y014863D01*
X007919Y014746D02*
X007284Y014746D01*
X007167Y014629D02*
X007919Y014629D01*
X007919Y014513D02*
X007051Y014513D01*
X007095Y014396D02*
X007919Y014396D01*
X007919Y014280D02*
X007212Y014280D01*
X007328Y014163D02*
X007919Y014163D01*
X007919Y014046D02*
X007428Y014046D01*
X007466Y013930D02*
X007919Y013930D01*
X007919Y013813D02*
X007466Y013813D01*
X007466Y013697D02*
X007919Y013697D01*
X007919Y013580D02*
X007466Y013580D01*
X007466Y013463D02*
X007919Y013463D01*
X007919Y013347D02*
X007466Y013347D01*
X007466Y013230D02*
X007919Y013230D01*
X007910Y013114D02*
X007466Y013114D01*
X007466Y012997D02*
X007836Y012997D01*
X007821Y012880D02*
X007444Y012880D01*
X007368Y012764D02*
X007854Y012764D01*
X007960Y012647D02*
X007252Y012647D01*
X007135Y012530D02*
X008431Y012530D01*
X008431Y012414D02*
X007019Y012414D01*
X006902Y012297D02*
X008470Y012297D01*
X008431Y012336D02*
X008923Y011844D01*
X009027Y011740D01*
X009549Y011740D01*
X009622Y011667D01*
X009731Y011622D01*
X009848Y011622D01*
X009957Y011667D01*
X010040Y011750D01*
X010085Y011859D01*
X010085Y011976D01*
X010040Y012085D01*
X010010Y012114D01*
X010040Y012144D01*
X010085Y012253D01*
X010085Y012370D01*
X010040Y012479D01*
X009957Y012562D01*
X009848Y012607D01*
X009731Y012607D01*
X009622Y012562D01*
X009549Y012488D01*
X009075Y012488D01*
X008982Y012582D01*
X008982Y017061D01*
X010138Y018217D01*
X010242Y018217D01*
X010350Y018262D01*
X010433Y018345D01*
X010478Y018453D01*
X010478Y018571D01*
X010433Y018679D01*
X010350Y018762D01*
X010242Y018807D01*
X010124Y018807D01*
X010016Y018762D01*
X009933Y018679D01*
X009888Y018571D01*
X009888Y018467D01*
X008785Y017365D01*
X008785Y018340D01*
X010138Y019693D01*
X010242Y019693D01*
X010350Y019738D01*
X010433Y019821D01*
X010478Y019930D01*
X010478Y020047D01*
X010433Y020156D01*
X010350Y020239D01*
X010242Y020284D01*
X010124Y020284D01*
X010016Y020239D01*
X009933Y020156D01*
X009888Y020047D01*
X009888Y019944D01*
X008535Y018591D01*
X008431Y018487D01*
X008431Y012336D01*
X008587Y012181D02*
X006785Y012181D01*
X006669Y012064D02*
X008703Y012064D01*
X008820Y011947D02*
X006552Y011947D01*
X006436Y011831D02*
X007444Y011831D01*
X007553Y011939D02*
X007313Y011700D01*
X007313Y011551D01*
X007701Y011551D01*
X007701Y011509D01*
X007313Y011509D01*
X007313Y011361D01*
X007553Y011121D01*
X007701Y011121D01*
X007701Y011509D01*
X007743Y011509D01*
X007743Y011121D01*
X007835Y011121D01*
X007822Y011109D01*
X007799Y011118D01*
X007645Y011118D01*
X007503Y011059D01*
X007394Y010950D01*
X007335Y010807D01*
X007335Y010653D01*
X007394Y010511D01*
X007503Y010401D01*
X007645Y010342D01*
X007799Y010342D01*
X007942Y010401D01*
X008051Y010511D01*
X008110Y010653D01*
X008110Y010807D01*
X008101Y010830D01*
X008499Y011229D01*
X014531Y011229D01*
X015203Y010557D01*
X015318Y010441D01*
X016655Y010441D01*
X016709Y010388D01*
X016817Y010343D01*
X016935Y010343D01*
X017043Y010388D01*
X017126Y010471D01*
X017171Y010579D01*
X017171Y010697D01*
X017126Y010805D01*
X017043Y010888D01*
X016935Y010933D01*
X016817Y010933D01*
X016709Y010888D01*
X016655Y010835D01*
X016378Y010835D01*
X016596Y011053D01*
X016596Y011201D01*
X016208Y011201D01*
X016208Y011243D01*
X016596Y011243D01*
X016596Y011392D01*
X016356Y011631D01*
X016208Y011631D01*
X016208Y011243D01*
X016166Y011243D01*
X016166Y011201D01*
X015778Y011201D01*
X015778Y011053D01*
X015996Y010835D01*
X015481Y010835D01*
X014809Y011507D01*
X014694Y011622D01*
X008336Y011622D01*
X008131Y011418D01*
X008131Y011509D01*
X007743Y011509D01*
X007743Y011551D01*
X007701Y011551D01*
X007701Y011939D01*
X007553Y011939D01*
X007701Y011831D02*
X007743Y011831D01*
X007743Y011939D02*
X007743Y011551D01*
X008131Y011551D01*
X008131Y011700D01*
X007892Y011939D01*
X007743Y011939D01*
X007743Y011714D02*
X007701Y011714D01*
X007701Y011598D02*
X007743Y011598D01*
X007743Y011481D02*
X007701Y011481D01*
X007701Y011364D02*
X007743Y011364D01*
X007743Y011248D02*
X007701Y011248D01*
X007701Y011131D02*
X007743Y011131D01*
X007543Y011131D02*
X005736Y011131D01*
X005619Y011015D02*
X007458Y011015D01*
X007372Y010898D02*
X005503Y010898D01*
X005386Y010781D02*
X007335Y010781D01*
X007335Y010665D02*
X005269Y010665D01*
X005153Y010548D02*
X007378Y010548D01*
X007473Y010431D02*
X005036Y010431D01*
X004920Y010315D02*
X020833Y010315D01*
X020833Y010431D02*
X017087Y010431D01*
X017158Y010548D02*
X020833Y010548D01*
X020833Y010665D02*
X017171Y010665D01*
X017136Y010781D02*
X020833Y010781D01*
X020833Y010898D02*
X017020Y010898D01*
X016732Y010898D02*
X016441Y010898D01*
X016558Y011015D02*
X020833Y011015D01*
X020833Y011131D02*
X016596Y011131D01*
X016596Y011248D02*
X020833Y011248D01*
X020756Y011364D02*
X016596Y011364D01*
X016507Y011481D02*
X020714Y011481D01*
X020721Y011598D02*
X016390Y011598D01*
X016407Y011694D02*
X016516Y011803D01*
X016575Y011945D01*
X016575Y012099D01*
X016516Y012242D01*
X016407Y012351D01*
X016264Y012410D01*
X016110Y012410D01*
X015967Y012351D01*
X015858Y012242D01*
X015799Y012099D01*
X015799Y011945D01*
X015858Y011803D01*
X015967Y011694D01*
X016110Y011635D01*
X016264Y011635D01*
X016407Y011694D01*
X016427Y011714D02*
X020782Y011714D01*
X021918Y012530D02*
X019625Y012530D01*
X019561Y012414D02*
X022035Y012414D01*
X022151Y012297D02*
X016460Y012297D01*
X016541Y012181D02*
X022268Y012181D01*
X022384Y012064D02*
X016575Y012064D01*
X016575Y011947D02*
X022501Y011947D01*
X022418Y011714D02*
X030313Y011714D01*
X030430Y011598D02*
X022480Y011598D01*
X022486Y011481D02*
X030546Y011481D01*
X030196Y011831D02*
X016527Y011831D01*
X016208Y011598D02*
X016166Y011598D01*
X016166Y011631D02*
X016017Y011631D01*
X015778Y011392D01*
X015778Y011243D01*
X016166Y011243D01*
X016166Y011631D01*
X016166Y011481D02*
X016208Y011481D01*
X016208Y011364D02*
X016166Y011364D01*
X016166Y011248D02*
X016208Y011248D01*
X015867Y011481D02*
X014835Y011481D01*
X014718Y011598D02*
X015984Y011598D01*
X015947Y011714D02*
X010003Y011714D01*
X010073Y011831D02*
X015846Y011831D01*
X015799Y011947D02*
X010085Y011947D01*
X010048Y012064D02*
X015799Y012064D01*
X015833Y012181D02*
X010055Y012181D01*
X010085Y012297D02*
X015913Y012297D01*
X015778Y011364D02*
X014952Y011364D01*
X015068Y011248D02*
X015778Y011248D01*
X015778Y011131D02*
X015185Y011131D01*
X015301Y011015D02*
X015816Y011015D01*
X015933Y010898D02*
X015418Y010898D01*
X015399Y010638D02*
X016876Y010638D01*
X016665Y010431D02*
X007972Y010431D01*
X008067Y010548D02*
X015211Y010548D01*
X015094Y010665D02*
X008110Y010665D01*
X008110Y010781D02*
X014978Y010781D01*
X014861Y010898D02*
X008168Y010898D01*
X008285Y011015D02*
X014745Y011015D01*
X014628Y011131D02*
X008402Y011131D01*
X008418Y011425D02*
X007722Y010730D01*
X007426Y011248D02*
X005853Y011248D01*
X005969Y011364D02*
X007313Y011364D01*
X007313Y011481D02*
X006086Y011481D01*
X006202Y011598D02*
X007313Y011598D01*
X007328Y011714D02*
X006319Y011714D01*
X005839Y012181D02*
X001829Y012181D01*
X001829Y012297D02*
X005955Y012297D01*
X006072Y012414D02*
X001829Y012414D01*
X001829Y012530D02*
X006189Y012530D01*
X006305Y012647D02*
X001829Y012647D01*
X001829Y012764D02*
X006422Y012764D01*
X006539Y012880D02*
X001829Y012880D01*
X001829Y012997D02*
X006655Y012997D01*
X006523Y013114D02*
X006441Y013114D01*
X006441Y013230D02*
X006523Y013230D01*
X006523Y013347D02*
X006441Y013347D01*
X006441Y013463D02*
X005920Y013463D01*
X006023Y013502D02*
X006023Y013782D01*
X006034Y013822D01*
X006055Y013859D01*
X006085Y013888D01*
X006121Y013909D01*
X006161Y013920D01*
X006441Y013920D01*
X006441Y013502D01*
X006023Y013502D01*
X006023Y013580D02*
X005920Y013580D01*
X005920Y013642D02*
X005664Y013899D01*
X005301Y013899D01*
X005044Y013642D01*
X005044Y013280D01*
X005301Y013023D01*
X005664Y013023D01*
X005920Y013280D01*
X005920Y013642D01*
X005866Y013697D02*
X006023Y013697D01*
X006032Y013813D02*
X005749Y013813D01*
X005664Y014023D02*
X005301Y014023D01*
X005044Y014280D01*
X001829Y014280D01*
X001829Y014396D02*
X005044Y014396D01*
X005044Y014280D02*
X005044Y014642D01*
X005301Y014899D01*
X005664Y014899D01*
X005920Y014642D01*
X005920Y014280D01*
X005966Y014280D01*
X005920Y014280D02*
X005664Y014023D01*
X005687Y014046D02*
X006166Y014046D01*
X006050Y014163D02*
X005803Y014163D01*
X005920Y014396D02*
X005966Y014396D01*
X005966Y014513D02*
X005920Y014513D01*
X005920Y014629D02*
X005966Y014629D01*
X006037Y014746D02*
X005816Y014746D01*
X005700Y014863D02*
X006153Y014863D01*
X006228Y015096D02*
X005736Y015096D01*
X005853Y015213D02*
X006111Y015213D01*
X006044Y015329D02*
X005920Y015329D01*
X005920Y015446D02*
X006044Y015446D01*
X006044Y015562D02*
X005920Y015562D01*
X005883Y015679D02*
X006081Y015679D01*
X006198Y015796D02*
X005767Y015796D01*
X005081Y015679D02*
X001829Y015679D01*
X001829Y015562D02*
X005044Y015562D01*
X005044Y015446D02*
X001829Y015446D01*
X001829Y015329D02*
X005044Y015329D01*
X005111Y015213D02*
X001829Y015213D01*
X001829Y015096D02*
X005228Y015096D01*
X005265Y014863D02*
X001829Y014863D01*
X001829Y014979D02*
X006571Y014979D01*
X005148Y014746D02*
X001829Y014746D01*
X001829Y014629D02*
X005044Y014629D01*
X005044Y014513D02*
X001829Y014513D01*
X001829Y014163D02*
X005161Y014163D01*
X005278Y014046D02*
X001829Y014046D01*
X001829Y013930D02*
X006615Y013930D01*
X006523Y013813D02*
X006441Y013813D01*
X006441Y013697D02*
X006523Y013697D01*
X006523Y013580D02*
X006441Y013580D01*
X006023Y013347D02*
X005920Y013347D01*
X005871Y013230D02*
X006023Y013230D01*
X006030Y013114D02*
X005754Y013114D01*
X005210Y013114D02*
X001829Y013114D01*
X001829Y013230D02*
X005094Y013230D01*
X005044Y013347D02*
X001829Y013347D01*
X001829Y013463D02*
X005044Y013463D01*
X005044Y013580D02*
X001829Y013580D01*
X001829Y013697D02*
X005099Y013697D01*
X005215Y013813D02*
X001829Y013813D01*
X001829Y012064D02*
X005722Y012064D01*
X005606Y011947D02*
X001829Y011947D01*
X001829Y011831D02*
X005489Y011831D01*
X005372Y011714D02*
X001829Y011714D01*
X001829Y011598D02*
X005256Y011598D01*
X005139Y011481D02*
X001829Y011481D01*
X001829Y011364D02*
X005023Y011364D01*
X004906Y011248D02*
X001829Y011248D01*
X001829Y011131D02*
X004789Y011131D01*
X004673Y011015D02*
X003554Y011015D01*
X003569Y010898D02*
X004556Y010898D01*
X003569Y010198D02*
X020833Y010198D01*
X020833Y010082D02*
X003539Y010082D01*
X003308Y009965D02*
X020833Y009965D01*
X020833Y009848D02*
X003420Y009848D01*
X003480Y009732D02*
X020833Y009732D01*
X020833Y009615D02*
X003508Y009615D01*
X003481Y009382D02*
X010297Y009382D01*
X010298Y009384D02*
X010192Y009277D01*
X010135Y009138D01*
X010135Y008988D01*
X010192Y008849D01*
X010298Y008743D01*
X010437Y008685D01*
X010588Y008685D01*
X010726Y008743D01*
X010833Y008849D01*
X010890Y008988D01*
X010890Y009138D01*
X010833Y009277D01*
X010726Y009384D01*
X010588Y009441D01*
X010437Y009441D01*
X010298Y009384D01*
X010187Y009265D02*
X003422Y009265D01*
X003312Y009149D02*
X010139Y009149D01*
X010135Y009032D02*
X003133Y009032D01*
X003334Y008916D02*
X010165Y008916D01*
X010243Y008799D02*
X003430Y008799D01*
X003478Y008682D02*
X020833Y008682D01*
X020833Y008566D02*
X007747Y008566D01*
X007704Y008583D02*
X007347Y008583D01*
X007017Y008447D01*
X006764Y008194D01*
X006627Y007864D01*
X006627Y007507D01*
X006764Y007177D01*
X007017Y006924D01*
X007347Y006787D01*
X007704Y006787D01*
X008034Y006924D01*
X008287Y007177D01*
X008424Y007507D01*
X008424Y007864D01*
X008287Y008194D01*
X008034Y008447D01*
X007704Y008583D01*
X008028Y008449D02*
X020833Y008449D01*
X020833Y008332D02*
X008148Y008332D01*
X008265Y008216D02*
X020833Y008216D01*
X020833Y008099D02*
X008326Y008099D01*
X008374Y007983D02*
X020833Y007983D01*
X020833Y007866D02*
X008423Y007866D01*
X008424Y007749D02*
X020833Y007749D01*
X020833Y007633D02*
X008424Y007633D01*
X008424Y007516D02*
X020833Y007516D01*
X020833Y007400D02*
X008379Y007400D01*
X008331Y007283D02*
X020833Y007283D01*
X020833Y007166D02*
X008277Y007166D01*
X008160Y007050D02*
X020833Y007050D01*
X020833Y006933D02*
X008043Y006933D01*
X007775Y006817D02*
X020833Y006817D01*
X020833Y006700D02*
X004082Y006700D01*
X004268Y006593D02*
X004268Y006593D01*
X004277Y006583D02*
X020833Y006583D01*
X020833Y006467D02*
X004394Y006467D01*
X004511Y006350D02*
X020833Y006350D01*
X020833Y006234D02*
X004600Y006234D01*
X004667Y006117D02*
X020833Y006117D01*
X020833Y006000D02*
X004735Y006000D01*
X003851Y006817D02*
X007276Y006817D01*
X007008Y006933D02*
X001829Y006933D01*
X001829Y007050D02*
X006891Y007050D01*
X006774Y007166D02*
X001829Y007166D01*
X001829Y007283D02*
X006720Y007283D01*
X006672Y007400D02*
X001829Y007400D01*
X001829Y007516D02*
X006627Y007516D01*
X006627Y007633D02*
X001829Y007633D01*
X001829Y007749D02*
X006627Y007749D01*
X006628Y007866D02*
X001829Y007866D01*
X001829Y007983D02*
X006677Y007983D01*
X006725Y008099D02*
X003183Y008099D01*
X003354Y008216D02*
X006786Y008216D01*
X006903Y008332D02*
X003438Y008332D01*
X003487Y008449D02*
X007023Y008449D01*
X007304Y008566D02*
X003490Y008566D01*
X002863Y009032D02*
X001829Y009032D01*
X001829Y008916D02*
X002662Y008916D01*
X002566Y008799D02*
X001829Y008799D01*
X001829Y008682D02*
X002518Y008682D01*
X002506Y008566D02*
X001829Y008566D01*
X001829Y008449D02*
X002509Y008449D01*
X002558Y008332D02*
X001829Y008332D01*
X001829Y008216D02*
X002641Y008216D01*
X002813Y008099D02*
X001829Y008099D01*
X001829Y009149D02*
X002684Y009149D01*
X002574Y009265D02*
X001829Y009265D01*
X001829Y009382D02*
X002514Y009382D01*
X002488Y009615D02*
X001829Y009615D01*
X001829Y009499D02*
X002939Y009499D01*
X003057Y009499D02*
X020833Y009499D01*
X020833Y009382D02*
X012628Y009382D01*
X012626Y009384D02*
X012488Y009441D01*
X012337Y009441D01*
X012198Y009384D01*
X012092Y009277D01*
X012035Y009138D01*
X012035Y008988D01*
X012092Y008849D01*
X012198Y008743D01*
X012337Y008685D01*
X012488Y008685D01*
X012626Y008743D01*
X012733Y008849D01*
X012790Y008988D01*
X012790Y009138D01*
X012733Y009277D01*
X012626Y009384D01*
X012738Y009265D02*
X020833Y009265D01*
X020833Y009149D02*
X012786Y009149D01*
X012790Y009032D02*
X020833Y009032D01*
X020833Y008916D02*
X012760Y008916D01*
X012682Y008799D02*
X020833Y008799D01*
X024228Y007050D02*
X024301Y006977D01*
X026084Y006977D01*
X026157Y007050D01*
X026123Y006583D02*
X025689Y006583D01*
X025774Y006467D02*
X026088Y006467D01*
X026053Y006350D02*
X025809Y006350D01*
X025809Y006234D02*
X026053Y006234D01*
X026101Y006117D02*
X025761Y006117D01*
X025658Y006000D02*
X026204Y006000D01*
X027573Y005767D02*
X021777Y005767D01*
X021777Y005067D02*
X021813Y005067D01*
X027080Y004718D02*
X027319Y004718D01*
X027387Y004834D02*
X027197Y004834D01*
X027313Y004951D02*
X029737Y004951D01*
X029621Y004834D02*
X027822Y004834D01*
X027889Y004718D02*
X027903Y004718D01*
X028093Y004718D02*
X029504Y004718D01*
X029387Y004601D02*
X028250Y004601D01*
X028565Y004484D02*
X029271Y004484D01*
X029154Y004368D02*
X028659Y004368D01*
X028687Y004251D02*
X029038Y004251D01*
X028921Y004135D02*
X028667Y004135D01*
X029072Y003785D02*
X033265Y003785D01*
X033558Y003785D02*
X043438Y003785D01*
X043438Y003901D02*
X033672Y003901D01*
X033707Y004018D02*
X043438Y004018D01*
X043438Y004135D02*
X033693Y004135D01*
X033643Y004251D02*
X043438Y004251D01*
X043438Y004368D02*
X033702Y004368D01*
X033707Y004484D02*
X043438Y004484D01*
X043438Y004601D02*
X033663Y004601D01*
X033823Y004834D02*
X033905Y004834D01*
X033905Y004951D02*
X033823Y004951D01*
X033823Y005067D02*
X033905Y005067D01*
X034323Y005301D02*
X034426Y005301D01*
X034445Y005417D02*
X034323Y005417D01*
X034267Y006000D02*
X034461Y006000D01*
X034426Y006117D02*
X034302Y006117D01*
X034302Y006234D02*
X034426Y006234D01*
X034426Y006350D02*
X034302Y006350D01*
X034233Y006467D02*
X034495Y006467D01*
X034611Y006583D02*
X034117Y006583D01*
X035117Y006583D02*
X035611Y006583D01*
X035495Y006467D02*
X035233Y006467D01*
X035302Y006350D02*
X035426Y006350D01*
X035426Y006234D02*
X035302Y006234D01*
X035302Y006117D02*
X035426Y006117D01*
X035385Y006000D02*
X035267Y006000D01*
X036302Y006117D02*
X036426Y006117D01*
X036461Y006000D02*
X036359Y006000D01*
X036302Y005067D02*
X036405Y005067D01*
X036481Y004951D02*
X036217Y004951D01*
X036101Y004834D02*
X036598Y004834D01*
X036823Y004834D02*
X036905Y004834D01*
X036905Y004951D02*
X036823Y004951D01*
X036823Y005067D02*
X036905Y005067D01*
X033405Y005301D02*
X033077Y005301D01*
X033193Y005417D02*
X033405Y005417D01*
X033316Y004718D02*
X033223Y004718D01*
X033171Y004260D02*
X033191Y004240D01*
X033171Y004221D01*
X031319Y004221D01*
X031280Y004260D01*
X033171Y004260D01*
X033180Y004251D02*
X031289Y004251D01*
X031021Y004018D02*
X029305Y004018D01*
X029189Y003901D02*
X031138Y003901D01*
X030904Y004135D02*
X029422Y004135D01*
X029539Y004251D02*
X030788Y004251D01*
X030671Y004368D02*
X029655Y004368D01*
X029772Y004484D02*
X030555Y004484D01*
X030468Y004601D02*
X029889Y004601D01*
X030005Y004718D02*
X030383Y004718D01*
X030360Y004834D02*
X030122Y004834D01*
X030238Y004951D02*
X030385Y004951D01*
X030355Y005067D02*
X030474Y005067D01*
X030204Y005417D02*
X027780Y005417D01*
X027663Y005301D02*
X030087Y005301D01*
X029970Y005184D02*
X027547Y005184D01*
X027430Y005067D02*
X029854Y005067D01*
X030320Y005534D02*
X027896Y005534D01*
X028013Y005650D02*
X030437Y005650D01*
X030554Y005767D02*
X028130Y005767D01*
X028246Y005884D02*
X030670Y005884D01*
X030787Y006000D02*
X028363Y006000D01*
X028480Y006117D02*
X030903Y006117D01*
X030951Y006234D02*
X028596Y006234D01*
X028713Y006350D02*
X030985Y006350D01*
X031097Y006467D02*
X028829Y006467D01*
X025065Y009983D02*
X025065Y010073D01*
X024696Y010441D01*
X024651Y010441D01*
X024651Y010397D01*
X025065Y009983D01*
X025056Y010082D02*
X024966Y010082D01*
X024939Y010198D02*
X024850Y010198D01*
X024823Y010315D02*
X024733Y010315D01*
X024706Y010431D02*
X024651Y010431D01*
X025616Y010082D02*
X025744Y010082D01*
X024833Y011947D02*
X030080Y011947D01*
X029963Y012064D02*
X024950Y012064D01*
X026051Y012181D02*
X029847Y012181D01*
X029730Y012297D02*
X026167Y012297D01*
X026284Y012414D02*
X029613Y012414D01*
X029497Y012530D02*
X026401Y012530D01*
X026517Y012647D02*
X029380Y012647D01*
X029263Y012764D02*
X026801Y012764D01*
X026890Y012880D02*
X029147Y012880D01*
X029030Y012997D02*
X026915Y012997D01*
X026893Y013114D02*
X028914Y013114D01*
X028797Y013230D02*
X026872Y013230D01*
X026915Y013347D02*
X028680Y013347D01*
X028564Y013463D02*
X026911Y013463D01*
X026852Y013580D02*
X028447Y013580D01*
X028065Y013697D02*
X025962Y013697D01*
X026024Y013813D02*
X028004Y013813D01*
X027834Y013930D02*
X026029Y013930D01*
X025987Y014046D02*
X027734Y014046D01*
X027703Y014163D02*
X025931Y014163D01*
X025931Y014280D02*
X027719Y014280D01*
X027795Y014396D02*
X025931Y014396D01*
X025931Y014513D02*
X027998Y014513D01*
X028037Y014629D02*
X025931Y014629D01*
X025931Y014746D02*
X028172Y014746D01*
X028414Y014746D02*
X028561Y014746D01*
X028550Y014629D02*
X028677Y014629D01*
X028606Y014513D02*
X028785Y014513D01*
X028785Y014521D02*
X028785Y014418D01*
X028830Y014309D01*
X028913Y014226D01*
X029022Y014181D01*
X029139Y014181D01*
X029248Y014226D01*
X029331Y014309D01*
X029376Y014418D01*
X029376Y014535D01*
X029331Y014644D01*
X029248Y014727D01*
X029139Y014772D01*
X029036Y014772D01*
X028367Y015441D01*
X026860Y015441D01*
X026787Y015514D01*
X026679Y015559D01*
X026561Y015559D01*
X026453Y015514D01*
X026370Y015431D01*
X026325Y015323D01*
X026325Y015205D01*
X026370Y015097D01*
X026453Y015014D01*
X026561Y014969D01*
X026679Y014969D01*
X026787Y015014D01*
X026860Y015087D01*
X028220Y015087D01*
X028785Y014521D01*
X028794Y014396D02*
X028723Y014396D01*
X028839Y014280D02*
X028860Y014280D01*
X028956Y014163D02*
X030183Y014163D01*
X030183Y014046D02*
X029072Y014046D01*
X029189Y013930D02*
X030183Y013930D01*
X030183Y013813D02*
X029306Y013813D01*
X029422Y013697D02*
X030183Y013697D01*
X030183Y013580D02*
X029539Y013580D01*
X029655Y013463D02*
X030183Y013463D01*
X030183Y013347D02*
X029772Y013347D01*
X029889Y013230D02*
X030183Y013230D01*
X030183Y013114D02*
X030005Y013114D01*
X030122Y012997D02*
X030183Y012997D01*
X030537Y012997D02*
X035596Y012997D01*
X035596Y013114D02*
X030537Y013114D01*
X030537Y013230D02*
X035596Y013230D01*
X035596Y013347D02*
X030537Y013347D01*
X030537Y013463D02*
X035596Y013463D01*
X035596Y013580D02*
X030537Y013580D01*
X030537Y013697D02*
X035596Y013697D01*
X035596Y013813D02*
X030537Y013813D01*
X030537Y013930D02*
X035596Y013930D01*
X035596Y014046D02*
X030537Y014046D01*
X030537Y014163D02*
X035596Y014163D01*
X035596Y014280D02*
X030537Y014280D01*
X030537Y014396D02*
X035596Y014396D01*
X035596Y014513D02*
X030537Y014513D01*
X030537Y014629D02*
X033672Y014629D01*
X033710Y014591D02*
X033874Y014524D01*
X034051Y014524D01*
X034215Y014591D01*
X034340Y014717D01*
X034408Y014880D01*
X034408Y015057D01*
X034340Y015221D01*
X034215Y015346D01*
X034051Y015414D01*
X033874Y015414D01*
X033710Y015346D01*
X033585Y015221D01*
X033517Y015057D01*
X033517Y014880D01*
X033585Y014717D01*
X033710Y014591D01*
X033573Y014746D02*
X030537Y014746D01*
X030537Y014863D02*
X033524Y014863D01*
X033517Y014979D02*
X030537Y014979D01*
X030537Y015096D02*
X033533Y015096D01*
X033581Y015213D02*
X030537Y015213D01*
X030447Y015329D02*
X033693Y015329D01*
X034232Y015329D02*
X035596Y015329D01*
X035596Y015213D02*
X034343Y015213D01*
X034392Y015096D02*
X035596Y015096D01*
X035596Y014979D02*
X034408Y014979D01*
X034401Y014863D02*
X035596Y014863D01*
X035596Y014746D02*
X034352Y014746D01*
X034253Y014629D02*
X035596Y014629D01*
X035596Y015446D02*
X030331Y015446D01*
X030214Y015562D02*
X035596Y015562D01*
X035596Y015679D02*
X030097Y015679D01*
X029981Y015796D02*
X035596Y015796D01*
X035596Y015912D02*
X029864Y015912D01*
X029770Y016029D02*
X035596Y016029D01*
X035596Y016145D02*
X029755Y016145D01*
X029681Y016262D02*
X035596Y016262D01*
X039021Y019177D02*
X028225Y019177D01*
X028341Y019294D02*
X038942Y019294D01*
X038923Y019410D02*
X028458Y019410D01*
X028575Y019527D02*
X038839Y019527D01*
X038722Y019644D02*
X028691Y019644D01*
X028808Y019760D02*
X038605Y019760D01*
X038489Y019877D02*
X028924Y019877D01*
X029041Y019994D02*
X038372Y019994D01*
X038256Y020110D02*
X029158Y020110D01*
X029274Y020227D02*
X037583Y020227D01*
X037479Y020343D02*
X029391Y020343D01*
X029507Y020460D02*
X037447Y020460D01*
X037395Y020577D02*
X029624Y020577D01*
X029741Y020693D02*
X037279Y020693D01*
X037162Y020810D02*
X029857Y020810D01*
X029974Y020926D02*
X037046Y020926D01*
X036929Y021043D02*
X030090Y021043D01*
X030207Y021160D02*
X036812Y021160D01*
X036696Y021276D02*
X030324Y021276D01*
X030440Y021393D02*
X036579Y021393D01*
X036463Y021509D02*
X030557Y021509D01*
X028820Y021160D02*
X024768Y021160D01*
X024733Y021195D02*
X024839Y021088D01*
X024897Y020949D01*
X024897Y020799D01*
X024839Y020660D01*
X024733Y020554D01*
X024594Y020497D01*
X024444Y020497D01*
X024305Y020554D01*
X024199Y020660D01*
X024141Y020799D01*
X024141Y020949D01*
X024199Y021088D01*
X024305Y021195D01*
X024444Y021252D01*
X024594Y021252D01*
X024733Y021195D01*
X024858Y021043D02*
X028704Y021043D01*
X028587Y020926D02*
X024897Y020926D01*
X024897Y020810D02*
X028470Y020810D01*
X028354Y020693D02*
X024853Y020693D01*
X024755Y020577D02*
X028237Y020577D01*
X028120Y020460D02*
X021576Y020460D01*
X021460Y020577D02*
X022382Y020577D01*
X022285Y020693D02*
X021343Y020693D01*
X021226Y020810D02*
X022241Y020810D01*
X022241Y020926D02*
X021110Y020926D01*
X021693Y020343D02*
X028004Y020343D01*
X027887Y020227D02*
X021809Y020227D01*
X021926Y020110D02*
X027771Y020110D01*
X027654Y019994D02*
X022043Y019994D01*
X022159Y019877D02*
X027537Y019877D01*
X027428Y019177D02*
X026594Y019177D01*
X026503Y019061D02*
X027312Y019061D01*
X027195Y018944D02*
X020399Y018944D01*
X020399Y018827D02*
X026813Y018827D01*
X027561Y018478D02*
X046490Y018478D01*
X046490Y018594D02*
X027642Y018594D01*
X027758Y018711D02*
X046490Y018711D01*
X046490Y018827D02*
X027875Y018827D01*
X027991Y018944D02*
X044697Y018944D01*
X044748Y018893D02*
X044890Y018835D01*
X045043Y018835D01*
X045185Y018893D01*
X045294Y019002D01*
X045353Y019144D01*
X045353Y019298D01*
X045294Y019440D01*
X045185Y019548D01*
X045043Y019607D01*
X044890Y019607D01*
X044748Y019548D01*
X044639Y019440D01*
X044580Y019298D01*
X044580Y019144D01*
X044639Y019002D01*
X044748Y018893D01*
X044615Y019061D02*
X028108Y019061D01*
X027604Y018361D02*
X046490Y018361D01*
X046490Y018244D02*
X027599Y018244D01*
X027539Y018128D02*
X046490Y018128D01*
X046490Y018944D02*
X045236Y018944D01*
X045318Y019061D02*
X046490Y019061D01*
X046490Y019177D02*
X045353Y019177D01*
X045353Y019294D02*
X046490Y019294D01*
X046490Y019410D02*
X045306Y019410D01*
X045206Y019527D02*
X046490Y019527D01*
X046490Y019644D02*
X043529Y019644D01*
X043529Y019760D02*
X046490Y019760D01*
X046490Y019877D02*
X043529Y019877D01*
X043529Y019994D02*
X046490Y019994D01*
X046490Y020110D02*
X043529Y020110D01*
X043529Y020227D02*
X046490Y020227D01*
X046490Y020343D02*
X043529Y020343D01*
X043529Y020460D02*
X046490Y020460D01*
X046490Y020577D02*
X045067Y020577D01*
X045043Y020567D02*
X045185Y020626D01*
X045294Y020734D01*
X045353Y020876D01*
X045353Y021030D01*
X045294Y021172D01*
X045185Y021280D01*
X045043Y021339D01*
X044890Y021339D01*
X044748Y021280D01*
X044639Y021172D01*
X044580Y021030D01*
X044580Y020876D01*
X044639Y020734D01*
X044748Y020626D01*
X044890Y020567D01*
X045043Y020567D01*
X044866Y020577D02*
X043529Y020577D01*
X043529Y020693D02*
X044680Y020693D01*
X044608Y020810D02*
X043529Y020810D01*
X043529Y020926D02*
X044580Y020926D01*
X044586Y021043D02*
X043529Y021043D01*
X043529Y021160D02*
X044634Y021160D01*
X044743Y021276D02*
X043529Y021276D01*
X043529Y021393D02*
X046490Y021393D01*
X046490Y021509D02*
X043529Y021509D01*
X043529Y021626D02*
X046490Y021626D01*
X046490Y021743D02*
X043529Y021743D01*
X043529Y021859D02*
X046490Y021859D01*
X046490Y021976D02*
X043529Y021976D01*
X043529Y022093D02*
X046490Y022093D01*
X046490Y022209D02*
X043529Y022209D01*
X043529Y022326D02*
X046490Y022326D01*
X046490Y022442D02*
X043529Y022442D01*
X043529Y022559D02*
X046490Y022559D01*
X046490Y022676D02*
X043529Y022676D01*
X043529Y022792D02*
X046490Y022792D01*
X046490Y022909D02*
X043529Y022909D01*
X043529Y023025D02*
X046490Y023025D01*
X046490Y023142D02*
X043529Y023142D01*
X043529Y023259D02*
X046490Y023259D01*
X046490Y023375D02*
X043529Y023375D01*
X043529Y023492D02*
X046490Y023492D01*
X046490Y023608D02*
X043529Y023608D01*
X043529Y023725D02*
X046490Y023725D01*
X046490Y023842D02*
X043529Y023842D01*
X043529Y023958D02*
X046490Y023958D01*
X044581Y024075D02*
X043529Y024075D01*
X043529Y024192D02*
X044289Y024192D01*
X044087Y024308D02*
X043417Y024308D01*
X043438Y025591D02*
X025545Y025591D01*
X025597Y025707D02*
X043438Y025707D01*
X043438Y025824D02*
X025597Y025824D01*
X025597Y025941D02*
X043438Y025941D01*
X043438Y026057D02*
X025597Y026057D01*
X025597Y026174D02*
X043438Y026174D01*
X043438Y026291D02*
X025597Y026291D01*
X025547Y026407D02*
X043438Y026407D01*
X040471Y024075D02*
X036341Y024075D01*
X035085Y023842D02*
X040128Y023842D01*
X040024Y023725D02*
X035067Y023725D01*
X035032Y023608D02*
X039975Y023608D01*
X039895Y023259D02*
X035032Y023259D01*
X034986Y023142D02*
X039895Y023142D01*
X039909Y023025D02*
X034986Y023025D01*
X034986Y022909D02*
X039957Y022909D01*
X040005Y022792D02*
X036242Y022792D01*
X036236Y022798D02*
X036128Y022843D01*
X036010Y022843D01*
X035902Y022798D01*
X035818Y022715D01*
X035774Y022606D01*
X035774Y022489D01*
X035818Y022380D01*
X035848Y022351D01*
X035818Y022321D01*
X035774Y022213D01*
X035774Y022095D01*
X035818Y021987D01*
X035775Y022093D02*
X035170Y022093D01*
X034986Y022209D02*
X035774Y022209D01*
X035823Y022326D02*
X034986Y022326D01*
X034986Y022442D02*
X035793Y022442D01*
X035774Y022559D02*
X034986Y022559D01*
X034986Y022676D02*
X035802Y022676D01*
X035896Y022792D02*
X034986Y022792D01*
X035085Y023375D02*
X035085Y023492D01*
X035055Y023958D02*
X040245Y023958D01*
X040084Y022676D02*
X036335Y022676D01*
X036319Y022715D02*
X036236Y022798D01*
X036319Y022715D02*
X036364Y022606D01*
X036364Y022503D01*
X036437Y022429D01*
X036541Y022326D01*
X036559Y022209D02*
X043175Y022209D01*
X043175Y022093D02*
X036676Y022093D01*
X036793Y021976D02*
X043175Y021976D01*
X043175Y021859D02*
X036909Y021859D01*
X037026Y021743D02*
X043175Y021743D01*
X043175Y021626D02*
X037142Y021626D01*
X037259Y021509D02*
X043175Y021509D01*
X043175Y021393D02*
X037376Y021393D01*
X037492Y021276D02*
X043175Y021276D01*
X043175Y021160D02*
X037609Y021160D01*
X037725Y021043D02*
X043175Y021043D01*
X043175Y020926D02*
X037940Y020926D01*
X038057Y020810D02*
X043175Y020810D01*
X043175Y020693D02*
X038174Y020693D01*
X038290Y020577D02*
X043175Y020577D01*
X043175Y020460D02*
X038407Y020460D01*
X038523Y020343D02*
X043175Y020343D01*
X043175Y020227D02*
X038640Y020227D01*
X038757Y020110D02*
X043175Y020110D01*
X043175Y019994D02*
X038873Y019994D01*
X038990Y019877D02*
X043175Y019877D01*
X043175Y019760D02*
X039107Y019760D01*
X039390Y019644D02*
X043175Y019644D01*
X043086Y019527D02*
X039484Y019527D01*
X039514Y019410D02*
X043057Y019410D01*
X043076Y019294D02*
X039495Y019294D01*
X039415Y019177D02*
X043155Y019177D01*
X043549Y019177D02*
X044580Y019177D01*
X044580Y019294D02*
X043629Y019294D01*
X043648Y019410D02*
X044627Y019410D01*
X044727Y019527D02*
X043618Y019527D01*
X045253Y020693D02*
X046490Y020693D01*
X046490Y020810D02*
X045325Y020810D01*
X045353Y020926D02*
X046490Y020926D01*
X046490Y021043D02*
X045347Y021043D01*
X045299Y021160D02*
X046490Y021160D01*
X046490Y021276D02*
X045189Y021276D01*
X040364Y022442D02*
X036425Y022442D01*
X036364Y022559D02*
X040201Y022559D01*
X038022Y020343D02*
X038005Y020343D01*
X037901Y020227D02*
X038139Y020227D01*
X036346Y021626D02*
X035171Y021626D01*
X035258Y021743D02*
X036229Y021743D01*
X036008Y021859D02*
X035281Y021859D01*
X032800Y023958D02*
X032615Y023958D01*
X032686Y024075D02*
X032916Y024075D01*
X033033Y024192D02*
X032722Y024192D01*
X032710Y024308D02*
X034331Y024308D01*
X034447Y024425D02*
X032641Y024425D01*
X034494Y024541D02*
X023350Y024541D01*
X023466Y024658D02*
X023883Y024658D01*
X023766Y024775D02*
X023583Y024775D01*
X023618Y024891D02*
X023722Y024891D01*
X023722Y025008D02*
X023200Y025008D01*
X023618Y025124D02*
X023722Y025124D01*
X023781Y025241D02*
X023568Y025241D01*
X022852Y024658D02*
X014986Y024658D01*
X014986Y024775D02*
X022736Y024775D01*
X022700Y024891D02*
X014986Y024891D01*
X014632Y024763D02*
X014632Y023861D01*
X014525Y023967D01*
X014525Y024661D01*
X014530Y024661D01*
X014632Y024763D01*
X014632Y024658D02*
X014525Y024658D01*
X014525Y024541D02*
X014632Y024541D01*
X014632Y024425D02*
X014525Y024425D01*
X014525Y024308D02*
X014632Y024308D01*
X014632Y024192D02*
X014525Y024192D01*
X014525Y024075D02*
X014632Y024075D01*
X014632Y023958D02*
X014535Y023958D01*
X014267Y023725D02*
X014002Y023725D01*
X014002Y023608D02*
X014383Y023608D01*
X014500Y023492D02*
X014017Y023492D01*
X014002Y023507D02*
X014002Y024826D01*
X014167Y024661D01*
X014171Y024661D01*
X014171Y023821D01*
X014677Y023315D01*
X014193Y023315D01*
X014002Y023507D01*
X014133Y023375D02*
X014617Y023375D01*
X014171Y023842D02*
X014002Y023842D01*
X014002Y023958D02*
X014171Y023958D01*
X014171Y024075D02*
X014002Y024075D01*
X014002Y024192D02*
X014171Y024192D01*
X014171Y024308D02*
X014002Y024308D01*
X014002Y024425D02*
X014171Y024425D01*
X014171Y024541D02*
X014002Y024541D01*
X014002Y024658D02*
X014171Y024658D01*
X014053Y024775D02*
X014002Y024775D01*
X013648Y024775D02*
X013643Y024775D01*
X013648Y024779D02*
X013648Y023467D01*
X013525Y023589D01*
X013525Y024661D01*
X013530Y024661D01*
X013648Y024779D01*
X013648Y024658D02*
X013525Y024658D01*
X013525Y024541D02*
X013648Y024541D01*
X013648Y024425D02*
X013525Y024425D01*
X013525Y024308D02*
X013648Y024308D01*
X013648Y024192D02*
X013525Y024192D01*
X013525Y024075D02*
X013648Y024075D01*
X013648Y023958D02*
X013525Y023958D01*
X013525Y023842D02*
X013648Y023842D01*
X013648Y023725D02*
X013525Y023725D01*
X013525Y023608D02*
X013648Y023608D01*
X013648Y023492D02*
X013623Y023492D01*
X013355Y023259D02*
X013018Y023259D01*
X013018Y023375D02*
X013239Y023375D01*
X013171Y023443D02*
X013692Y022922D01*
X013209Y022922D01*
X013018Y023113D01*
X013018Y024810D01*
X013167Y024661D01*
X013171Y024661D01*
X013171Y023443D01*
X013171Y023492D02*
X013018Y023492D01*
X013018Y023608D02*
X013171Y023608D01*
X013171Y023725D02*
X013018Y023725D01*
X013018Y023842D02*
X013171Y023842D01*
X013171Y023958D02*
X013018Y023958D01*
X013018Y024075D02*
X013171Y024075D01*
X013171Y024192D02*
X013018Y024192D01*
X013018Y024308D02*
X013171Y024308D01*
X013171Y024425D02*
X013018Y024425D01*
X013018Y024541D02*
X013171Y024541D01*
X013171Y024658D02*
X013018Y024658D01*
X013018Y024775D02*
X013053Y024775D01*
X012663Y024775D02*
X012643Y024775D01*
X012663Y024795D02*
X012663Y023172D01*
X012525Y023310D01*
X012525Y024661D01*
X012530Y024661D01*
X012663Y024795D01*
X012663Y024658D02*
X012525Y024658D01*
X012525Y024541D02*
X012663Y024541D01*
X012663Y024425D02*
X012525Y024425D01*
X012525Y024308D02*
X012663Y024308D01*
X012663Y024192D02*
X012525Y024192D01*
X012525Y024075D02*
X012663Y024075D01*
X012663Y023958D02*
X012525Y023958D01*
X012525Y023842D02*
X012663Y023842D01*
X012663Y023725D02*
X012525Y023725D01*
X012525Y023608D02*
X012663Y023608D01*
X012663Y023492D02*
X012525Y023492D01*
X012525Y023375D02*
X012663Y023375D01*
X012663Y023259D02*
X012577Y023259D01*
X012309Y023025D02*
X012033Y023025D01*
X012033Y022909D02*
X012425Y022909D01*
X012542Y022792D02*
X012033Y022792D01*
X012033Y022719D02*
X012033Y024795D01*
X012167Y024661D01*
X012171Y024661D01*
X012171Y023163D01*
X012806Y022528D01*
X012225Y022528D01*
X012033Y022719D01*
X012077Y022676D02*
X012659Y022676D01*
X012775Y022559D02*
X012194Y022559D01*
X011679Y022778D02*
X011525Y022932D01*
X011525Y024661D01*
X011530Y024661D01*
X011679Y024810D01*
X011679Y022778D01*
X011679Y022792D02*
X011665Y022792D01*
X011679Y022909D02*
X011549Y022909D01*
X011525Y023025D02*
X011679Y023025D01*
X011679Y023142D02*
X011525Y023142D01*
X011525Y023259D02*
X011679Y023259D01*
X011679Y023375D02*
X011525Y023375D01*
X011525Y023492D02*
X011679Y023492D01*
X011679Y023608D02*
X011525Y023608D01*
X011525Y023725D02*
X011679Y023725D01*
X011679Y023842D02*
X011525Y023842D01*
X011525Y023958D02*
X011679Y023958D01*
X011679Y024075D02*
X011525Y024075D01*
X011525Y024192D02*
X011679Y024192D01*
X011679Y024308D02*
X011525Y024308D01*
X011525Y024425D02*
X011679Y024425D01*
X011679Y024541D02*
X011525Y024541D01*
X011525Y024658D02*
X011679Y024658D01*
X011679Y024775D02*
X011643Y024775D01*
X012033Y024775D02*
X012053Y024775D01*
X012033Y024658D02*
X012171Y024658D01*
X012171Y024541D02*
X012033Y024541D01*
X012033Y024425D02*
X012171Y024425D01*
X012171Y024308D02*
X012033Y024308D01*
X012033Y024192D02*
X012171Y024192D01*
X012171Y024075D02*
X012033Y024075D01*
X012033Y023958D02*
X012171Y023958D01*
X012171Y023842D02*
X012033Y023842D01*
X012033Y023725D02*
X012171Y023725D01*
X012171Y023608D02*
X012033Y023608D01*
X012033Y023492D02*
X012171Y023492D01*
X012171Y023375D02*
X012033Y023375D01*
X012033Y023259D02*
X012171Y023259D01*
X012192Y023142D02*
X012033Y023142D01*
X013018Y023142D02*
X013472Y023142D01*
X013588Y023025D02*
X013105Y023025D01*
X011171Y024658D02*
X010557Y024658D01*
X010673Y024775D02*
X011053Y024775D01*
X010937Y024891D02*
X010790Y024891D01*
X010807Y025008D02*
X010911Y025008D01*
X010911Y025124D02*
X010389Y025124D01*
X010389Y025008D02*
X010307Y025008D01*
X010307Y024891D02*
X010389Y024891D01*
X010389Y024775D02*
X010307Y024775D01*
X010307Y024658D02*
X010389Y024658D01*
X010807Y025241D02*
X010911Y025241D01*
X010988Y025358D02*
X010739Y025358D01*
X010075Y025474D02*
X004880Y025474D01*
X004872Y025358D02*
X009958Y025358D01*
X009889Y025241D02*
X004840Y025241D01*
X004364Y024425D02*
X007097Y024425D01*
X006933Y024308D02*
X004232Y024308D01*
X004030Y024192D02*
X006817Y024192D01*
X006738Y024075D02*
X003738Y024075D01*
X001829Y023958D02*
X006689Y023958D01*
X006641Y023842D02*
X001829Y023842D01*
X001829Y023725D02*
X006627Y023725D01*
X006627Y023608D02*
X001829Y023608D01*
X001829Y023492D02*
X006627Y023492D01*
X006659Y023375D02*
X001829Y023375D01*
X001829Y023259D02*
X006707Y023259D01*
X006756Y023142D02*
X001829Y023142D01*
X001829Y023025D02*
X006860Y023025D01*
X006977Y022909D02*
X001829Y022909D01*
X003915Y020693D02*
X004802Y020693D01*
X005126Y020460D02*
X008408Y020460D01*
X008524Y020577D02*
X005242Y020577D01*
X005359Y020693D02*
X008641Y020693D01*
X008707Y020810D02*
X005476Y020810D01*
X005057Y020343D02*
X008291Y020343D01*
X008174Y020227D02*
X005057Y020227D01*
X005040Y020110D02*
X008058Y020110D01*
X007941Y019994D02*
X004923Y019994D01*
X006287Y018944D02*
X007919Y018944D01*
X007919Y018827D02*
X006404Y018827D01*
X006520Y018711D02*
X007919Y018711D01*
X008313Y018711D02*
X008655Y018711D01*
X008771Y018827D02*
X008313Y018827D01*
X008313Y018944D02*
X008888Y018944D01*
X009005Y019061D02*
X008313Y019061D01*
X008313Y019177D02*
X009121Y019177D01*
X009238Y019294D02*
X008313Y019294D01*
X008313Y019410D02*
X009354Y019410D01*
X009471Y019527D02*
X008313Y019527D01*
X008313Y019644D02*
X009588Y019644D01*
X009704Y019760D02*
X008313Y019760D01*
X008381Y019877D02*
X009821Y019877D01*
X009888Y019994D02*
X008498Y019994D01*
X008615Y020110D02*
X009914Y020110D01*
X010004Y020227D02*
X008731Y020227D01*
X008848Y020343D02*
X014170Y020343D01*
X014170Y020356D02*
X014170Y020274D01*
X014251Y020274D01*
X014251Y019856D01*
X014401Y019856D01*
X014670Y020125D01*
X014670Y020274D01*
X014251Y020274D01*
X014251Y020356D01*
X014170Y020356D01*
X014170Y020774D01*
X014020Y020774D01*
X013751Y020505D01*
X013751Y020356D01*
X014170Y020356D01*
X014251Y020356D02*
X014251Y020774D01*
X014401Y020774D01*
X014670Y020505D01*
X014670Y020356D01*
X014251Y020356D01*
X014251Y020343D02*
X014773Y020343D01*
X014773Y020227D02*
X014670Y020227D01*
X014655Y020110D02*
X014796Y020110D01*
X014913Y019994D02*
X014538Y019994D01*
X014421Y019877D02*
X015398Y019877D01*
X015392Y019753D02*
X015029Y019753D01*
X014773Y019497D01*
X014773Y019134D01*
X015029Y018877D01*
X015392Y018877D01*
X015648Y019134D01*
X015648Y019497D01*
X015392Y019753D01*
X015515Y019760D02*
X010372Y019760D01*
X010456Y019877D02*
X014000Y019877D01*
X014020Y019856D02*
X013751Y020125D01*
X013751Y020274D01*
X014170Y020274D01*
X014170Y019856D01*
X014020Y019856D01*
X014029Y019753D02*
X013773Y019497D01*
X013773Y019134D01*
X014029Y018877D01*
X014392Y018877D01*
X014648Y019134D01*
X014648Y019497D01*
X014392Y019753D01*
X014029Y019753D01*
X013920Y019644D02*
X010089Y019644D01*
X009972Y019527D02*
X013803Y019527D01*
X013773Y019410D02*
X009856Y019410D01*
X009739Y019294D02*
X013773Y019294D01*
X013773Y019177D02*
X009622Y019177D01*
X009506Y019061D02*
X013846Y019061D01*
X013963Y018944D02*
X009389Y018944D01*
X009272Y018827D02*
X015714Y018827D01*
X015714Y018711D02*
X015434Y018711D01*
X015392Y018753D02*
X015029Y018753D01*
X014773Y018497D01*
X014773Y018134D01*
X015029Y017877D01*
X015392Y017877D01*
X015648Y018134D01*
X015648Y018497D01*
X015392Y018753D01*
X015458Y018944D02*
X015714Y018944D01*
X015714Y019061D02*
X015575Y019061D01*
X015648Y019177D02*
X015714Y019177D01*
X015714Y019294D02*
X015648Y019294D01*
X015648Y019410D02*
X015714Y019410D01*
X015714Y019527D02*
X015618Y019527D01*
X015632Y019644D02*
X015501Y019644D01*
X015783Y019994D02*
X019258Y019994D01*
X019258Y020110D02*
X015666Y020110D01*
X015648Y020227D02*
X019241Y020227D01*
X019125Y020343D02*
X015648Y020343D01*
X015648Y020460D02*
X019008Y020460D01*
X018892Y020577D02*
X015568Y020577D01*
X015452Y020693D02*
X018775Y020693D01*
X018658Y020810D02*
X009733Y020810D01*
X009852Y020926D02*
X018542Y020926D01*
X018425Y021043D02*
X009888Y021043D01*
X009875Y021160D02*
X018308Y021160D01*
X018192Y021276D02*
X009805Y021276D01*
X009452Y020810D02*
X009297Y020810D01*
X009287Y020693D02*
X013939Y020693D01*
X013823Y020577D02*
X009220Y020577D01*
X008964Y020460D02*
X013751Y020460D01*
X013751Y020227D02*
X010362Y020227D01*
X010452Y020110D02*
X013766Y020110D01*
X013883Y019994D02*
X010478Y019994D01*
X009002Y020776D02*
X008116Y019890D01*
X008116Y015067D01*
X008116Y012902D01*
X008322Y013114D02*
X008431Y013114D01*
X008431Y013230D02*
X008313Y013230D01*
X008313Y013347D02*
X008431Y013347D01*
X008431Y013463D02*
X008313Y013463D01*
X008313Y013580D02*
X008431Y013580D01*
X008431Y013697D02*
X008313Y013697D01*
X008313Y013813D02*
X008431Y013813D01*
X008431Y013930D02*
X008313Y013930D01*
X008313Y014046D02*
X008431Y014046D01*
X008431Y014163D02*
X008313Y014163D01*
X008313Y014280D02*
X008431Y014280D01*
X008431Y014396D02*
X008313Y014396D01*
X008313Y014513D02*
X008431Y014513D01*
X008431Y014629D02*
X008313Y014629D01*
X008313Y014746D02*
X008431Y014746D01*
X008431Y014863D02*
X008329Y014863D01*
X008399Y014979D02*
X008431Y014979D01*
X008431Y015096D02*
X008411Y015096D01*
X008431Y015213D02*
X008375Y015213D01*
X008431Y015329D02*
X008313Y015329D01*
X008313Y015446D02*
X008431Y015446D01*
X008431Y015562D02*
X008313Y015562D01*
X008313Y015679D02*
X008431Y015679D01*
X008431Y015796D02*
X008313Y015796D01*
X008313Y015912D02*
X008431Y015912D01*
X008431Y016029D02*
X008313Y016029D01*
X008313Y016145D02*
X008431Y016145D01*
X008431Y016262D02*
X008313Y016262D01*
X008313Y016379D02*
X008431Y016379D01*
X008431Y016495D02*
X008313Y016495D01*
X008313Y016612D02*
X008431Y016612D01*
X008431Y016728D02*
X008313Y016728D01*
X008313Y016845D02*
X008431Y016845D01*
X008431Y016962D02*
X008313Y016962D01*
X008313Y017078D02*
X008431Y017078D01*
X008431Y017195D02*
X008313Y017195D01*
X008313Y017312D02*
X008431Y017312D01*
X008431Y017428D02*
X008313Y017428D01*
X008313Y017545D02*
X008431Y017545D01*
X008431Y017661D02*
X008313Y017661D01*
X008313Y017778D02*
X008431Y017778D01*
X008431Y017895D02*
X008313Y017895D01*
X008313Y018011D02*
X008431Y018011D01*
X008431Y018128D02*
X008313Y018128D01*
X008313Y018244D02*
X008431Y018244D01*
X008431Y018361D02*
X008313Y018361D01*
X008313Y018478D02*
X008431Y018478D01*
X008538Y018594D02*
X008313Y018594D01*
X008806Y018361D02*
X009781Y018361D01*
X009888Y018478D02*
X008923Y018478D01*
X009039Y018594D02*
X009897Y018594D01*
X009964Y018711D02*
X009156Y018711D01*
X008785Y018244D02*
X009665Y018244D01*
X009548Y018128D02*
X008785Y018128D01*
X008785Y018011D02*
X009431Y018011D01*
X009315Y017895D02*
X008785Y017895D01*
X008785Y017778D02*
X009198Y017778D01*
X009082Y017661D02*
X008785Y017661D01*
X008785Y017545D02*
X008965Y017545D01*
X008848Y017428D02*
X008785Y017428D01*
X009116Y017195D02*
X013773Y017195D01*
X013773Y017156D02*
X013456Y016839D01*
X012274Y016839D01*
X012220Y016892D01*
X012112Y016937D01*
X011994Y016937D01*
X011886Y016892D01*
X011803Y016809D01*
X011758Y016701D01*
X011758Y016583D01*
X011803Y016475D01*
X011886Y016392D01*
X011994Y016347D01*
X012112Y016347D01*
X012220Y016392D01*
X012274Y016445D01*
X013619Y016445D01*
X014051Y016877D01*
X014392Y016877D01*
X014648Y017134D01*
X014648Y017497D01*
X014392Y017753D01*
X014029Y017753D01*
X013773Y017497D01*
X013773Y017156D01*
X013695Y017078D02*
X009000Y017078D01*
X008982Y016962D02*
X013579Y016962D01*
X013462Y016845D02*
X012268Y016845D01*
X012053Y016642D02*
X013537Y016642D01*
X014211Y017315D01*
X014648Y017312D02*
X014773Y017312D01*
X014773Y017428D02*
X014648Y017428D01*
X014600Y017545D02*
X014821Y017545D01*
X014937Y017661D02*
X014484Y017661D01*
X014392Y017877D02*
X014029Y017877D01*
X013773Y018134D01*
X013773Y018497D01*
X014029Y018753D01*
X014392Y018753D01*
X014648Y018497D01*
X014648Y018134D01*
X014392Y017877D01*
X014409Y017895D02*
X015012Y017895D01*
X014895Y018011D02*
X014526Y018011D01*
X014642Y018128D02*
X014779Y018128D01*
X014773Y018244D02*
X014648Y018244D01*
X014648Y018361D02*
X014773Y018361D01*
X014773Y018478D02*
X014648Y018478D01*
X014551Y018594D02*
X014870Y018594D01*
X014987Y018711D02*
X014434Y018711D01*
X014458Y018944D02*
X014963Y018944D01*
X014846Y019061D02*
X014575Y019061D01*
X014648Y019177D02*
X014773Y019177D01*
X014773Y019294D02*
X014648Y019294D01*
X014648Y019410D02*
X014773Y019410D01*
X014803Y019527D02*
X014618Y019527D01*
X014501Y019644D02*
X014920Y019644D01*
X014251Y019877D02*
X014170Y019877D01*
X014170Y019994D02*
X014251Y019994D01*
X014251Y020110D02*
X014170Y020110D01*
X014170Y020227D02*
X014251Y020227D01*
X014251Y020460D02*
X014170Y020460D01*
X014170Y020577D02*
X014251Y020577D01*
X014251Y020693D02*
X014170Y020693D01*
X014482Y020693D02*
X014969Y020693D01*
X014853Y020577D02*
X014598Y020577D01*
X014670Y020460D02*
X014773Y020460D01*
X015899Y019877D02*
X019258Y019877D01*
X019258Y019760D02*
X016016Y019760D01*
X016069Y019644D02*
X019258Y019644D01*
X019258Y019527D02*
X016069Y019527D01*
X016069Y019410D02*
X019258Y019410D01*
X019258Y019294D02*
X016069Y019294D01*
X016069Y019177D02*
X019258Y019177D01*
X019258Y019061D02*
X016069Y019061D01*
X016069Y018944D02*
X019258Y018944D01*
X019258Y018827D02*
X016069Y018827D01*
X016069Y018711D02*
X019258Y018711D01*
X019258Y018594D02*
X016285Y018594D01*
X016089Y018594D02*
X016069Y018594D01*
X015714Y018594D02*
X015551Y018594D01*
X015648Y018478D02*
X015714Y018478D01*
X015714Y018361D02*
X015648Y018361D01*
X015648Y018244D02*
X015714Y018244D01*
X015730Y018128D02*
X015642Y018128D01*
X015526Y018011D02*
X015847Y018011D01*
X015911Y017947D02*
X015911Y017947D01*
X015963Y017895D02*
X015409Y017895D01*
X015484Y017661D02*
X017181Y017661D01*
X017297Y017545D02*
X015600Y017545D01*
X015648Y017428D02*
X017414Y017428D01*
X017531Y017312D02*
X015648Y017312D01*
X015648Y017195D02*
X017647Y017195D01*
X017764Y017078D02*
X015698Y017078D01*
X015815Y016962D02*
X017880Y016962D01*
X017997Y016845D02*
X015931Y016845D01*
X016048Y016728D02*
X018114Y016728D01*
X018230Y016612D02*
X016069Y016612D01*
X016358Y016495D02*
X018347Y016495D01*
X018464Y016379D02*
X017488Y016379D01*
X017605Y016262D02*
X018580Y016262D01*
X018697Y016145D02*
X017721Y016145D01*
X017838Y016029D02*
X018813Y016029D01*
X018930Y015912D02*
X017955Y015912D01*
X018071Y015796D02*
X019047Y015796D01*
X019142Y015679D02*
X019163Y015679D01*
X019220Y015562D02*
X019280Y015562D01*
X019238Y015446D02*
X019396Y015446D01*
X019353Y015329D02*
X019513Y015329D01*
X019470Y015213D02*
X019630Y015213D01*
X019586Y015096D02*
X019746Y015096D01*
X019703Y014979D02*
X019863Y014979D01*
X019959Y014863D02*
X019979Y014863D01*
X020020Y014746D02*
X020025Y014746D01*
X020025Y014629D02*
X020060Y014629D01*
X019730Y014674D02*
X018943Y015461D01*
X018743Y015679D02*
X018188Y015679D01*
X018305Y015562D02*
X018665Y015562D01*
X018648Y015446D02*
X018421Y015446D01*
X018538Y015329D02*
X018678Y015329D01*
X018654Y015213D02*
X018774Y015213D01*
X018771Y015096D02*
X019029Y015096D01*
X019146Y014979D02*
X018888Y014979D01*
X019004Y014863D02*
X019263Y014863D01*
X019379Y014746D02*
X019121Y014746D01*
X019237Y014629D02*
X019435Y014629D01*
X018926Y014046D02*
X018836Y014046D01*
X018809Y014163D02*
X018720Y014163D01*
X018692Y014280D02*
X018603Y014280D01*
X018576Y014396D02*
X018486Y014396D01*
X018459Y014513D02*
X018370Y014513D01*
X018343Y014629D02*
X018253Y014629D01*
X018226Y014746D02*
X014889Y014746D01*
X014772Y014863D02*
X018109Y014863D01*
X017993Y014979D02*
X014655Y014979D01*
X014539Y015096D02*
X017876Y015096D01*
X017760Y015213D02*
X014422Y015213D01*
X014305Y015329D02*
X017643Y015329D01*
X017526Y015446D02*
X014189Y015446D01*
X014120Y015562D02*
X017410Y015562D01*
X017293Y015679D02*
X014095Y015679D01*
X014006Y015796D02*
X015995Y015796D01*
X015879Y015912D02*
X015602Y015912D01*
X015648Y016029D02*
X015762Y016029D01*
X015714Y016145D02*
X015648Y016145D01*
X015648Y016262D02*
X015714Y016262D01*
X015714Y016379D02*
X015648Y016379D01*
X015648Y016495D02*
X015714Y016495D01*
X015663Y016612D02*
X015648Y016612D01*
X015430Y016845D02*
X014019Y016845D01*
X014020Y016774D02*
X013751Y016505D01*
X013751Y016356D01*
X014170Y016356D01*
X014170Y016774D01*
X014020Y016774D01*
X013975Y016728D02*
X013902Y016728D01*
X013858Y016612D02*
X013786Y016612D01*
X013751Y016495D02*
X013669Y016495D01*
X013751Y016379D02*
X012189Y016379D01*
X011917Y016379D02*
X008982Y016379D01*
X008982Y016495D02*
X011794Y016495D01*
X011758Y016612D02*
X008982Y016612D01*
X008982Y016728D02*
X011769Y016728D01*
X011839Y016845D02*
X008982Y016845D01*
X009233Y017312D02*
X013773Y017312D01*
X013773Y017428D02*
X009350Y017428D01*
X009466Y017545D02*
X013821Y017545D01*
X013937Y017661D02*
X009583Y017661D01*
X009699Y017778D02*
X017064Y017778D01*
X017726Y018011D02*
X019258Y018011D01*
X019258Y017895D02*
X017842Y017895D01*
X017959Y017778D02*
X019258Y017778D01*
X019258Y017661D02*
X018076Y017661D01*
X018192Y017545D02*
X019258Y017545D01*
X019258Y017428D02*
X018309Y017428D01*
X018425Y017312D02*
X019258Y017312D01*
X019320Y017195D02*
X018542Y017195D01*
X018659Y017078D02*
X019437Y017078D01*
X019554Y016962D02*
X018775Y016962D01*
X019258Y018128D02*
X017609Y018128D01*
X017493Y018244D02*
X019258Y018244D01*
X019258Y018361D02*
X017376Y018361D01*
X017259Y018478D02*
X019258Y018478D01*
X020399Y018478D02*
X020813Y018478D01*
X020823Y018594D02*
X020399Y018594D01*
X020399Y018711D02*
X020889Y018711D01*
X020851Y018361D02*
X020399Y018361D01*
X021877Y019061D02*
X021914Y019061D01*
X022271Y019061D02*
X022307Y019061D01*
X022665Y019061D02*
X025752Y019061D01*
X025662Y019177D02*
X022755Y019177D01*
X022781Y019294D02*
X025636Y019294D01*
X025657Y019410D02*
X022760Y019410D01*
X022676Y019527D02*
X025741Y019527D01*
X026025Y019644D02*
X022392Y019644D01*
X022276Y019760D02*
X026141Y019760D01*
X026110Y019061D02*
X026146Y019061D01*
X024149Y017895D02*
X023423Y017895D01*
X023470Y017778D02*
X024033Y017778D01*
X023962Y017661D02*
X023468Y017661D01*
X023589Y017545D02*
X023745Y017545D01*
X023667Y017428D02*
X023667Y017428D01*
X023667Y017312D02*
X023667Y017312D01*
X023667Y017195D02*
X023667Y017195D01*
X023667Y017078D02*
X023667Y017078D01*
X023667Y016962D02*
X023667Y016962D01*
X023667Y016845D02*
X023667Y016845D01*
X023667Y016728D02*
X023667Y016728D01*
X023234Y016379D02*
X023116Y016379D01*
X023116Y016262D02*
X023234Y016262D01*
X023234Y015912D02*
X023116Y015912D01*
X023116Y015796D02*
X023234Y015796D01*
X023234Y015679D02*
X023116Y015679D01*
X023116Y015562D02*
X023234Y015562D01*
X023234Y015329D02*
X023116Y015329D01*
X023116Y015213D02*
X023234Y015213D01*
X023234Y015096D02*
X023116Y015096D01*
X022662Y014863D02*
X020603Y014863D01*
X020616Y014746D02*
X022662Y014746D01*
X022662Y014629D02*
X020581Y014629D01*
X020585Y014513D02*
X022697Y014513D01*
X022764Y014280D02*
X020600Y014280D01*
X020616Y014396D02*
X025537Y014396D01*
X025931Y014863D02*
X028444Y014863D01*
X028327Y014979D02*
X026704Y014979D01*
X026536Y014979D02*
X025931Y014979D01*
X025931Y015096D02*
X026371Y015096D01*
X026325Y015213D02*
X025931Y015213D01*
X025931Y015329D02*
X026327Y015329D01*
X026384Y015446D02*
X025931Y015446D01*
X025931Y015562D02*
X029015Y015562D01*
X029147Y015562D02*
X029713Y015562D01*
X029829Y015446D02*
X026856Y015446D01*
X026818Y016029D02*
X028164Y016029D01*
X028047Y016145D02*
X026897Y016145D01*
X026915Y016262D02*
X027931Y016262D01*
X029323Y015679D02*
X029596Y015679D01*
X029946Y015329D02*
X028479Y015329D01*
X028595Y015213D02*
X030063Y015213D01*
X030179Y015096D02*
X028712Y015096D01*
X028829Y014979D02*
X030183Y014979D01*
X030183Y014863D02*
X028945Y014863D01*
X029202Y014746D02*
X030183Y014746D01*
X030183Y014629D02*
X029337Y014629D01*
X029376Y014513D02*
X030183Y014513D01*
X030183Y014396D02*
X029367Y014396D01*
X029301Y014280D02*
X030183Y014280D01*
X030537Y012880D02*
X035596Y012880D01*
X035596Y012764D02*
X030650Y012764D01*
X030767Y012647D02*
X035511Y012647D01*
X035478Y012530D02*
X031149Y012530D01*
X031228Y012414D02*
X035493Y012414D01*
X035567Y012297D02*
X031246Y012297D01*
X026388Y013580D02*
X025636Y013580D01*
X025168Y013118D02*
X025152Y013079D01*
X024784Y013079D01*
X024823Y013118D01*
X025168Y013118D01*
X025166Y013114D02*
X024818Y013114D01*
X024551Y013347D02*
X024417Y013347D01*
X024410Y013364D02*
X024400Y013374D01*
X024571Y013374D01*
X024651Y013455D01*
X024651Y013630D01*
X024651Y013630D01*
X024651Y013455D01*
X024655Y013451D01*
X024455Y013251D01*
X024455Y013256D01*
X024410Y013364D01*
X024651Y013463D02*
X024651Y013463D01*
X024651Y013580D02*
X024651Y013580D01*
X023667Y013580D02*
X023667Y013580D01*
X023667Y013463D02*
X023667Y013463D01*
X023667Y014024D02*
X023667Y014199D01*
X023667Y014024D01*
X023667Y014024D01*
X023667Y014046D02*
X023667Y014046D01*
X023667Y014163D02*
X023667Y014163D01*
X023587Y014280D02*
X023748Y014280D01*
X023682Y014513D02*
X023653Y014513D01*
X023234Y014513D02*
X023116Y014513D01*
X023116Y014629D02*
X023234Y014629D01*
X023234Y014746D02*
X023116Y014746D01*
X022683Y014163D02*
X020560Y014163D01*
X020615Y014046D02*
X022438Y014046D01*
X022324Y013930D02*
X020616Y013930D01*
X020050Y013866D02*
X019623Y013866D01*
X019607Y013906D01*
X020034Y013906D01*
X020050Y013866D01*
X019042Y013930D02*
X018953Y013930D01*
X018506Y013580D02*
X008982Y013580D01*
X008982Y013697D02*
X018390Y013697D01*
X018273Y013813D02*
X008982Y013813D01*
X008982Y013930D02*
X011200Y013930D01*
X011100Y014046D02*
X008982Y014046D01*
X008982Y014163D02*
X011069Y014163D01*
X011085Y014280D02*
X008982Y014280D01*
X008982Y014396D02*
X011161Y014396D01*
X011128Y014772D02*
X011236Y014817D01*
X011319Y014900D01*
X011364Y015008D01*
X011364Y015126D01*
X011319Y015234D01*
X011236Y015318D01*
X011128Y015362D01*
X011010Y015362D01*
X010902Y015318D01*
X010848Y015264D01*
X009912Y015264D01*
X009858Y015318D01*
X009750Y015362D01*
X009632Y015362D01*
X009524Y015318D01*
X009441Y015234D01*
X009396Y015126D01*
X009396Y015008D01*
X009441Y014900D01*
X009524Y014817D01*
X009632Y014772D01*
X009750Y014772D01*
X009858Y014817D01*
X009912Y014870D01*
X010848Y014870D01*
X010902Y014817D01*
X011010Y014772D01*
X011128Y014772D01*
X011282Y014863D02*
X014271Y014863D01*
X014154Y014979D02*
X011352Y014979D01*
X011364Y015096D02*
X014038Y015096D01*
X013921Y015213D02*
X011328Y015213D01*
X011208Y015329D02*
X013637Y015329D01*
X013552Y015446D02*
X008982Y015446D01*
X008982Y015562D02*
X013529Y015562D01*
X013555Y015679D02*
X008982Y015679D01*
X008982Y015796D02*
X013643Y015796D01*
X013848Y016029D02*
X008982Y016029D01*
X008982Y016145D02*
X013751Y016145D01*
X013751Y016125D02*
X014020Y015856D01*
X014170Y015856D01*
X014170Y016274D01*
X014251Y016274D01*
X014251Y015856D01*
X014401Y015856D01*
X014670Y016125D01*
X014670Y016274D01*
X014251Y016274D01*
X014251Y016356D01*
X014170Y016356D01*
X014170Y016274D01*
X013751Y016274D01*
X013751Y016125D01*
X013751Y016262D02*
X008982Y016262D01*
X008982Y015912D02*
X013964Y015912D01*
X014170Y015912D02*
X014251Y015912D01*
X014251Y016029D02*
X014170Y016029D01*
X014170Y016145D02*
X014251Y016145D01*
X014251Y016262D02*
X014170Y016262D01*
X014170Y016379D02*
X014251Y016379D01*
X014251Y016356D02*
X014251Y016774D01*
X014401Y016774D01*
X014670Y016505D01*
X014670Y016356D01*
X014251Y016356D01*
X014251Y016495D02*
X014170Y016495D01*
X014170Y016612D02*
X014251Y016612D01*
X014251Y016728D02*
X014170Y016728D01*
X014447Y016728D02*
X014829Y016728D01*
X014773Y016612D02*
X014563Y016612D01*
X014670Y016495D02*
X014773Y016495D01*
X014773Y016379D02*
X014670Y016379D01*
X014670Y016262D02*
X014773Y016262D01*
X014773Y016145D02*
X014670Y016145D01*
X014573Y016029D02*
X014773Y016029D01*
X014819Y015912D02*
X014457Y015912D01*
X014476Y016962D02*
X014945Y016962D01*
X014828Y017078D02*
X014593Y017078D01*
X014648Y017195D02*
X014773Y017195D01*
X014012Y017895D02*
X009816Y017895D01*
X009933Y018011D02*
X013895Y018011D01*
X013779Y018128D02*
X010049Y018128D01*
X010308Y018244D02*
X013773Y018244D01*
X013773Y018361D02*
X010440Y018361D01*
X010478Y018478D02*
X013773Y018478D01*
X013870Y018594D02*
X010469Y018594D01*
X010402Y018711D02*
X013987Y018711D01*
X010930Y015329D02*
X009830Y015329D01*
X009552Y015329D02*
X008982Y015329D01*
X008982Y015213D02*
X009431Y015213D01*
X009396Y015096D02*
X008982Y015096D01*
X008982Y014979D02*
X009408Y014979D01*
X009478Y014863D02*
X008982Y014863D01*
X008982Y014746D02*
X014387Y014746D01*
X014504Y014629D02*
X008982Y014629D01*
X008982Y014513D02*
X014621Y014513D01*
X011628Y014046D02*
X018040Y014046D01*
X018156Y013930D02*
X011528Y013930D01*
X010856Y014863D02*
X009904Y014863D01*
X009691Y015067D02*
X011069Y015067D01*
X008982Y013463D02*
X018623Y013463D01*
X018739Y013347D02*
X008982Y013347D01*
X008982Y013230D02*
X018856Y013230D01*
X019064Y013114D02*
X008982Y013114D01*
X008982Y012997D02*
X019041Y012997D01*
X019067Y012880D02*
X008982Y012880D01*
X008982Y012764D02*
X019082Y012764D01*
X019041Y012647D02*
X008982Y012647D01*
X009033Y012530D02*
X009591Y012530D01*
X009988Y012530D02*
X019048Y012530D01*
X019112Y012414D02*
X010066Y012414D01*
X009569Y012114D02*
X009549Y012095D01*
X009174Y012095D01*
X009134Y012134D01*
X009549Y012134D01*
X009569Y012114D01*
X009575Y011714D02*
X008117Y011714D01*
X008131Y011598D02*
X008311Y011598D01*
X008195Y011481D02*
X008131Y011481D01*
X008418Y011425D02*
X014612Y011425D01*
X015399Y010638D01*
X012197Y009382D02*
X010728Y009382D01*
X010838Y009265D02*
X012087Y009265D01*
X012039Y009149D02*
X010886Y009149D01*
X010890Y009032D02*
X012035Y009032D01*
X012065Y008916D02*
X010860Y008916D01*
X010782Y008799D02*
X012143Y008799D01*
X008937Y011831D02*
X008000Y011831D01*
X008273Y012647D02*
X008431Y012647D01*
X008431Y012764D02*
X008378Y012764D01*
X008411Y012880D02*
X008431Y012880D01*
X008431Y012997D02*
X008396Y012997D01*
X002688Y009965D02*
X001829Y009965D01*
X001829Y009848D02*
X002576Y009848D01*
X002515Y009732D02*
X001829Y009732D01*
X001829Y010082D02*
X002457Y010082D01*
X002427Y010198D02*
X001829Y010198D01*
X001829Y010315D02*
X002427Y010315D01*
X002427Y010431D02*
X001829Y010431D01*
X001829Y010548D02*
X002427Y010548D01*
X002427Y010665D02*
X001829Y010665D01*
X001829Y010781D02*
X002427Y010781D01*
X002427Y010898D02*
X001829Y010898D01*
X001829Y011015D02*
X002442Y011015D01*
X001829Y016962D02*
X006797Y016962D01*
X006797Y017078D02*
X006719Y017078D01*
X006717Y016845D02*
X006797Y016845D01*
X019726Y012647D02*
X021801Y012647D01*
X024100Y014513D02*
X024218Y014513D01*
X024218Y014629D02*
X024100Y014629D01*
X024100Y014746D02*
X024218Y014746D01*
X024218Y015096D02*
X024100Y015096D01*
X024100Y015213D02*
X024218Y015213D01*
X024218Y015329D02*
X024100Y015329D01*
X024100Y015562D02*
X024218Y015562D01*
X024218Y015679D02*
X024100Y015679D01*
X024100Y015796D02*
X024218Y015796D01*
X024218Y015912D02*
X024100Y015912D01*
X024100Y016262D02*
X024218Y016262D01*
X024218Y016379D02*
X024100Y016379D01*
X024651Y016728D02*
X024651Y016728D01*
X024651Y016845D02*
X024651Y016845D01*
X025144Y017095D02*
X025183Y017134D01*
X024713Y017528D02*
X024651Y017467D01*
X024651Y017331D01*
X024651Y017331D01*
X024651Y017467D01*
X024590Y017528D01*
X024713Y017528D01*
X024651Y017428D02*
X024651Y017428D01*
X023175Y017725D02*
X023175Y017095D01*
X025085Y015912D02*
X025203Y015912D01*
X025203Y015796D02*
X025085Y015796D01*
X025085Y015679D02*
X025203Y015679D01*
X025203Y015562D02*
X025085Y015562D01*
X025085Y015329D02*
X025203Y015329D01*
X025203Y015213D02*
X025085Y015213D01*
X025085Y015096D02*
X025203Y015096D01*
X025537Y015446D02*
X020416Y015446D01*
X023639Y015562D02*
X023695Y015562D01*
X023670Y015329D02*
X023664Y015329D01*
X024648Y015329D02*
X024655Y015329D01*
X024679Y015562D02*
X024624Y015562D01*
X024282Y020577D02*
X022855Y020577D01*
X022953Y020693D02*
X024185Y020693D01*
X024141Y020810D02*
X022997Y020810D01*
X022997Y020926D02*
X024141Y020926D01*
X024180Y021043D02*
X022958Y021043D01*
X022868Y021160D02*
X024270Y021160D01*
X024436Y024658D02*
X024883Y024658D01*
X024766Y024775D02*
X024553Y024775D01*
X024597Y024891D02*
X024722Y024891D01*
X024722Y025008D02*
X024597Y025008D01*
X024597Y025124D02*
X024722Y025124D01*
X024632Y025241D02*
X024538Y025241D01*
X025436Y024658D02*
X034528Y024658D01*
X034642Y024775D02*
X027788Y024775D01*
X027420Y024775D02*
X025553Y024775D01*
X021699Y026583D02*
X018549Y026583D01*
X018254Y026524D02*
X018299Y026416D01*
D20*
X018549Y026583D03*
X027604Y025008D03*
X031049Y023335D03*
X032427Y023729D03*
X032427Y024221D03*
X034789Y024516D03*
X034789Y023827D03*
X034789Y023433D03*
X036167Y024319D03*
X036069Y022548D03*
X036069Y022154D03*
X034986Y021859D03*
X033608Y021859D03*
X037742Y020481D03*
X039218Y019398D03*
X035774Y017331D03*
X038333Y014674D03*
X038333Y012902D03*
X039415Y012705D03*
X039711Y012410D03*
X040498Y013000D03*
X040793Y012705D03*
X041088Y012410D03*
X040793Y012114D03*
X041777Y012607D03*
X041088Y013000D03*
X041777Y013492D03*
X041777Y011327D03*
X044238Y010343D03*
X046305Y011130D03*
X046305Y011524D03*
X046305Y011918D03*
X046305Y012311D03*
X046305Y012705D03*
X046305Y013492D03*
X046305Y013886D03*
X037545Y009752D03*
X035583Y009746D03*
X033608Y009752D03*
X031640Y009949D03*
X030951Y012311D03*
X031148Y013394D03*
X030754Y013394D03*
X030754Y013788D03*
X029966Y013788D03*
X029573Y013788D03*
X029573Y014181D03*
X029966Y014181D03*
X029966Y013394D03*
X029081Y014477D03*
X028293Y014477D03*
X027998Y014181D03*
X028293Y013886D03*
X028392Y013394D03*
X027998Y013394D03*
X026620Y013394D03*
X025734Y013886D03*
X026226Y014181D03*
X026620Y014181D03*
X026620Y014575D03*
X026226Y014575D03*
X026226Y014969D03*
X026620Y015264D03*
X026620Y016248D03*
X025734Y017134D03*
X025833Y017528D03*
X026226Y017528D03*
X026620Y017528D03*
X026620Y017922D03*
X026226Y017922D03*
X025833Y017922D03*
X025144Y017725D03*
X023175Y017725D03*
X022486Y017331D03*
X022092Y017331D03*
X021699Y017331D03*
X021699Y016937D03*
X021699Y016544D03*
X022092Y016544D03*
X022092Y016937D03*
X022486Y016937D03*
X022486Y016544D03*
X022486Y015362D03*
X022092Y015362D03*
X021699Y015362D03*
X021699Y014969D03*
X022092Y014969D03*
X022092Y014575D03*
X021699Y014575D03*
X022486Y014575D03*
X022486Y014969D03*
X022585Y013788D03*
X024159Y013197D03*
X025439Y013000D03*
X025833Y013000D03*
X026226Y013000D03*
X026620Y013000D03*
X024750Y011130D03*
X024651Y010737D03*
X024356Y010441D03*
X023962Y010343D03*
X025931Y009851D03*
X027309Y010441D03*
X026817Y008473D03*
X026423Y008473D03*
X026029Y008473D03*
X025537Y007882D03*
X026325Y006799D03*
X028490Y007292D03*
X031246Y006209D03*
X032624Y005126D03*
X033018Y004929D03*
X033411Y004437D03*
X033411Y004044D03*
X031049Y004634D03*
X030655Y004831D03*
X028392Y004240D03*
X027998Y004437D03*
X027604Y004634D03*
X024061Y006799D03*
X021994Y004831D03*
X016876Y010638D03*
X019337Y012607D03*
X019337Y013000D03*
X019337Y013788D03*
X020321Y013985D03*
X020321Y014378D03*
X020321Y014772D03*
X020321Y015166D03*
X019730Y014674D03*
X018943Y015461D03*
X020321Y016445D03*
X020321Y016839D03*
X020321Y017233D03*
X020321Y017626D03*
X020321Y018020D03*
X021108Y018512D03*
X021699Y019299D03*
X022092Y019299D03*
X022486Y019299D03*
X025931Y019299D03*
X026325Y019299D03*
X027014Y018611D03*
X027309Y018315D03*
X029474Y016051D03*
X029081Y015855D03*
X035774Y012508D03*
X036561Y007292D03*
X037447Y007292D03*
X037939Y007292D03*
X022191Y011524D03*
X021797Y011524D03*
X021403Y011524D03*
X021010Y011524D03*
X013825Y015559D03*
X012053Y016642D03*
X011069Y015067D03*
X009691Y015067D03*
X008116Y015067D03*
X011364Y014181D03*
X009789Y012311D03*
X009789Y011918D03*
X008116Y012902D03*
X016187Y016248D03*
X016187Y018315D03*
X010183Y018512D03*
X010183Y019988D03*
X009002Y020776D03*
X009592Y021071D03*
X040596Y024811D03*
X042663Y024811D03*
X043352Y019398D03*
D21*
X007132Y017626D02*
X007132Y015067D01*
X006541Y014477D01*
X007132Y013886D01*
X007132Y013000D01*
X004671Y010540D01*
X003014Y010540D01*
X002998Y010555D01*
X006482Y014461D02*
X006525Y014461D01*
X006541Y014477D01*
X007132Y017626D02*
X006049Y018709D01*
X003785Y018709D01*
X003293Y019201D01*
X003293Y019898D01*
X003679Y020284D01*
D22*
X008608Y018414D02*
X008608Y012410D01*
X009100Y011918D01*
X009789Y011918D01*
X009789Y012311D02*
X009002Y012311D01*
X008805Y012508D01*
X008805Y017134D01*
X010183Y018512D01*
X010183Y019988D02*
X008608Y018414D01*
X013825Y015559D02*
X014907Y014477D01*
X018155Y014477D01*
X019140Y013492D01*
X022092Y013492D01*
X022880Y012705D01*
X024455Y012705D01*
X024651Y012902D01*
X025340Y012902D01*
X025439Y013000D01*
X025537Y012705D02*
X024750Y012705D01*
X024553Y012508D01*
X022781Y012508D01*
X021994Y013296D01*
X019041Y013296D01*
X018057Y014280D01*
X011462Y014280D01*
X011364Y014181D01*
X015892Y016150D02*
X015892Y016634D01*
X015211Y017315D01*
X016088Y018020D02*
X017073Y018020D01*
X020321Y014772D01*
X020321Y014378D02*
X019238Y014378D01*
X017368Y016248D01*
X016187Y016248D01*
X015892Y016150D02*
X016088Y015953D01*
X017270Y015953D01*
X019140Y014083D01*
X020222Y014083D01*
X020321Y013985D01*
X019435Y013689D02*
X019337Y013788D01*
X019435Y013689D02*
X022191Y013689D01*
X022978Y012902D01*
X024356Y012902D01*
X024750Y013296D01*
X026522Y013296D01*
X026620Y013394D01*
X026620Y013000D02*
X025931Y012311D01*
X024947Y012311D01*
X024750Y012114D01*
X022585Y012114D01*
X021797Y012902D01*
X019730Y012902D01*
X019435Y012607D01*
X019337Y012607D01*
X019337Y013000D02*
X019435Y013099D01*
X021896Y013099D01*
X022683Y012311D01*
X024651Y012311D01*
X024848Y012508D01*
X025734Y012508D01*
X026226Y013000D01*
X025833Y013000D02*
X025537Y012705D01*
X027998Y014181D02*
X028392Y014181D01*
X031049Y011524D01*
X032230Y011524D01*
X034008Y009746D01*
X035583Y009746D01*
X035380Y009949D02*
X034100Y009949D01*
X032329Y011721D01*
X031148Y011721D01*
X028392Y014477D01*
X028293Y014477D01*
X028293Y015264D02*
X029081Y014477D01*
X028392Y013886D02*
X030951Y011327D01*
X032132Y011327D01*
X033608Y009851D01*
X033608Y009752D01*
X035380Y009949D02*
X035478Y010048D01*
X035675Y010048D01*
X035970Y009752D01*
X037545Y009752D01*
X040104Y012114D02*
X041187Y011032D01*
X046207Y011032D01*
X046305Y011130D01*
X046305Y011524D02*
X042073Y011524D01*
X041187Y012410D01*
X041088Y012410D01*
X039711Y012410D01*
X039612Y012114D02*
X040104Y012114D01*
X039612Y012114D02*
X039415Y012311D01*
X039415Y012705D01*
X040498Y013000D02*
X040695Y013000D01*
X040990Y013296D01*
X041187Y013296D01*
X041285Y013197D01*
X046010Y013197D01*
X046305Y013492D01*
X046305Y013886D02*
X045813Y013394D01*
X041876Y013394D01*
X041777Y013492D01*
X041088Y013000D02*
X046010Y013000D01*
X046305Y012705D01*
X046305Y011918D02*
X046108Y011721D01*
X042171Y011721D01*
X041187Y012705D01*
X040793Y012705D01*
X040793Y012114D02*
X041187Y012114D01*
X041777Y011524D01*
X041777Y011327D01*
X035774Y012508D02*
X035774Y017331D01*
X039218Y019398D02*
X037840Y020776D01*
X037742Y020776D01*
X036364Y022154D01*
X036364Y022252D01*
X036069Y022548D01*
X036069Y022154D02*
X037742Y020481D01*
X034297Y022154D02*
X034100Y021957D01*
X033707Y021957D01*
X033608Y021859D01*
X034297Y022154D02*
X034297Y023335D01*
X034789Y023827D01*
X034396Y024122D02*
X033214Y024122D01*
X032525Y023433D01*
X032230Y023433D01*
X027309Y018512D01*
X027309Y018315D01*
X027112Y018611D02*
X027014Y018611D01*
X027112Y018611D02*
X032230Y023729D01*
X032427Y023729D01*
X032427Y024221D02*
X027604Y019398D01*
X026423Y019398D01*
X026325Y019299D01*
X026226Y019595D02*
X025931Y019299D01*
X026226Y019595D02*
X027506Y019595D01*
X031049Y023138D01*
X031049Y023335D01*
X034396Y024122D02*
X034789Y024516D01*
X036167Y024319D02*
X040399Y024319D01*
X040596Y024516D01*
X040596Y024811D01*
X042663Y024811D02*
X043352Y024122D01*
X043352Y019398D01*
X030951Y012311D02*
X030852Y012311D01*
X030360Y012803D01*
X030360Y015166D01*
X029474Y016051D01*
X029081Y015855D02*
X028982Y015756D01*
X028687Y015756D01*
X027998Y016445D01*
X026817Y016445D01*
X026620Y016248D01*
X026620Y015264D02*
X028293Y015264D01*
X028293Y013886D02*
X028392Y013886D01*
X025439Y010441D02*
X024750Y011130D01*
X024651Y010737D02*
X025242Y010146D01*
X025242Y008866D01*
X025931Y008177D01*
X026128Y008177D01*
X026423Y008473D01*
X026029Y008473D02*
X025439Y009063D01*
X025439Y010441D01*
X025045Y009752D02*
X024356Y010441D01*
X023962Y010343D02*
X024848Y009457D01*
X024848Y008670D01*
X025537Y007981D01*
X025537Y007882D01*
X025833Y007981D02*
X025045Y008768D01*
X025045Y009752D01*
X026325Y007981D02*
X026817Y008473D01*
X026325Y007981D02*
X025833Y007981D01*
X026325Y006799D02*
X024061Y006799D01*
X021797Y004536D02*
X021600Y004733D01*
X021600Y010933D01*
X022191Y011524D01*
X021797Y011524D02*
X021403Y011130D01*
X021403Y004634D01*
X021699Y004339D01*
X027899Y004339D01*
X027998Y004437D01*
X028293Y004142D02*
X028392Y004240D01*
X028293Y004142D02*
X021600Y004142D01*
X021207Y004536D01*
X021207Y011327D01*
X021403Y011524D01*
X021010Y011524D02*
X021010Y004437D01*
X021502Y003945D01*
X028982Y003945D01*
X031246Y006209D01*
X030655Y004831D02*
X030655Y004634D01*
X031246Y004044D01*
X033411Y004044D01*
X033313Y004044D01*
X033411Y004437D02*
X031246Y004437D01*
X031049Y004634D01*
X027604Y004634D02*
X027506Y004536D01*
X021797Y004536D01*
X020321Y015166D02*
X017171Y018315D01*
X016187Y018315D01*
X015892Y018217D02*
X016088Y018020D01*
X015892Y018217D02*
X015892Y019634D01*
X015211Y020315D01*
X017565Y022154D02*
X012053Y022154D01*
X011348Y022859D01*
X011348Y025099D01*
X011856Y025591D02*
X011348Y026099D01*
X011856Y025591D02*
X011856Y022646D01*
X012151Y022351D01*
X017663Y022351D01*
X019632Y020382D01*
X019632Y017528D01*
X020321Y016839D01*
X020321Y017233D02*
X019829Y017725D01*
X019829Y020481D01*
X017762Y022548D01*
X013037Y022548D01*
X012348Y023237D01*
X012348Y025099D01*
X012840Y025607D02*
X012348Y026099D01*
X012840Y025607D02*
X012840Y023040D01*
X013136Y022744D01*
X017860Y022744D01*
X020025Y020579D01*
X020025Y017922D01*
X020321Y017626D01*
X020321Y018020D02*
X020222Y018118D01*
X020222Y020677D01*
X017959Y022941D01*
X013923Y022941D01*
X013348Y023516D01*
X013348Y025099D01*
X013825Y025622D02*
X013825Y023433D01*
X014120Y023138D01*
X018057Y023138D01*
X021699Y019496D01*
X021699Y019299D01*
X022092Y019299D02*
X022092Y019398D01*
X018155Y023335D01*
X014907Y023335D01*
X014348Y023894D01*
X014348Y025099D01*
X014809Y025638D02*
X014809Y023827D01*
X015104Y023532D01*
X018254Y023532D01*
X022486Y019299D01*
X019435Y020284D02*
X019435Y017331D01*
X020321Y016445D01*
X019435Y020284D02*
X017565Y022154D01*
X014809Y025638D02*
X014348Y026099D01*
X013825Y025622D02*
X013348Y026099D01*
M02*
