G75*
G70*
%OFA0B0*%
%FSLAX24Y24*%
%IPPOS*%
%LPD*%
%AMOC8*
5,1,8,0,0,1.08239X$1,22.5*
%
%ADD10C,0.0000*%
%ADD11C,0.0050*%
%ADD12C,0.0040*%
%ADD13C,0.0020*%
%ADD14C,0.0060*%
%ADD15C,0.0160*%
%ADD16R,0.0669X0.0295*%
%ADD17R,0.0295X0.0669*%
%ADD18C,0.0080*%
%ADD19R,0.0290X0.0690*%
%ADD20C,0.0300*%
%ADD21R,0.0200X0.0300*%
%ADD22R,0.0400X0.0300*%
%ADD23R,0.0300X0.0300*%
%ADD24R,0.0700X0.0300*%
%ADD25R,0.0200X0.0200*%
%ADD26R,0.0049X0.0197*%
%ADD27R,0.0128X0.0089*%
%ADD28R,0.0089X0.0049*%
%ADD29R,0.0049X0.0167*%
%ADD30R,0.0138X0.0197*%
%ADD31R,0.0049X0.0236*%
%ADD32R,0.0118X0.0669*%
%ADD33R,0.0276X0.0669*%
%ADD34R,0.0167X0.0128*%
%ADD35R,0.0138X0.0138*%
%ADD36R,0.0690X0.0290*%
%ADD37R,0.0800X0.0200*%
%ADD38R,0.0374X0.1299*%
%ADD39R,0.0200X0.0800*%
%ADD40R,0.1299X0.0374*%
%ADD41R,0.0150X0.0200*%
D10*
X004671Y003551D02*
X043648Y003551D01*
X043648Y005323D01*
X043647Y005323D02*
X043649Y005395D01*
X043655Y005467D01*
X043664Y005539D01*
X043677Y005610D01*
X043694Y005680D01*
X043714Y005749D01*
X043739Y005817D01*
X043766Y005883D01*
X043797Y005949D01*
X043832Y006012D01*
X043869Y006074D01*
X043910Y006133D01*
X043954Y006190D01*
X044001Y006245D01*
X044051Y006297D01*
X044103Y006347D01*
X044158Y006394D01*
X044215Y006438D01*
X044274Y006479D01*
X044336Y006516D01*
X044399Y006551D01*
X044465Y006582D01*
X044531Y006609D01*
X044599Y006634D01*
X044668Y006654D01*
X044738Y006671D01*
X044809Y006684D01*
X044881Y006693D01*
X044953Y006699D01*
X045025Y006701D01*
X046699Y006701D01*
X046699Y024221D01*
X045025Y024221D01*
X044953Y024223D01*
X044881Y024229D01*
X044809Y024238D01*
X044738Y024251D01*
X044668Y024268D01*
X044599Y024288D01*
X044531Y024313D01*
X044465Y024340D01*
X044399Y024371D01*
X044336Y024406D01*
X044274Y024443D01*
X044215Y024484D01*
X044158Y024528D01*
X044103Y024575D01*
X044051Y024625D01*
X044001Y024677D01*
X043954Y024732D01*
X043910Y024789D01*
X043869Y024848D01*
X043832Y024910D01*
X043797Y024973D01*
X043766Y025039D01*
X043739Y025105D01*
X043714Y025173D01*
X043694Y025242D01*
X043677Y025312D01*
X043664Y025383D01*
X043655Y025455D01*
X043649Y025527D01*
X043647Y025599D01*
X043648Y025599D02*
X043648Y027370D01*
X004671Y027370D01*
X004671Y025599D01*
X004669Y025527D01*
X004663Y025455D01*
X004654Y025383D01*
X004641Y025312D01*
X004624Y025242D01*
X004604Y025173D01*
X004579Y025105D01*
X004552Y025039D01*
X004521Y024973D01*
X004486Y024910D01*
X004449Y024848D01*
X004408Y024789D01*
X004364Y024732D01*
X004317Y024677D01*
X004267Y024625D01*
X004215Y024575D01*
X004160Y024528D01*
X004103Y024484D01*
X004044Y024443D01*
X003982Y024406D01*
X003919Y024371D01*
X003853Y024340D01*
X003787Y024313D01*
X003719Y024288D01*
X003650Y024268D01*
X003580Y024251D01*
X003509Y024238D01*
X003437Y024229D01*
X003365Y024223D01*
X003293Y024221D01*
X001620Y024221D01*
X001620Y006701D01*
X003293Y006701D01*
X003365Y006699D01*
X003437Y006693D01*
X003509Y006684D01*
X003580Y006671D01*
X003650Y006654D01*
X003719Y006634D01*
X003787Y006609D01*
X003853Y006582D01*
X003919Y006551D01*
X003982Y006516D01*
X004044Y006479D01*
X004103Y006438D01*
X004160Y006394D01*
X004215Y006347D01*
X004267Y006297D01*
X004317Y006245D01*
X004364Y006190D01*
X004408Y006133D01*
X004449Y006074D01*
X004486Y006012D01*
X004521Y005949D01*
X004552Y005883D01*
X004579Y005817D01*
X004604Y005749D01*
X004624Y005680D01*
X004641Y005610D01*
X004654Y005539D01*
X004663Y005467D01*
X004669Y005395D01*
X004671Y005323D01*
X004671Y003551D01*
X006836Y007685D02*
X006838Y007737D01*
X006844Y007789D01*
X006854Y007840D01*
X006867Y007890D01*
X006885Y007940D01*
X006906Y007987D01*
X006930Y008033D01*
X006959Y008077D01*
X006990Y008119D01*
X007024Y008158D01*
X007061Y008195D01*
X007101Y008228D01*
X007144Y008259D01*
X007188Y008286D01*
X007234Y008310D01*
X007283Y008330D01*
X007332Y008346D01*
X007383Y008359D01*
X007434Y008368D01*
X007486Y008373D01*
X007538Y008374D01*
X007590Y008371D01*
X007642Y008364D01*
X007693Y008353D01*
X007743Y008339D01*
X007792Y008320D01*
X007839Y008298D01*
X007884Y008273D01*
X007928Y008244D01*
X007969Y008212D01*
X008008Y008177D01*
X008043Y008139D01*
X008076Y008098D01*
X008106Y008056D01*
X008132Y008011D01*
X008155Y007964D01*
X008174Y007915D01*
X008190Y007865D01*
X008202Y007815D01*
X008210Y007763D01*
X008214Y007711D01*
X008214Y007659D01*
X008210Y007607D01*
X008202Y007555D01*
X008190Y007505D01*
X008174Y007455D01*
X008155Y007406D01*
X008132Y007359D01*
X008106Y007314D01*
X008076Y007272D01*
X008043Y007231D01*
X008008Y007193D01*
X007969Y007158D01*
X007928Y007126D01*
X007884Y007097D01*
X007839Y007072D01*
X007792Y007050D01*
X007743Y007031D01*
X007693Y007017D01*
X007642Y007006D01*
X007590Y006999D01*
X007538Y006996D01*
X007486Y006997D01*
X007434Y007002D01*
X007383Y007011D01*
X007332Y007024D01*
X007283Y007040D01*
X007234Y007060D01*
X007188Y007084D01*
X007144Y007111D01*
X007101Y007142D01*
X007061Y007175D01*
X007024Y007212D01*
X006990Y007251D01*
X006959Y007293D01*
X006930Y007337D01*
X006906Y007383D01*
X006885Y007430D01*
X006867Y007480D01*
X006854Y007530D01*
X006844Y007581D01*
X006838Y007633D01*
X006836Y007685D01*
X033726Y014969D02*
X033728Y014999D01*
X033734Y015029D01*
X033743Y015058D01*
X033756Y015085D01*
X033773Y015110D01*
X033792Y015133D01*
X033815Y015154D01*
X033840Y015171D01*
X033866Y015185D01*
X033895Y015195D01*
X033924Y015202D01*
X033954Y015205D01*
X033985Y015204D01*
X034015Y015199D01*
X034044Y015190D01*
X034071Y015178D01*
X034097Y015163D01*
X034121Y015144D01*
X034142Y015122D01*
X034160Y015098D01*
X034175Y015071D01*
X034186Y015043D01*
X034194Y015014D01*
X034198Y014984D01*
X034198Y014954D01*
X034194Y014924D01*
X034186Y014895D01*
X034175Y014867D01*
X034160Y014840D01*
X034142Y014816D01*
X034121Y014794D01*
X034097Y014775D01*
X034071Y014760D01*
X034044Y014748D01*
X034015Y014739D01*
X033985Y014734D01*
X033954Y014733D01*
X033924Y014736D01*
X033895Y014743D01*
X033866Y014753D01*
X033840Y014767D01*
X033815Y014784D01*
X033792Y014805D01*
X033773Y014828D01*
X033756Y014853D01*
X033743Y014880D01*
X033734Y014909D01*
X033728Y014939D01*
X033726Y014969D01*
X044789Y019221D02*
X044791Y019247D01*
X044797Y019273D01*
X044807Y019298D01*
X044820Y019321D01*
X044836Y019341D01*
X044856Y019359D01*
X044878Y019374D01*
X044901Y019386D01*
X044927Y019394D01*
X044953Y019398D01*
X044979Y019398D01*
X045005Y019394D01*
X045031Y019386D01*
X045055Y019374D01*
X045076Y019359D01*
X045096Y019341D01*
X045112Y019321D01*
X045125Y019298D01*
X045135Y019273D01*
X045141Y019247D01*
X045143Y019221D01*
X045141Y019195D01*
X045135Y019169D01*
X045125Y019144D01*
X045112Y019121D01*
X045096Y019101D01*
X045076Y019083D01*
X045054Y019068D01*
X045031Y019056D01*
X045005Y019048D01*
X044979Y019044D01*
X044953Y019044D01*
X044927Y019048D01*
X044901Y019056D01*
X044877Y019068D01*
X044856Y019083D01*
X044836Y019101D01*
X044820Y019121D01*
X044807Y019144D01*
X044797Y019169D01*
X044791Y019195D01*
X044789Y019221D01*
X044789Y020953D02*
X044791Y020979D01*
X044797Y021005D01*
X044807Y021030D01*
X044820Y021053D01*
X044836Y021073D01*
X044856Y021091D01*
X044878Y021106D01*
X044901Y021118D01*
X044927Y021126D01*
X044953Y021130D01*
X044979Y021130D01*
X045005Y021126D01*
X045031Y021118D01*
X045055Y021106D01*
X045076Y021091D01*
X045096Y021073D01*
X045112Y021053D01*
X045125Y021030D01*
X045135Y021005D01*
X045141Y020979D01*
X045143Y020953D01*
X045141Y020927D01*
X045135Y020901D01*
X045125Y020876D01*
X045112Y020853D01*
X045096Y020833D01*
X045076Y020815D01*
X045054Y020800D01*
X045031Y020788D01*
X045005Y020780D01*
X044979Y020776D01*
X044953Y020776D01*
X044927Y020780D01*
X044901Y020788D01*
X044877Y020800D01*
X044856Y020815D01*
X044836Y020833D01*
X044820Y020853D01*
X044807Y020876D01*
X044797Y020901D01*
X044791Y020927D01*
X044789Y020953D01*
X040104Y023237D02*
X040106Y023289D01*
X040112Y023341D01*
X040122Y023392D01*
X040135Y023442D01*
X040153Y023492D01*
X040174Y023539D01*
X040198Y023585D01*
X040227Y023629D01*
X040258Y023671D01*
X040292Y023710D01*
X040329Y023747D01*
X040369Y023780D01*
X040412Y023811D01*
X040456Y023838D01*
X040502Y023862D01*
X040551Y023882D01*
X040600Y023898D01*
X040651Y023911D01*
X040702Y023920D01*
X040754Y023925D01*
X040806Y023926D01*
X040858Y023923D01*
X040910Y023916D01*
X040961Y023905D01*
X041011Y023891D01*
X041060Y023872D01*
X041107Y023850D01*
X041152Y023825D01*
X041196Y023796D01*
X041237Y023764D01*
X041276Y023729D01*
X041311Y023691D01*
X041344Y023650D01*
X041374Y023608D01*
X041400Y023563D01*
X041423Y023516D01*
X041442Y023467D01*
X041458Y023417D01*
X041470Y023367D01*
X041478Y023315D01*
X041482Y023263D01*
X041482Y023211D01*
X041478Y023159D01*
X041470Y023107D01*
X041458Y023057D01*
X041442Y023007D01*
X041423Y022958D01*
X041400Y022911D01*
X041374Y022866D01*
X041344Y022824D01*
X041311Y022783D01*
X041276Y022745D01*
X041237Y022710D01*
X041196Y022678D01*
X041152Y022649D01*
X041107Y022624D01*
X041060Y022602D01*
X041011Y022583D01*
X040961Y022569D01*
X040910Y022558D01*
X040858Y022551D01*
X040806Y022548D01*
X040754Y022549D01*
X040702Y022554D01*
X040651Y022563D01*
X040600Y022576D01*
X040551Y022592D01*
X040502Y022612D01*
X040456Y022636D01*
X040412Y022663D01*
X040369Y022694D01*
X040329Y022727D01*
X040292Y022764D01*
X040258Y022803D01*
X040227Y022845D01*
X040198Y022889D01*
X040174Y022935D01*
X040153Y022982D01*
X040135Y023032D01*
X040122Y023082D01*
X040112Y023133D01*
X040106Y023185D01*
X040104Y023237D01*
X040104Y007685D02*
X040106Y007737D01*
X040112Y007789D01*
X040122Y007840D01*
X040135Y007890D01*
X040153Y007940D01*
X040174Y007987D01*
X040198Y008033D01*
X040227Y008077D01*
X040258Y008119D01*
X040292Y008158D01*
X040329Y008195D01*
X040369Y008228D01*
X040412Y008259D01*
X040456Y008286D01*
X040502Y008310D01*
X040551Y008330D01*
X040600Y008346D01*
X040651Y008359D01*
X040702Y008368D01*
X040754Y008373D01*
X040806Y008374D01*
X040858Y008371D01*
X040910Y008364D01*
X040961Y008353D01*
X041011Y008339D01*
X041060Y008320D01*
X041107Y008298D01*
X041152Y008273D01*
X041196Y008244D01*
X041237Y008212D01*
X041276Y008177D01*
X041311Y008139D01*
X041344Y008098D01*
X041374Y008056D01*
X041400Y008011D01*
X041423Y007964D01*
X041442Y007915D01*
X041458Y007865D01*
X041470Y007815D01*
X041478Y007763D01*
X041482Y007711D01*
X041482Y007659D01*
X041478Y007607D01*
X041470Y007555D01*
X041458Y007505D01*
X041442Y007455D01*
X041423Y007406D01*
X041400Y007359D01*
X041374Y007314D01*
X041344Y007272D01*
X041311Y007231D01*
X041276Y007193D01*
X041237Y007158D01*
X041196Y007126D01*
X041152Y007097D01*
X041107Y007072D01*
X041060Y007050D01*
X041011Y007031D01*
X040961Y007017D01*
X040910Y007006D01*
X040858Y006999D01*
X040806Y006996D01*
X040754Y006997D01*
X040702Y007002D01*
X040651Y007011D01*
X040600Y007024D01*
X040551Y007040D01*
X040502Y007060D01*
X040456Y007084D01*
X040412Y007111D01*
X040369Y007142D01*
X040329Y007175D01*
X040292Y007212D01*
X040258Y007251D01*
X040227Y007293D01*
X040198Y007337D01*
X040174Y007383D01*
X040153Y007430D01*
X040135Y007480D01*
X040122Y007530D01*
X040112Y007581D01*
X040106Y007633D01*
X040104Y007685D01*
X006836Y023630D02*
X006838Y023682D01*
X006844Y023734D01*
X006854Y023785D01*
X006867Y023835D01*
X006885Y023885D01*
X006906Y023932D01*
X006930Y023978D01*
X006959Y024022D01*
X006990Y024064D01*
X007024Y024103D01*
X007061Y024140D01*
X007101Y024173D01*
X007144Y024204D01*
X007188Y024231D01*
X007234Y024255D01*
X007283Y024275D01*
X007332Y024291D01*
X007383Y024304D01*
X007434Y024313D01*
X007486Y024318D01*
X007538Y024319D01*
X007590Y024316D01*
X007642Y024309D01*
X007693Y024298D01*
X007743Y024284D01*
X007792Y024265D01*
X007839Y024243D01*
X007884Y024218D01*
X007928Y024189D01*
X007969Y024157D01*
X008008Y024122D01*
X008043Y024084D01*
X008076Y024043D01*
X008106Y024001D01*
X008132Y023956D01*
X008155Y023909D01*
X008174Y023860D01*
X008190Y023810D01*
X008202Y023760D01*
X008210Y023708D01*
X008214Y023656D01*
X008214Y023604D01*
X008210Y023552D01*
X008202Y023500D01*
X008190Y023450D01*
X008174Y023400D01*
X008155Y023351D01*
X008132Y023304D01*
X008106Y023259D01*
X008076Y023217D01*
X008043Y023176D01*
X008008Y023138D01*
X007969Y023103D01*
X007928Y023071D01*
X007884Y023042D01*
X007839Y023017D01*
X007792Y022995D01*
X007743Y022976D01*
X007693Y022962D01*
X007642Y022951D01*
X007590Y022944D01*
X007538Y022941D01*
X007486Y022942D01*
X007434Y022947D01*
X007383Y022956D01*
X007332Y022969D01*
X007283Y022985D01*
X007234Y023005D01*
X007188Y023029D01*
X007144Y023056D01*
X007101Y023087D01*
X007061Y023120D01*
X007024Y023157D01*
X006990Y023196D01*
X006959Y023238D01*
X006930Y023282D01*
X006906Y023328D01*
X006885Y023375D01*
X006867Y023425D01*
X006854Y023475D01*
X006844Y023526D01*
X006838Y023578D01*
X006836Y023630D01*
D11*
X008923Y020481D02*
X009317Y020481D01*
X008923Y020481D02*
X008923Y020087D01*
X008923Y020481D02*
X010459Y020481D01*
X010065Y020481D01*
X010459Y020481D02*
X010459Y020087D01*
X010459Y020481D02*
X010459Y018118D01*
X010459Y018512D01*
X010039Y018394D02*
X010041Y018416D01*
X010046Y018436D01*
X010056Y018456D01*
X010068Y018474D01*
X010083Y018489D01*
X010101Y018501D01*
X010121Y018511D01*
X010141Y018516D01*
X010163Y018518D01*
X010185Y018516D01*
X010205Y018511D01*
X010225Y018501D01*
X010243Y018489D01*
X010258Y018474D01*
X010270Y018456D01*
X010280Y018436D01*
X010285Y018416D01*
X010287Y018394D01*
X010285Y018372D01*
X010280Y018352D01*
X010270Y018332D01*
X010258Y018314D01*
X010243Y018299D01*
X010225Y018287D01*
X010205Y018277D01*
X010185Y018272D01*
X010163Y018270D01*
X010141Y018272D01*
X010121Y018277D01*
X010101Y018287D01*
X010083Y018299D01*
X010068Y018314D01*
X010056Y018332D01*
X010046Y018352D01*
X010041Y018372D01*
X010039Y018394D01*
X010065Y018118D02*
X010459Y018118D01*
X008923Y018118D01*
X009317Y018118D01*
X008923Y018118D02*
X008923Y018512D01*
X008923Y018118D02*
X008923Y020481D01*
X020480Y024471D02*
X020480Y024819D01*
X020581Y024906D02*
X020480Y025085D01*
X020480Y025410D01*
X026448Y025524D02*
X026545Y025427D01*
X026642Y025427D01*
X026738Y025524D01*
X026738Y026007D01*
X026642Y026007D02*
X026835Y026007D01*
X027028Y025814D02*
X027028Y025524D01*
X027125Y025427D01*
X027415Y025427D01*
X027415Y025814D01*
X027608Y025717D02*
X027705Y025814D01*
X027995Y025814D01*
X028188Y025814D02*
X028382Y025814D01*
X028285Y025911D02*
X028285Y025524D01*
X028382Y025427D01*
X028575Y025427D02*
X028768Y025427D01*
X028672Y025427D02*
X028672Y025814D01*
X028575Y025814D01*
X028672Y026007D02*
X028672Y026104D01*
X028768Y026372D02*
X028768Y026952D01*
X028962Y026759D01*
X029155Y026952D01*
X029155Y026372D01*
X029348Y026372D02*
X029348Y026759D01*
X029542Y026952D01*
X029735Y026759D01*
X029735Y026372D01*
X029735Y026662D02*
X029348Y026662D01*
X029928Y026952D02*
X030315Y026952D01*
X030122Y026952D02*
X030122Y026372D01*
X030218Y026007D02*
X030122Y025911D01*
X030122Y025524D01*
X030218Y025427D01*
X030412Y025427D01*
X030509Y025524D01*
X030509Y025717D01*
X030315Y025717D01*
X030509Y025911D02*
X030412Y026007D01*
X030218Y026007D01*
X030605Y026372D02*
X030508Y026468D01*
X030508Y026855D01*
X030605Y026952D01*
X030798Y026952D01*
X030895Y026855D01*
X030895Y026468D01*
X030798Y026372D01*
X030605Y026372D01*
X031088Y026372D02*
X031088Y026952D01*
X031475Y026372D01*
X031475Y026952D01*
X032635Y026007D02*
X032732Y026007D01*
X032732Y025427D01*
X032828Y025427D02*
X032635Y025427D01*
X032442Y025427D02*
X032442Y025814D01*
X032055Y025814D02*
X032055Y025524D01*
X032152Y025427D01*
X032442Y025427D01*
X031862Y025427D02*
X031765Y025524D01*
X031765Y025911D01*
X031668Y025814D02*
X031862Y025814D01*
X031475Y025814D02*
X031282Y025814D01*
X031378Y025911D02*
X031378Y025524D01*
X031475Y025427D01*
X031089Y025524D02*
X031089Y025717D01*
X030992Y025814D01*
X030798Y025814D01*
X030702Y025717D01*
X030702Y025524D01*
X030798Y025427D01*
X030992Y025427D01*
X031089Y025524D01*
X029348Y025427D02*
X029348Y025717D01*
X029252Y025814D01*
X028962Y025814D01*
X028962Y025427D01*
X027995Y025524D02*
X027898Y025620D01*
X027705Y025620D01*
X027608Y025717D01*
X027608Y025427D02*
X027898Y025427D01*
X027995Y025524D01*
X027802Y026372D02*
X027802Y026952D01*
X027995Y026952D02*
X027608Y026952D01*
X027415Y026952D02*
X027415Y026468D01*
X027318Y026372D01*
X027125Y026372D01*
X027028Y026468D01*
X027028Y026952D01*
X026835Y026759D02*
X026835Y026372D01*
X026835Y026662D02*
X026448Y026662D01*
X026448Y026759D02*
X026642Y026952D01*
X026835Y026759D01*
X026448Y026759D02*
X026448Y026372D01*
X028188Y026468D02*
X028285Y026372D01*
X028478Y026372D01*
X028575Y026468D01*
X028575Y026855D01*
X028478Y026952D01*
X028285Y026952D01*
X028188Y026855D01*
X028188Y026468D01*
X033022Y025524D02*
X033118Y025620D01*
X033409Y025620D01*
X033409Y025717D02*
X033409Y025427D01*
X033118Y025427D01*
X033022Y025524D01*
X033118Y025814D02*
X033312Y025814D01*
X033409Y025717D01*
X033547Y025219D02*
X033922Y025219D01*
X033672Y024969D02*
X033674Y024991D01*
X033680Y025012D01*
X033689Y025031D01*
X033701Y025049D01*
X033717Y025065D01*
X033734Y025077D01*
X033754Y025086D01*
X033775Y025092D01*
X033797Y025094D01*
X033819Y025092D01*
X033840Y025086D01*
X033859Y025077D01*
X033877Y025065D01*
X033893Y025049D01*
X033905Y025031D01*
X033914Y025012D01*
X033920Y024991D01*
X033922Y024969D01*
X033920Y024947D01*
X033914Y024926D01*
X033905Y024907D01*
X033893Y024889D01*
X033877Y024873D01*
X033860Y024861D01*
X033840Y024852D01*
X033819Y024846D01*
X033797Y024844D01*
X033775Y024846D01*
X033754Y024852D01*
X033734Y024861D01*
X033717Y024873D01*
X033701Y024889D01*
X033689Y024906D01*
X033680Y024926D01*
X033674Y024947D01*
X033672Y024969D01*
X033547Y024844D02*
X033547Y025219D01*
X035047Y025219D01*
X034672Y025219D01*
X035047Y025219D02*
X035047Y024844D01*
X035047Y025219D02*
X035047Y021844D01*
X034672Y021844D01*
X035047Y021844D02*
X035047Y022219D01*
X035047Y021844D02*
X033547Y021844D01*
X033922Y021844D01*
X033547Y021844D02*
X033547Y022219D01*
X033547Y021844D02*
X033547Y025219D01*
X043746Y021603D02*
X046502Y021603D01*
X046502Y021996D01*
X046502Y021603D02*
X047289Y021603D01*
X047289Y018571D01*
X046502Y018571D01*
X046502Y018177D01*
X046502Y018571D02*
X043746Y018571D01*
X043746Y021603D01*
X037427Y018040D02*
X037427Y011740D01*
X031128Y011740D01*
X031128Y018040D01*
X037427Y018040D01*
X040596Y015756D02*
X046502Y015756D01*
X046502Y014575D01*
X046305Y014378D01*
X045321Y014378D01*
X045321Y010835D01*
X045911Y010835D01*
X045911Y010244D01*
X040596Y010244D01*
X040596Y015756D01*
X047092Y014378D02*
X047092Y010835D01*
X047447Y010835D02*
X047447Y014378D01*
X048943Y014378D02*
X048943Y010835D01*
X026915Y012705D02*
X026600Y012705D01*
X026915Y012705D02*
X026915Y013099D01*
X026915Y012705D02*
X021403Y012705D01*
X021403Y018217D01*
X021403Y017823D01*
X021627Y017744D02*
X021629Y017775D01*
X021635Y017806D01*
X021644Y017836D01*
X021658Y017864D01*
X021675Y017890D01*
X021694Y017914D01*
X021717Y017936D01*
X021743Y017954D01*
X021770Y017969D01*
X021799Y017981D01*
X021829Y017989D01*
X021860Y017993D01*
X021892Y017993D01*
X021923Y017989D01*
X021953Y017981D01*
X021982Y017969D01*
X022009Y017954D01*
X022035Y017936D01*
X022058Y017914D01*
X022077Y017890D01*
X022094Y017864D01*
X022108Y017836D01*
X022117Y017806D01*
X022123Y017775D01*
X022125Y017744D01*
X022123Y017713D01*
X022117Y017682D01*
X022108Y017652D01*
X022094Y017624D01*
X022077Y017598D01*
X022058Y017574D01*
X022035Y017552D01*
X022009Y017534D01*
X021982Y017519D01*
X021953Y017507D01*
X021923Y017499D01*
X021892Y017495D01*
X021860Y017495D01*
X021829Y017499D01*
X021799Y017507D01*
X021770Y017519D01*
X021743Y017534D01*
X021717Y017552D01*
X021694Y017574D01*
X021675Y017598D01*
X021658Y017624D01*
X021644Y017652D01*
X021635Y017682D01*
X021629Y017713D01*
X021627Y017744D01*
X021797Y018217D02*
X021403Y018217D01*
X026915Y018217D01*
X026915Y017823D01*
X026915Y018217D02*
X026522Y018217D01*
X026915Y018217D02*
X026915Y012705D01*
X021876Y012705D02*
X021403Y012705D01*
X021403Y013099D01*
X021246Y010185D02*
X015262Y010185D01*
X011955Y010855D02*
X011955Y011248D01*
X011955Y010855D02*
X011561Y010855D01*
X011955Y010855D02*
X009396Y010855D01*
X009396Y011248D01*
X009528Y011130D02*
X009530Y011154D01*
X009536Y011176D01*
X009545Y011198D01*
X009558Y011218D01*
X009574Y011235D01*
X009593Y011250D01*
X009614Y011261D01*
X009636Y011269D01*
X009659Y011273D01*
X009683Y011273D01*
X009706Y011269D01*
X009728Y011261D01*
X009749Y011250D01*
X009768Y011235D01*
X009784Y011218D01*
X009797Y011198D01*
X009806Y011176D01*
X009812Y011154D01*
X009814Y011130D01*
X009812Y011106D01*
X009806Y011084D01*
X009797Y011062D01*
X009784Y011042D01*
X009768Y011025D01*
X009749Y011010D01*
X009728Y010999D01*
X009706Y010991D01*
X009683Y010987D01*
X009659Y010987D01*
X009636Y010991D01*
X009614Y010999D01*
X009593Y011010D01*
X009574Y011025D01*
X009558Y011042D01*
X009545Y011062D01*
X009536Y011084D01*
X009530Y011106D01*
X009528Y011130D01*
X009396Y010855D02*
X009789Y010855D01*
X009396Y010855D02*
X009396Y012587D01*
X009789Y012587D01*
X009396Y012587D02*
X009396Y012193D01*
X009396Y012587D02*
X011955Y012587D01*
X011955Y012193D01*
X011955Y012587D02*
X011561Y012587D01*
X011955Y012587D02*
X011955Y010855D01*
X005577Y011445D02*
X005577Y011839D01*
X005183Y011839D01*
X005577Y011839D02*
X005577Y007272D01*
X005183Y007272D01*
X005577Y007272D02*
X005577Y007666D01*
X005577Y007272D02*
X002191Y007272D01*
X002585Y007272D01*
X002191Y007272D02*
X002191Y007666D01*
X002191Y007272D02*
X002191Y011839D01*
X002585Y011839D01*
X002191Y011839D02*
X002191Y011445D01*
X002191Y011839D02*
X005577Y011839D01*
X021246Y010185D02*
X021385Y010040D01*
X021517Y009887D01*
X021642Y009729D01*
X021759Y009565D01*
X021868Y009396D01*
X021968Y009221D01*
X022061Y009042D01*
X022144Y008859D01*
X022219Y008672D01*
X022285Y008482D01*
X022342Y008288D01*
X022389Y008093D01*
X022427Y007895D01*
X022456Y007695D01*
X022475Y007495D01*
X022485Y007294D01*
X022485Y007092D01*
X022475Y006891D01*
X022456Y006691D01*
X022427Y006491D01*
X022389Y006293D01*
X022342Y006098D01*
X022285Y005904D01*
X022219Y005714D01*
X022144Y005527D01*
X022061Y005344D01*
X021968Y005165D01*
X021868Y004990D01*
X021759Y004821D01*
X021642Y004657D01*
X021517Y004499D01*
X021385Y004346D01*
X021246Y004201D01*
X015262Y004201D01*
X015123Y004346D01*
X014991Y004499D01*
X014866Y004657D01*
X014749Y004821D01*
X014640Y004990D01*
X014540Y005165D01*
X014447Y005344D01*
X014364Y005527D01*
X014289Y005714D01*
X014223Y005904D01*
X014166Y006098D01*
X014119Y006293D01*
X014081Y006491D01*
X014052Y006691D01*
X014033Y006891D01*
X014023Y007092D01*
X014023Y007294D01*
X014033Y007495D01*
X014052Y007695D01*
X014081Y007895D01*
X014119Y008093D01*
X014166Y008288D01*
X014223Y008482D01*
X014289Y008672D01*
X014364Y008859D01*
X014447Y009042D01*
X014540Y009221D01*
X014640Y009396D01*
X014749Y009565D01*
X014866Y009729D01*
X014991Y009887D01*
X015123Y010040D01*
X015262Y010185D01*
X025616Y008807D02*
X025616Y007626D01*
X025616Y008020D01*
X025710Y007862D02*
X025712Y007885D01*
X025718Y007908D01*
X025727Y007930D01*
X025740Y007949D01*
X025756Y007966D01*
X025774Y007981D01*
X025795Y007992D01*
X025817Y008000D01*
X025840Y008004D01*
X025864Y008004D01*
X025887Y008000D01*
X025909Y007992D01*
X025930Y007981D01*
X025948Y007966D01*
X025964Y007949D01*
X025977Y007930D01*
X025986Y007908D01*
X025992Y007885D01*
X025994Y007862D01*
X025992Y007839D01*
X025986Y007816D01*
X025977Y007794D01*
X025964Y007775D01*
X025948Y007758D01*
X025930Y007743D01*
X025909Y007732D01*
X025887Y007724D01*
X025864Y007720D01*
X025840Y007720D01*
X025817Y007724D01*
X025795Y007732D01*
X025774Y007743D01*
X025756Y007758D01*
X025740Y007775D01*
X025727Y007794D01*
X025718Y007816D01*
X025712Y007839D01*
X025710Y007862D01*
X025616Y007626D02*
X026010Y007626D01*
X026403Y007626D02*
X026797Y007626D01*
X026797Y008020D01*
X026797Y007626D02*
X025616Y007626D01*
X025616Y008414D02*
X025616Y008807D01*
X026010Y008807D01*
X026403Y008807D02*
X026797Y008807D01*
X026797Y008414D01*
X026797Y008807D02*
X026797Y007626D01*
X026797Y008807D02*
X025616Y008807D01*
D12*
X025031Y009246D02*
X024272Y009246D01*
X024272Y009865D02*
X025031Y009865D01*
X030669Y010230D02*
X031429Y010230D01*
X031429Y010849D02*
X030669Y010849D01*
X026733Y005211D02*
X026733Y004451D01*
X026113Y004451D02*
X026113Y005211D01*
X025749Y005211D02*
X025749Y004451D01*
X025129Y004451D02*
X025129Y005211D01*
X018687Y011042D02*
X018687Y012202D01*
X017427Y012192D02*
X017427Y011042D01*
X013024Y007798D02*
X012264Y007798D01*
X012264Y007179D02*
X013024Y007179D01*
X011207Y005706D02*
X011207Y004546D01*
X009947Y004546D02*
X009947Y005696D01*
X009901Y007179D02*
X010661Y007179D01*
X010661Y007798D02*
X009901Y007798D01*
X007613Y008729D02*
X006453Y008729D01*
X006453Y009989D02*
X007603Y009989D01*
X006620Y005737D02*
X005872Y005737D01*
X005872Y005107D02*
X006620Y005107D01*
X006876Y005264D02*
X006852Y005268D01*
X006830Y005274D01*
X006808Y005285D01*
X006788Y005298D01*
X006771Y005314D01*
X006756Y005332D01*
X006744Y005353D01*
X006735Y005375D01*
X006730Y005398D01*
X006728Y005422D01*
X006730Y005446D01*
X006735Y005469D01*
X006744Y005491D01*
X006756Y005512D01*
X006771Y005530D01*
X006788Y005546D01*
X006808Y005559D01*
X006830Y005570D01*
X006852Y005576D01*
X006876Y005580D01*
X006768Y005638D02*
X006770Y005650D01*
X006775Y005661D01*
X006784Y005670D01*
X006795Y005675D01*
X006807Y005677D01*
X006819Y005675D01*
X006830Y005670D01*
X006839Y005661D01*
X006844Y005650D01*
X006846Y005638D01*
X006844Y005626D01*
X006839Y005615D01*
X006830Y005606D01*
X006819Y005601D01*
X006807Y005599D01*
X006795Y005601D01*
X006784Y005606D01*
X006775Y005615D01*
X006770Y005626D01*
X006768Y005638D01*
X010492Y015643D02*
X011252Y015643D01*
X011252Y016263D02*
X010492Y016263D01*
X008004Y020466D02*
X007244Y020466D01*
X007244Y021086D02*
X008004Y021086D01*
X010394Y021381D02*
X011153Y021381D01*
X011153Y020761D02*
X010394Y020761D01*
X004981Y021872D02*
X004981Y022632D01*
X004361Y022632D02*
X004361Y021872D01*
X003997Y021872D02*
X003997Y022632D01*
X003377Y022632D02*
X003377Y021872D01*
X022008Y022139D02*
X022768Y022139D01*
X022768Y022759D02*
X022008Y022759D01*
X024370Y022759D02*
X025130Y022759D01*
X025130Y022139D02*
X024370Y022139D01*
X026443Y022430D02*
X026443Y022941D01*
X026699Y022941D01*
X026784Y022856D01*
X026784Y022686D01*
X026699Y022600D01*
X026443Y022600D01*
X026951Y022515D02*
X027036Y022430D01*
X027206Y022430D01*
X027292Y022515D01*
X027458Y022430D02*
X027714Y022430D01*
X027799Y022515D01*
X027799Y022600D01*
X027714Y022686D01*
X027458Y022686D01*
X027292Y022856D02*
X027206Y022941D01*
X027036Y022941D01*
X026951Y022856D01*
X026951Y022515D01*
X027458Y022430D02*
X027458Y022941D01*
X027714Y022941D01*
X027799Y022856D01*
X027799Y022771D01*
X027714Y022686D01*
X028473Y022771D02*
X028473Y022430D01*
X028473Y022600D02*
X028644Y022771D01*
X028729Y022771D01*
X028896Y022771D02*
X029067Y022941D01*
X029067Y022430D01*
X029237Y022430D02*
X028896Y022430D01*
X029066Y023257D02*
X028981Y023342D01*
X029066Y023257D02*
X029237Y023257D01*
X029322Y023342D01*
X029322Y023427D01*
X029237Y023512D01*
X029151Y023512D01*
X029237Y023512D02*
X029322Y023598D01*
X029322Y023683D01*
X029237Y023768D01*
X029066Y023768D01*
X028981Y023683D01*
X028814Y023598D02*
X028644Y023257D01*
X028473Y023598D01*
X028473Y024083D02*
X028558Y024083D01*
X028558Y024169D01*
X028473Y024169D01*
X028473Y024083D01*
X028221Y024083D02*
X028221Y024595D01*
X027966Y024339D01*
X028307Y024339D01*
X028727Y024169D02*
X029068Y024510D01*
X029068Y024169D01*
X028983Y024083D01*
X028812Y024083D01*
X028727Y024169D01*
X028727Y024510D01*
X028812Y024595D01*
X028983Y024595D01*
X029068Y024510D01*
X029234Y024424D02*
X029405Y024595D01*
X029405Y024083D01*
X029234Y024083D02*
X029576Y024083D01*
X029742Y024083D02*
X029827Y024083D01*
X029827Y024169D01*
X029742Y024169D01*
X029742Y024083D01*
X029996Y024083D02*
X030337Y024083D01*
X030166Y024083D02*
X030166Y024595D01*
X029996Y024424D01*
X030503Y024339D02*
X030503Y024169D01*
X030589Y024083D01*
X030759Y024083D01*
X030844Y024169D01*
X030844Y024254D01*
X030759Y024339D01*
X030503Y024339D01*
X030674Y024510D01*
X030844Y024595D01*
X027799Y024083D02*
X027458Y024083D01*
X027629Y024083D02*
X027629Y024595D01*
X027458Y024424D01*
X027292Y024510D02*
X026951Y024169D01*
X027036Y024083D01*
X027206Y024083D01*
X027292Y024169D01*
X027292Y024510D01*
X027206Y024595D01*
X027036Y024595D01*
X026951Y024510D01*
X026951Y024169D01*
X026784Y024083D02*
X026443Y024083D01*
X026784Y024424D01*
X026784Y024510D01*
X026699Y024595D01*
X026528Y024595D01*
X026443Y024510D01*
X026443Y023768D02*
X026443Y023257D01*
X026443Y023512D02*
X026784Y023512D01*
X026784Y023257D02*
X026784Y023768D01*
X026951Y023768D02*
X026951Y023257D01*
X027121Y023427D01*
X027292Y023257D01*
X027292Y023768D01*
X035537Y021426D02*
X035561Y021422D01*
X035583Y021416D01*
X035605Y021405D01*
X035625Y021392D01*
X035642Y021376D01*
X035657Y021358D01*
X035669Y021337D01*
X035678Y021315D01*
X035683Y021292D01*
X035685Y021268D01*
X035683Y021244D01*
X035678Y021221D01*
X035669Y021199D01*
X035657Y021178D01*
X035642Y021160D01*
X035625Y021144D01*
X035605Y021131D01*
X035583Y021120D01*
X035561Y021114D01*
X035537Y021110D01*
X035567Y021051D02*
X035569Y021063D01*
X035574Y021074D01*
X035583Y021083D01*
X035594Y021088D01*
X035606Y021090D01*
X035618Y021088D01*
X035629Y021083D01*
X035638Y021074D01*
X035643Y021063D01*
X035645Y021051D01*
X035643Y021039D01*
X035638Y021028D01*
X035629Y021019D01*
X035618Y021014D01*
X035606Y021012D01*
X035594Y021014D01*
X035583Y021019D01*
X035574Y021028D01*
X035569Y021039D01*
X035567Y021051D01*
X035793Y020953D02*
X036541Y020953D01*
X036541Y020697D02*
X035793Y020697D01*
X035537Y020540D02*
X035561Y020536D01*
X035583Y020530D01*
X035605Y020519D01*
X035625Y020506D01*
X035642Y020490D01*
X035657Y020472D01*
X035669Y020451D01*
X035678Y020429D01*
X035683Y020406D01*
X035685Y020382D01*
X035683Y020358D01*
X035678Y020335D01*
X035669Y020313D01*
X035657Y020292D01*
X035642Y020274D01*
X035625Y020258D01*
X035605Y020245D01*
X035583Y020234D01*
X035561Y020228D01*
X035537Y020224D01*
X035567Y020166D02*
X035569Y020178D01*
X035574Y020189D01*
X035583Y020198D01*
X035594Y020203D01*
X035606Y020205D01*
X035618Y020203D01*
X035629Y020198D01*
X035638Y020189D01*
X035643Y020178D01*
X035645Y020166D01*
X035643Y020154D01*
X035638Y020143D01*
X035629Y020134D01*
X035618Y020129D01*
X035606Y020127D01*
X035594Y020129D01*
X035583Y020134D01*
X035574Y020143D01*
X035569Y020154D01*
X035567Y020166D01*
X035793Y020067D02*
X036541Y020067D01*
X036541Y021583D02*
X035793Y021583D01*
X037264Y022336D02*
X038024Y022336D01*
X038024Y022956D02*
X037264Y022956D01*
X037264Y023320D02*
X038024Y023320D01*
X038024Y023940D02*
X037264Y023940D01*
X037264Y024206D02*
X038024Y024206D01*
X038024Y024826D02*
X037264Y024826D01*
X037264Y025092D02*
X038024Y025092D01*
X038024Y025712D02*
X037264Y025712D01*
X041960Y021353D02*
X041960Y020593D01*
X042579Y020593D02*
X042579Y021353D01*
X042579Y019286D02*
X042579Y018526D01*
X041960Y018526D02*
X041960Y019286D01*
D13*
X047139Y010574D02*
X047102Y010537D01*
X047102Y010427D01*
X047322Y010427D01*
X047322Y010537D01*
X047286Y010574D01*
X047139Y010574D01*
X047102Y010353D02*
X047102Y010206D01*
X047322Y010206D01*
X047322Y010353D01*
X047212Y010279D02*
X047212Y010206D01*
X047212Y010132D02*
X047212Y009985D01*
X047249Y009911D02*
X047286Y009911D01*
X047322Y009874D01*
X047322Y009801D01*
X047286Y009764D01*
X047286Y009690D02*
X047102Y009690D01*
X047139Y009764D02*
X047176Y009764D01*
X047212Y009801D01*
X047212Y009874D01*
X047249Y009911D01*
X047322Y009985D02*
X047102Y009985D01*
X047139Y009911D02*
X047102Y009874D01*
X047102Y009801D01*
X047139Y009764D01*
X047286Y009690D02*
X047322Y009653D01*
X047322Y009580D01*
X047286Y009543D01*
X047102Y009543D01*
X047139Y009469D02*
X047212Y009469D01*
X047249Y009432D01*
X047249Y009322D01*
X047322Y009322D02*
X047102Y009322D01*
X047102Y009432D01*
X047139Y009469D01*
X047457Y009580D02*
X047493Y009543D01*
X047640Y009543D01*
X047677Y009580D01*
X047677Y009653D01*
X047640Y009690D01*
X047493Y009690D01*
X047457Y009653D01*
X047457Y009580D01*
X047493Y009764D02*
X047640Y009764D01*
X047677Y009801D01*
X047677Y009874D01*
X047640Y009911D01*
X047603Y009985D02*
X047457Y010132D01*
X047457Y010206D02*
X047677Y010206D01*
X047677Y010353D01*
X047677Y010427D02*
X047677Y010537D01*
X047640Y010574D01*
X047493Y010574D01*
X047457Y010537D01*
X047457Y010427D01*
X047677Y010427D01*
X047567Y010279D02*
X047567Y010206D01*
X047457Y010206D02*
X047457Y010353D01*
X047322Y010132D02*
X047102Y010132D01*
X047457Y009985D02*
X047677Y009985D01*
X047567Y010022D02*
X047677Y010132D01*
X047493Y009911D02*
X047457Y009874D01*
X047457Y009801D01*
X047493Y009764D01*
X047677Y009469D02*
X047677Y009322D01*
X047457Y009322D01*
X047493Y009027D02*
X047457Y008990D01*
X047457Y008880D01*
X047677Y008880D01*
X047677Y008990D01*
X047640Y009027D01*
X047493Y009027D01*
X047322Y008990D02*
X047322Y008880D01*
X047102Y008880D01*
X047102Y008990D01*
X047139Y009027D01*
X047286Y009027D01*
X047322Y008990D01*
X047322Y008806D02*
X047249Y008733D01*
X047249Y008769D02*
X047249Y008659D01*
X047322Y008659D02*
X047102Y008659D01*
X047102Y008769D01*
X047139Y008806D01*
X047212Y008806D01*
X047249Y008769D01*
X047212Y008585D02*
X047212Y008438D01*
X047176Y008438D02*
X047102Y008512D01*
X047176Y008585D01*
X047322Y008585D01*
X047322Y008438D02*
X047176Y008438D01*
X047139Y008364D02*
X047102Y008327D01*
X047102Y008254D01*
X047139Y008217D01*
X047286Y008217D01*
X047322Y008254D01*
X047322Y008327D01*
X047286Y008364D01*
X047457Y008327D02*
X047457Y008254D01*
X047493Y008217D01*
X047640Y008217D01*
X047677Y008254D01*
X047677Y008327D01*
X047640Y008364D01*
X047677Y008438D02*
X047530Y008438D01*
X047457Y008512D01*
X047530Y008585D01*
X047677Y008585D01*
X047677Y008659D02*
X047457Y008659D01*
X047457Y008769D01*
X047493Y008806D01*
X047567Y008806D01*
X047603Y008769D01*
X047603Y008659D01*
X047603Y008733D02*
X047677Y008806D01*
X047567Y008585D02*
X047567Y008438D01*
X047493Y008364D02*
X047457Y008327D01*
X048953Y008917D02*
X048953Y008990D01*
X048989Y009027D01*
X049026Y009101D02*
X048953Y009175D01*
X049026Y009248D01*
X049173Y009248D01*
X049173Y009322D02*
X048953Y009322D01*
X048953Y009432D01*
X048989Y009469D01*
X049063Y009469D01*
X049099Y009432D01*
X049099Y009322D01*
X049099Y009396D02*
X049173Y009469D01*
X049173Y009543D02*
X049173Y009653D01*
X049136Y009690D01*
X048989Y009690D01*
X048953Y009653D01*
X048953Y009543D01*
X049173Y009543D01*
X049063Y009248D02*
X049063Y009101D01*
X049026Y009101D02*
X049173Y009101D01*
X049136Y009027D02*
X049173Y008990D01*
X049173Y008917D01*
X049136Y008880D01*
X048989Y008880D01*
X048953Y008917D01*
X048989Y009985D02*
X049136Y009985D01*
X049173Y010022D01*
X049173Y010095D01*
X049136Y010132D01*
X048989Y010132D01*
X048953Y010095D01*
X048953Y010022D01*
X048989Y009985D01*
X048953Y010206D02*
X049136Y010206D01*
X049173Y010243D01*
X049173Y010316D01*
X049136Y010353D01*
X048953Y010353D01*
X048953Y010427D02*
X048953Y010574D01*
X048953Y010500D02*
X049173Y010500D01*
D14*
X041370Y009580D02*
X040615Y009580D01*
X040615Y008940D02*
X041370Y008940D01*
X039145Y008853D02*
X039145Y008098D01*
X038505Y008098D02*
X038505Y008853D01*
X038160Y008848D02*
X038160Y008093D01*
X037520Y008093D02*
X037520Y008848D01*
X037176Y008853D02*
X037176Y008098D01*
X036536Y008098D02*
X036536Y008853D01*
X036192Y008848D02*
X036192Y008093D01*
X035552Y008093D02*
X035552Y008848D01*
X035208Y008853D02*
X035208Y008098D01*
X034568Y008098D02*
X034568Y008853D01*
X034223Y008848D02*
X034223Y008093D01*
X033583Y008093D02*
X033583Y008848D01*
X033816Y009996D02*
X033816Y010296D01*
X034956Y010296D01*
X034956Y009996D01*
X033816Y009996D01*
X035784Y009996D02*
X035784Y010296D01*
X036924Y010296D01*
X036924Y009996D01*
X035784Y009996D01*
X037753Y009996D02*
X037753Y010296D01*
X038893Y010296D01*
X038893Y009996D01*
X037753Y009996D01*
X039194Y010750D02*
X039194Y011505D01*
X039834Y011505D02*
X039834Y010750D01*
X039114Y006717D02*
X038614Y006717D01*
X038364Y006467D01*
X038364Y004967D01*
X038614Y004717D01*
X039114Y004717D01*
X039364Y004967D01*
X039364Y006467D01*
X039114Y006717D01*
X038364Y006467D02*
X038114Y006717D01*
X037614Y006717D01*
X037364Y006467D01*
X037364Y004967D01*
X037614Y004717D01*
X038114Y004717D01*
X038364Y004967D01*
X037364Y004967D02*
X037114Y004717D01*
X036614Y004717D01*
X036364Y004967D01*
X036364Y006467D01*
X036614Y006717D01*
X037114Y006717D01*
X037364Y006467D01*
X036364Y006467D02*
X036114Y006717D01*
X035614Y006717D01*
X035364Y006467D01*
X035364Y004967D01*
X035614Y004717D01*
X036114Y004717D01*
X036364Y004967D01*
X035364Y004967D02*
X035114Y004717D01*
X034614Y004717D01*
X034364Y004967D01*
X034364Y006467D01*
X034614Y006717D01*
X035114Y006717D01*
X035364Y006467D01*
X034364Y006467D02*
X034114Y006717D01*
X033614Y006717D01*
X033364Y006467D01*
X033364Y004967D01*
X033614Y004717D01*
X034114Y004717D01*
X034364Y004967D01*
X032255Y005243D02*
X032255Y005998D01*
X031615Y005998D02*
X031615Y005243D01*
X026231Y006307D02*
X026081Y006307D01*
X026081Y006107D01*
X025981Y006107D02*
X025981Y006507D01*
X025881Y006507D01*
X025881Y006107D01*
X025981Y006107D01*
X025781Y006107D02*
X025781Y006307D01*
X025631Y006307D01*
X025781Y006307D02*
X025781Y006507D01*
X025931Y005907D02*
X025970Y005909D01*
X026009Y005915D01*
X026047Y005924D01*
X026084Y005937D01*
X026120Y005954D01*
X026153Y005974D01*
X026185Y005998D01*
X026214Y006024D01*
X026081Y006307D02*
X026081Y006507D01*
X025931Y006707D02*
X025892Y006705D01*
X025853Y006699D01*
X025815Y006690D01*
X025778Y006677D01*
X025742Y006660D01*
X025709Y006640D01*
X025677Y006616D01*
X025648Y006590D01*
X025931Y006707D02*
X025970Y006705D01*
X026009Y006699D01*
X026047Y006690D01*
X026084Y006677D01*
X026120Y006660D01*
X026153Y006640D01*
X026185Y006616D01*
X026214Y006590D01*
X025931Y005907D02*
X025892Y005909D01*
X025853Y005915D01*
X025815Y005924D01*
X025778Y005937D01*
X025742Y005954D01*
X025709Y005974D01*
X025677Y005998D01*
X025648Y006024D01*
X025531Y006307D02*
X025533Y006347D01*
X025539Y006386D01*
X025549Y006425D01*
X025562Y006462D01*
X025580Y006498D01*
X025601Y006532D01*
X025625Y006564D01*
X025652Y006593D01*
X025682Y006620D01*
X025714Y006643D01*
X025749Y006663D01*
X025785Y006679D01*
X025823Y006692D01*
X025862Y006701D01*
X025901Y006706D01*
X025941Y006707D01*
X025981Y006704D01*
X026020Y006697D01*
X026058Y006686D01*
X026096Y006672D01*
X026131Y006653D01*
X026164Y006632D01*
X026196Y006607D01*
X026224Y006579D01*
X026250Y006549D01*
X026272Y006516D01*
X026291Y006481D01*
X026307Y006444D01*
X026319Y006406D01*
X026327Y006367D01*
X026331Y006327D01*
X026331Y006287D01*
X026327Y006247D01*
X026319Y006208D01*
X026307Y006170D01*
X026291Y006133D01*
X026272Y006098D01*
X026250Y006065D01*
X026224Y006035D01*
X026196Y006007D01*
X026164Y005982D01*
X026131Y005961D01*
X026096Y005942D01*
X026058Y005928D01*
X026020Y005917D01*
X025981Y005910D01*
X025941Y005907D01*
X025901Y005908D01*
X025862Y005913D01*
X025823Y005922D01*
X025785Y005935D01*
X025749Y005951D01*
X025714Y005971D01*
X025682Y005994D01*
X025652Y006021D01*
X025625Y006050D01*
X025601Y006082D01*
X025580Y006116D01*
X025562Y006152D01*
X025549Y006189D01*
X025539Y006228D01*
X025533Y006267D01*
X025531Y006307D01*
X024070Y005323D02*
X023720Y005323D01*
X022470Y005323D02*
X022472Y005386D01*
X022478Y005448D01*
X022488Y005510D01*
X022501Y005572D01*
X022519Y005632D01*
X022540Y005691D01*
X022565Y005749D01*
X022594Y005805D01*
X022626Y005859D01*
X022661Y005911D01*
X022699Y005960D01*
X022741Y006008D01*
X022785Y006052D01*
X022833Y006094D01*
X022882Y006132D01*
X022934Y006167D01*
X022988Y006199D01*
X023044Y006228D01*
X023102Y006253D01*
X023161Y006274D01*
X023221Y006292D01*
X023283Y006305D01*
X023345Y006315D01*
X023407Y006321D01*
X023470Y006323D01*
X023533Y006321D01*
X023595Y006315D01*
X023657Y006305D01*
X023719Y006292D01*
X023779Y006274D01*
X023838Y006253D01*
X023896Y006228D01*
X023952Y006199D01*
X024006Y006167D01*
X024058Y006132D01*
X024107Y006094D01*
X024155Y006052D01*
X024199Y006008D01*
X024241Y005960D01*
X024279Y005911D01*
X024314Y005859D01*
X024346Y005805D01*
X024375Y005749D01*
X024400Y005691D01*
X024421Y005632D01*
X024439Y005572D01*
X024452Y005510D01*
X024462Y005448D01*
X024468Y005386D01*
X024470Y005323D01*
X024468Y005260D01*
X024462Y005198D01*
X024452Y005136D01*
X024439Y005074D01*
X024421Y005014D01*
X024400Y004955D01*
X024375Y004897D01*
X024346Y004841D01*
X024314Y004787D01*
X024279Y004735D01*
X024241Y004686D01*
X024199Y004638D01*
X024155Y004594D01*
X024107Y004552D01*
X024058Y004514D01*
X024006Y004479D01*
X023952Y004447D01*
X023896Y004418D01*
X023838Y004393D01*
X023779Y004372D01*
X023719Y004354D01*
X023657Y004341D01*
X023595Y004331D01*
X023533Y004325D01*
X023470Y004323D01*
X023407Y004325D01*
X023345Y004331D01*
X023283Y004341D01*
X023221Y004354D01*
X023161Y004372D01*
X023102Y004393D01*
X023044Y004418D01*
X022988Y004447D01*
X022934Y004479D01*
X022882Y004514D01*
X022833Y004552D01*
X022785Y004594D01*
X022741Y004638D01*
X022699Y004686D01*
X022661Y004735D01*
X022626Y004787D01*
X022594Y004841D01*
X022565Y004897D01*
X022540Y004955D01*
X022519Y005014D01*
X022501Y005074D01*
X022488Y005136D01*
X022478Y005198D01*
X022472Y005260D01*
X022470Y005323D01*
X022870Y005323D02*
X023170Y005323D01*
X023170Y005723D01*
X023370Y005723D01*
X023370Y004923D01*
X023170Y004923D01*
X023170Y005323D01*
X023070Y005923D02*
X023070Y006123D01*
X022970Y006023D02*
X023170Y006023D01*
X024430Y007704D02*
X024430Y008459D01*
X025070Y008459D02*
X025070Y007704D01*
X025753Y010121D02*
X026508Y010121D01*
X026508Y010761D02*
X025753Y010761D01*
X016987Y012022D02*
X016787Y012022D01*
X016887Y012122D02*
X016887Y011922D01*
X016587Y011922D02*
X016187Y011922D01*
X015787Y011922D01*
X015787Y011722D01*
X016587Y011722D01*
X016587Y011922D01*
X016187Y011922D02*
X016187Y012222D01*
X015187Y011622D02*
X015189Y011685D01*
X015195Y011747D01*
X015205Y011809D01*
X015218Y011871D01*
X015236Y011931D01*
X015257Y011990D01*
X015282Y012048D01*
X015311Y012104D01*
X015343Y012158D01*
X015378Y012210D01*
X015416Y012259D01*
X015458Y012307D01*
X015502Y012351D01*
X015550Y012393D01*
X015599Y012431D01*
X015651Y012466D01*
X015705Y012498D01*
X015761Y012527D01*
X015819Y012552D01*
X015878Y012573D01*
X015938Y012591D01*
X016000Y012604D01*
X016062Y012614D01*
X016124Y012620D01*
X016187Y012622D01*
X016250Y012620D01*
X016312Y012614D01*
X016374Y012604D01*
X016436Y012591D01*
X016496Y012573D01*
X016555Y012552D01*
X016613Y012527D01*
X016669Y012498D01*
X016723Y012466D01*
X016775Y012431D01*
X016824Y012393D01*
X016872Y012351D01*
X016916Y012307D01*
X016958Y012259D01*
X016996Y012210D01*
X017031Y012158D01*
X017063Y012104D01*
X017092Y012048D01*
X017117Y011990D01*
X017138Y011931D01*
X017156Y011871D01*
X017169Y011809D01*
X017179Y011747D01*
X017185Y011685D01*
X017187Y011622D01*
X017185Y011559D01*
X017179Y011497D01*
X017169Y011435D01*
X017156Y011373D01*
X017138Y011313D01*
X017117Y011254D01*
X017092Y011196D01*
X017063Y011140D01*
X017031Y011086D01*
X016996Y011034D01*
X016958Y010985D01*
X016916Y010937D01*
X016872Y010893D01*
X016824Y010851D01*
X016775Y010813D01*
X016723Y010778D01*
X016669Y010746D01*
X016613Y010717D01*
X016555Y010692D01*
X016496Y010671D01*
X016436Y010653D01*
X016374Y010640D01*
X016312Y010630D01*
X016250Y010624D01*
X016187Y010622D01*
X016124Y010624D01*
X016062Y010630D01*
X016000Y010640D01*
X015938Y010653D01*
X015878Y010671D01*
X015819Y010692D01*
X015761Y010717D01*
X015705Y010746D01*
X015651Y010778D01*
X015599Y010813D01*
X015550Y010851D01*
X015502Y010893D01*
X015458Y010937D01*
X015416Y010985D01*
X015378Y011034D01*
X015343Y011086D01*
X015311Y011140D01*
X015282Y011196D01*
X015257Y011254D01*
X015236Y011313D01*
X015218Y011373D01*
X015205Y011435D01*
X015195Y011497D01*
X015189Y011559D01*
X015187Y011622D01*
X016187Y011372D02*
X016187Y011022D01*
X012662Y009713D02*
X010262Y009713D01*
X010212Y009711D01*
X010163Y009705D01*
X010114Y009696D01*
X010066Y009683D01*
X010019Y009666D01*
X009974Y009646D01*
X009930Y009622D01*
X009888Y009595D01*
X009848Y009564D01*
X009811Y009531D01*
X009777Y009495D01*
X009745Y009457D01*
X009716Y009416D01*
X009691Y009374D01*
X009669Y009329D01*
X009650Y009283D01*
X009635Y009235D01*
X009624Y009187D01*
X009616Y009138D01*
X009612Y009088D01*
X009612Y009038D01*
X009616Y008988D01*
X009624Y008939D01*
X009635Y008891D01*
X009650Y008843D01*
X009669Y008797D01*
X009691Y008752D01*
X009716Y008710D01*
X009745Y008669D01*
X009777Y008631D01*
X009811Y008595D01*
X009848Y008562D01*
X009888Y008531D01*
X009930Y008504D01*
X009974Y008480D01*
X010019Y008460D01*
X010066Y008443D01*
X010114Y008430D01*
X010163Y008421D01*
X010212Y008415D01*
X010262Y008413D01*
X012662Y008413D01*
X012712Y008415D01*
X012761Y008421D01*
X012810Y008430D01*
X012858Y008443D01*
X012905Y008460D01*
X012950Y008480D01*
X012994Y008504D01*
X013036Y008531D01*
X013076Y008562D01*
X013113Y008595D01*
X013147Y008631D01*
X013179Y008669D01*
X013208Y008710D01*
X013233Y008752D01*
X013255Y008797D01*
X013274Y008843D01*
X013289Y008891D01*
X013300Y008939D01*
X013308Y008988D01*
X013312Y009038D01*
X013312Y009088D01*
X013308Y009138D01*
X013300Y009187D01*
X013289Y009235D01*
X013274Y009283D01*
X013255Y009329D01*
X013233Y009374D01*
X013208Y009416D01*
X013179Y009457D01*
X013147Y009495D01*
X013113Y009531D01*
X013076Y009564D01*
X013036Y009595D01*
X012994Y009622D01*
X012950Y009646D01*
X012905Y009666D01*
X012858Y009683D01*
X012810Y009696D01*
X012761Y009705D01*
X012712Y009711D01*
X012662Y009713D01*
X011962Y009063D02*
X011712Y009063D01*
X011712Y008763D01*
X011562Y008763D02*
X011362Y008763D01*
X011362Y009363D01*
X011562Y009363D01*
X011562Y008763D01*
X011712Y009063D02*
X011712Y009363D01*
X011212Y009363D02*
X011212Y009063D01*
X010962Y009063D01*
X011212Y009063D02*
X011212Y008763D01*
X008122Y010830D02*
X007722Y010830D01*
X007322Y010830D01*
X007322Y011030D01*
X008122Y011030D01*
X008122Y010830D01*
X007722Y010830D02*
X007722Y010530D01*
X007122Y010730D02*
X006922Y010730D01*
X007022Y010630D02*
X007022Y010830D01*
X006722Y011130D02*
X006724Y011193D01*
X006730Y011255D01*
X006740Y011317D01*
X006753Y011379D01*
X006771Y011439D01*
X006792Y011498D01*
X006817Y011556D01*
X006846Y011612D01*
X006878Y011666D01*
X006913Y011718D01*
X006951Y011767D01*
X006993Y011815D01*
X007037Y011859D01*
X007085Y011901D01*
X007134Y011939D01*
X007186Y011974D01*
X007240Y012006D01*
X007296Y012035D01*
X007354Y012060D01*
X007413Y012081D01*
X007473Y012099D01*
X007535Y012112D01*
X007597Y012122D01*
X007659Y012128D01*
X007722Y012130D01*
X007785Y012128D01*
X007847Y012122D01*
X007909Y012112D01*
X007971Y012099D01*
X008031Y012081D01*
X008090Y012060D01*
X008148Y012035D01*
X008204Y012006D01*
X008258Y011974D01*
X008310Y011939D01*
X008359Y011901D01*
X008407Y011859D01*
X008451Y011815D01*
X008493Y011767D01*
X008531Y011718D01*
X008566Y011666D01*
X008598Y011612D01*
X008627Y011556D01*
X008652Y011498D01*
X008673Y011439D01*
X008691Y011379D01*
X008704Y011317D01*
X008714Y011255D01*
X008720Y011193D01*
X008722Y011130D01*
X008720Y011067D01*
X008714Y011005D01*
X008704Y010943D01*
X008691Y010881D01*
X008673Y010821D01*
X008652Y010762D01*
X008627Y010704D01*
X008598Y010648D01*
X008566Y010594D01*
X008531Y010542D01*
X008493Y010493D01*
X008451Y010445D01*
X008407Y010401D01*
X008359Y010359D01*
X008310Y010321D01*
X008258Y010286D01*
X008204Y010254D01*
X008148Y010225D01*
X008090Y010200D01*
X008031Y010179D01*
X007971Y010161D01*
X007909Y010148D01*
X007847Y010138D01*
X007785Y010132D01*
X007722Y010130D01*
X007659Y010132D01*
X007597Y010138D01*
X007535Y010148D01*
X007473Y010161D01*
X007413Y010179D01*
X007354Y010200D01*
X007296Y010225D01*
X007240Y010254D01*
X007186Y010286D01*
X007134Y010321D01*
X007085Y010359D01*
X007037Y010401D01*
X006993Y010445D01*
X006951Y010493D01*
X006913Y010542D01*
X006878Y010594D01*
X006846Y010648D01*
X006817Y010704D01*
X006792Y010762D01*
X006771Y010821D01*
X006753Y010881D01*
X006740Y010943D01*
X006730Y011005D01*
X006724Y011067D01*
X006722Y011130D01*
X007722Y011380D02*
X007722Y011730D01*
X004732Y012961D02*
X003732Y012961D01*
X003732Y013961D01*
X003732Y014961D01*
X003732Y015961D01*
X003732Y016961D01*
X003732Y017961D01*
X004732Y017961D01*
X004732Y016961D01*
X003732Y016961D01*
X004732Y016961D02*
X004732Y015961D01*
X003732Y015961D01*
X004732Y015961D02*
X004732Y014961D01*
X003732Y014961D01*
X004732Y014961D02*
X004732Y013961D01*
X003732Y013961D01*
X004732Y013961D02*
X004732Y012961D01*
X010060Y014102D02*
X010060Y014857D01*
X010700Y014857D02*
X010700Y014102D01*
X011733Y014102D02*
X011733Y014857D01*
X012373Y014857D02*
X012373Y014102D01*
X012717Y014097D02*
X012717Y014852D01*
X013357Y014852D02*
X013357Y014097D01*
X013961Y015815D02*
X013711Y016065D01*
X013711Y016565D01*
X013961Y016815D01*
X015461Y016815D01*
X015711Y017065D01*
X015711Y017565D01*
X015461Y017815D01*
X013961Y017815D01*
X013711Y018065D01*
X013711Y018565D01*
X013961Y018815D01*
X015461Y018815D01*
X015711Y019065D01*
X015711Y019565D01*
X015461Y019815D01*
X015711Y020065D01*
X015711Y020565D01*
X015461Y020815D01*
X013961Y020815D01*
X013711Y020565D01*
X013711Y020065D01*
X013961Y019815D01*
X015461Y019815D01*
X013961Y019815D02*
X013711Y019565D01*
X013711Y019065D01*
X013961Y018815D01*
X015461Y018815D02*
X015711Y018565D01*
X015711Y018065D01*
X015461Y017815D01*
X015461Y016815D02*
X015711Y016565D01*
X015711Y016065D01*
X015461Y015815D01*
X013961Y015815D01*
X013961Y016815D02*
X013711Y017065D01*
X013711Y017565D01*
X013961Y017815D01*
X011247Y017159D02*
X010492Y017159D01*
X010492Y016519D02*
X011247Y016519D01*
X007747Y018924D02*
X007747Y019679D01*
X007107Y019679D02*
X007107Y018924D01*
X005224Y020384D02*
X005066Y020384D01*
X004292Y020384D01*
X004066Y020384D01*
X003292Y020384D01*
X003134Y020384D01*
X003354Y020934D02*
X005004Y020934D01*
X005041Y020883D01*
X005076Y020830D01*
X005108Y020774D01*
X005136Y020717D01*
X005160Y020658D01*
X005181Y020598D01*
X005198Y020537D01*
X005212Y020475D01*
X005221Y020412D01*
X005227Y020349D01*
X005229Y020285D01*
X005227Y020221D01*
X005221Y020158D01*
X005212Y020095D01*
X005199Y020033D01*
X005181Y019972D01*
X005161Y019912D01*
X005136Y019853D01*
X005109Y019796D01*
X005077Y019740D01*
X005043Y019687D01*
X005005Y019636D01*
X004964Y019587D01*
X004920Y019541D01*
X004874Y019497D01*
X004825Y019456D01*
X004774Y019419D01*
X004720Y019384D01*
X004665Y019353D01*
X004608Y019325D01*
X004549Y019301D01*
X004489Y019281D01*
X004428Y019264D01*
X004367Y019251D01*
X004304Y019242D01*
X004242Y019236D01*
X004179Y019234D01*
X004116Y019236D01*
X004054Y019242D01*
X003991Y019251D01*
X003930Y019264D01*
X003869Y019281D01*
X003809Y019301D01*
X003750Y019325D01*
X003693Y019353D01*
X003638Y019384D01*
X003584Y019419D01*
X003533Y019456D01*
X003484Y019497D01*
X003438Y019541D01*
X003394Y019587D01*
X003353Y019636D01*
X003315Y019687D01*
X003281Y019740D01*
X003249Y019796D01*
X003222Y019853D01*
X003197Y019912D01*
X003177Y019972D01*
X003159Y020033D01*
X003146Y020095D01*
X003137Y020158D01*
X003131Y020221D01*
X003129Y020285D01*
X003131Y020349D01*
X003137Y020412D01*
X003146Y020475D01*
X003160Y020537D01*
X003177Y020598D01*
X003198Y020658D01*
X003222Y020717D01*
X003250Y020774D01*
X003282Y020830D01*
X003317Y020883D01*
X003354Y020934D01*
X009848Y024849D02*
X009848Y026349D01*
X010098Y026599D01*
X010598Y026599D01*
X010848Y026349D01*
X010848Y024849D01*
X010598Y024599D01*
X010098Y024599D01*
X009848Y024849D01*
X010848Y024849D02*
X011098Y024599D01*
X011598Y024599D01*
X011848Y024849D01*
X011848Y026349D01*
X011598Y026599D01*
X011098Y026599D01*
X010848Y026349D01*
X011848Y026349D02*
X012098Y026599D01*
X012598Y026599D01*
X012848Y026349D01*
X012848Y024849D01*
X012598Y024599D01*
X012098Y024599D01*
X011848Y024849D01*
X012848Y024849D02*
X013098Y024599D01*
X013598Y024599D01*
X013848Y024849D01*
X013848Y026349D01*
X013598Y026599D01*
X013098Y026599D01*
X012848Y026349D01*
X013848Y026349D02*
X014098Y026599D01*
X014598Y026599D01*
X014848Y026349D01*
X014848Y024849D01*
X014598Y024599D01*
X014098Y024599D01*
X013848Y024849D01*
X019355Y026263D02*
X020110Y026263D01*
X020110Y026903D02*
X019355Y026903D01*
X022659Y026250D02*
X022659Y024750D01*
X022909Y024500D01*
X023409Y024500D01*
X023659Y024750D01*
X023659Y026250D01*
X023409Y026500D01*
X022909Y026500D01*
X022659Y026250D01*
X023659Y026250D02*
X023909Y026500D01*
X024409Y026500D01*
X024659Y026250D01*
X024659Y024750D01*
X024409Y024500D01*
X023909Y024500D01*
X023659Y024750D01*
X024659Y024750D02*
X024909Y024500D01*
X025409Y024500D01*
X025659Y024750D01*
X025659Y026250D01*
X025409Y026500D01*
X024909Y026500D01*
X024659Y026250D01*
X024769Y021524D02*
X022369Y021524D01*
X023319Y021174D02*
X023319Y020874D01*
X023069Y020874D01*
X023319Y020874D02*
X023319Y020574D01*
X023469Y020574D02*
X023469Y021174D01*
X023669Y021174D01*
X023669Y020574D01*
X023469Y020574D01*
X023819Y020574D02*
X023819Y020874D01*
X024069Y020874D01*
X023819Y020874D02*
X023819Y021174D01*
X024769Y021524D02*
X024819Y021522D01*
X024868Y021516D01*
X024917Y021507D01*
X024965Y021494D01*
X025012Y021477D01*
X025057Y021457D01*
X025101Y021433D01*
X025143Y021406D01*
X025183Y021375D01*
X025220Y021342D01*
X025254Y021306D01*
X025286Y021268D01*
X025315Y021227D01*
X025340Y021185D01*
X025362Y021140D01*
X025381Y021094D01*
X025396Y021046D01*
X025407Y020998D01*
X025415Y020949D01*
X025419Y020899D01*
X025419Y020849D01*
X025415Y020799D01*
X025407Y020750D01*
X025396Y020702D01*
X025381Y020654D01*
X025362Y020608D01*
X025340Y020563D01*
X025315Y020521D01*
X025286Y020480D01*
X025254Y020442D01*
X025220Y020406D01*
X025183Y020373D01*
X025143Y020342D01*
X025101Y020315D01*
X025057Y020291D01*
X025012Y020271D01*
X024965Y020254D01*
X024917Y020241D01*
X024868Y020232D01*
X024819Y020226D01*
X024769Y020224D01*
X022369Y020224D01*
X022319Y020226D01*
X022270Y020232D01*
X022221Y020241D01*
X022173Y020254D01*
X022126Y020271D01*
X022081Y020291D01*
X022037Y020315D01*
X021995Y020342D01*
X021955Y020373D01*
X021918Y020406D01*
X021884Y020442D01*
X021852Y020480D01*
X021823Y020521D01*
X021798Y020563D01*
X021776Y020608D01*
X021757Y020654D01*
X021742Y020702D01*
X021731Y020750D01*
X021723Y020799D01*
X021719Y020849D01*
X021719Y020899D01*
X021723Y020949D01*
X021731Y020998D01*
X021742Y021046D01*
X021757Y021094D01*
X021776Y021140D01*
X021798Y021185D01*
X021823Y021227D01*
X021852Y021268D01*
X021884Y021306D01*
X021918Y021342D01*
X021955Y021375D01*
X021995Y021406D01*
X022037Y021433D01*
X022081Y021457D01*
X022126Y021477D01*
X022173Y021494D01*
X022221Y021507D01*
X022270Y021516D01*
X022319Y021522D01*
X022369Y021524D01*
X033627Y021588D02*
X034382Y021588D01*
X034382Y020948D02*
X033627Y020948D01*
X033627Y020702D02*
X034382Y020702D01*
X034382Y020062D02*
X033627Y020062D01*
X040413Y020161D02*
X041168Y020161D01*
X041168Y019718D02*
X040413Y019718D01*
X040413Y019078D02*
X041168Y019078D01*
X041168Y020801D02*
X040413Y020801D01*
X040381Y025082D02*
X039626Y025082D01*
X039626Y025722D02*
X040381Y025722D01*
X041693Y025722D02*
X042448Y025722D01*
X042448Y025082D02*
X041693Y025082D01*
X012348Y005726D02*
X012348Y005376D01*
X011348Y005126D02*
X011350Y005189D01*
X011356Y005251D01*
X011366Y005313D01*
X011379Y005375D01*
X011397Y005435D01*
X011418Y005494D01*
X011443Y005552D01*
X011472Y005608D01*
X011504Y005662D01*
X011539Y005714D01*
X011577Y005763D01*
X011619Y005811D01*
X011663Y005855D01*
X011711Y005897D01*
X011760Y005935D01*
X011812Y005970D01*
X011866Y006002D01*
X011922Y006031D01*
X011980Y006056D01*
X012039Y006077D01*
X012099Y006095D01*
X012161Y006108D01*
X012223Y006118D01*
X012285Y006124D01*
X012348Y006126D01*
X012411Y006124D01*
X012473Y006118D01*
X012535Y006108D01*
X012597Y006095D01*
X012657Y006077D01*
X012716Y006056D01*
X012774Y006031D01*
X012830Y006002D01*
X012884Y005970D01*
X012936Y005935D01*
X012985Y005897D01*
X013033Y005855D01*
X013077Y005811D01*
X013119Y005763D01*
X013157Y005714D01*
X013192Y005662D01*
X013224Y005608D01*
X013253Y005552D01*
X013278Y005494D01*
X013299Y005435D01*
X013317Y005375D01*
X013330Y005313D01*
X013340Y005251D01*
X013346Y005189D01*
X013348Y005126D01*
X013346Y005063D01*
X013340Y005001D01*
X013330Y004939D01*
X013317Y004877D01*
X013299Y004817D01*
X013278Y004758D01*
X013253Y004700D01*
X013224Y004644D01*
X013192Y004590D01*
X013157Y004538D01*
X013119Y004489D01*
X013077Y004441D01*
X013033Y004397D01*
X012985Y004355D01*
X012936Y004317D01*
X012884Y004282D01*
X012830Y004250D01*
X012774Y004221D01*
X012716Y004196D01*
X012657Y004175D01*
X012597Y004157D01*
X012535Y004144D01*
X012473Y004134D01*
X012411Y004128D01*
X012348Y004126D01*
X012285Y004128D01*
X012223Y004134D01*
X012161Y004144D01*
X012099Y004157D01*
X012039Y004175D01*
X011980Y004196D01*
X011922Y004221D01*
X011866Y004250D01*
X011812Y004282D01*
X011760Y004317D01*
X011711Y004355D01*
X011663Y004397D01*
X011619Y004441D01*
X011577Y004489D01*
X011539Y004538D01*
X011504Y004590D01*
X011472Y004644D01*
X011443Y004700D01*
X011418Y004758D01*
X011397Y004817D01*
X011379Y004877D01*
X011366Y004939D01*
X011356Y005001D01*
X011350Y005063D01*
X011348Y005126D01*
X011648Y004826D02*
X011648Y004626D01*
X011748Y004726D02*
X011548Y004726D01*
X011948Y004826D02*
X012348Y004826D01*
X012748Y004826D01*
X012748Y005026D01*
X011948Y005026D01*
X011948Y004826D01*
X012348Y004826D02*
X012348Y004526D01*
X006621Y004757D02*
X005866Y004757D01*
X005866Y004117D02*
X006621Y004117D01*
D15*
X010262Y008213D02*
X012662Y008213D01*
X012719Y008215D01*
X012775Y008221D01*
X012831Y008230D01*
X012887Y008243D01*
X012941Y008260D01*
X012994Y008280D01*
X013045Y008304D01*
X013095Y008332D01*
X013143Y008362D01*
X013189Y008396D01*
X013232Y008433D01*
X013273Y008472D01*
X013311Y008514D01*
X013346Y008559D01*
X013378Y008606D01*
X013407Y008655D01*
X013433Y008705D01*
X013455Y008758D01*
X013474Y008811D01*
X013489Y008866D01*
X013500Y008922D01*
X013508Y008978D01*
X013512Y009035D01*
X013512Y009091D01*
X013508Y009148D01*
X013500Y009204D01*
X013489Y009260D01*
X013474Y009315D01*
X013455Y009368D01*
X013433Y009421D01*
X013407Y009471D01*
X013378Y009520D01*
X013346Y009567D01*
X013311Y009612D01*
X013273Y009654D01*
X013232Y009693D01*
X013189Y009730D01*
X013143Y009764D01*
X013095Y009794D01*
X013045Y009822D01*
X012994Y009846D01*
X012941Y009866D01*
X012887Y009883D01*
X012831Y009896D01*
X012775Y009905D01*
X012719Y009911D01*
X012662Y009913D01*
X010262Y009913D01*
X010205Y009911D01*
X010149Y009905D01*
X010093Y009896D01*
X010037Y009883D01*
X009983Y009866D01*
X009930Y009846D01*
X009879Y009822D01*
X009829Y009794D01*
X009781Y009764D01*
X009735Y009730D01*
X009692Y009693D01*
X009651Y009654D01*
X009613Y009612D01*
X009578Y009567D01*
X009546Y009520D01*
X009517Y009471D01*
X009491Y009421D01*
X009469Y009368D01*
X009450Y009315D01*
X009435Y009260D01*
X009424Y009204D01*
X009416Y009148D01*
X009412Y009091D01*
X009412Y009035D01*
X009416Y008978D01*
X009424Y008922D01*
X009435Y008866D01*
X009450Y008811D01*
X009469Y008758D01*
X009491Y008705D01*
X009517Y008655D01*
X009546Y008606D01*
X009578Y008559D01*
X009613Y008514D01*
X009651Y008472D01*
X009692Y008433D01*
X009735Y008396D01*
X009781Y008362D01*
X009829Y008332D01*
X009879Y008304D01*
X009930Y008280D01*
X009983Y008260D01*
X010037Y008243D01*
X010093Y008230D01*
X010149Y008221D01*
X010205Y008215D01*
X010262Y008213D01*
X022369Y020024D02*
X024769Y020024D01*
X024826Y020026D01*
X024882Y020032D01*
X024938Y020041D01*
X024994Y020054D01*
X025048Y020071D01*
X025101Y020091D01*
X025152Y020115D01*
X025202Y020143D01*
X025250Y020173D01*
X025296Y020207D01*
X025339Y020244D01*
X025380Y020283D01*
X025418Y020325D01*
X025453Y020370D01*
X025485Y020417D01*
X025514Y020466D01*
X025540Y020516D01*
X025562Y020569D01*
X025581Y020622D01*
X025596Y020677D01*
X025607Y020733D01*
X025615Y020789D01*
X025619Y020846D01*
X025619Y020902D01*
X025615Y020959D01*
X025607Y021015D01*
X025596Y021071D01*
X025581Y021126D01*
X025562Y021179D01*
X025540Y021232D01*
X025514Y021282D01*
X025485Y021331D01*
X025453Y021378D01*
X025418Y021423D01*
X025380Y021465D01*
X025339Y021504D01*
X025296Y021541D01*
X025250Y021575D01*
X025202Y021605D01*
X025152Y021633D01*
X025101Y021657D01*
X025048Y021677D01*
X024994Y021694D01*
X024938Y021707D01*
X024882Y021716D01*
X024826Y021722D01*
X024769Y021724D01*
X022369Y021724D01*
X022312Y021722D01*
X022256Y021716D01*
X022200Y021707D01*
X022144Y021694D01*
X022090Y021677D01*
X022037Y021657D01*
X021986Y021633D01*
X021936Y021605D01*
X021888Y021575D01*
X021842Y021541D01*
X021799Y021504D01*
X021758Y021465D01*
X021720Y021423D01*
X021685Y021378D01*
X021653Y021331D01*
X021624Y021282D01*
X021598Y021232D01*
X021576Y021179D01*
X021557Y021126D01*
X021542Y021071D01*
X021531Y021015D01*
X021523Y020959D01*
X021519Y020902D01*
X021519Y020846D01*
X021523Y020789D01*
X021531Y020733D01*
X021542Y020677D01*
X021557Y020622D01*
X021576Y020569D01*
X021598Y020516D01*
X021624Y020466D01*
X021653Y020417D01*
X021685Y020370D01*
X021720Y020325D01*
X021758Y020283D01*
X021799Y020244D01*
X021842Y020207D01*
X021888Y020173D01*
X021936Y020143D01*
X021986Y020115D01*
X022037Y020091D01*
X022090Y020071D01*
X022144Y020054D01*
X022200Y020041D01*
X022256Y020032D01*
X022312Y020026D01*
X022369Y020024D01*
D16*
X004672Y021730D03*
X003687Y021730D03*
X003687Y022775D03*
X004671Y022775D03*
X025439Y005353D03*
X026423Y005353D03*
X026423Y004309D03*
X025439Y004309D03*
X042270Y018383D03*
X042269Y019428D03*
X042270Y020450D03*
X042269Y021495D03*
D17*
X038166Y022646D03*
X037121Y022646D03*
X037121Y023630D03*
X038166Y023631D03*
X038166Y024516D03*
X037121Y024516D03*
X037121Y025402D03*
X038166Y025402D03*
X025272Y022449D03*
X024228Y022449D03*
X022910Y022449D03*
X021865Y022449D03*
X011296Y021072D03*
X010251Y021071D03*
X008146Y020776D03*
X007102Y020776D03*
X010350Y015953D03*
X011394Y015953D03*
X024129Y009555D03*
X025174Y009556D03*
X030527Y010539D03*
X031571Y010540D03*
X013166Y007489D03*
X012121Y007488D03*
X010804Y007489D03*
X009759Y007488D03*
D18*
X019124Y023910D02*
X020337Y023910D01*
X020730Y024303D01*
X020730Y024422D02*
X020730Y025398D01*
X020730Y025516D02*
X020337Y025910D01*
X019124Y025910D01*
X018730Y025516D01*
X018730Y025410D02*
X018730Y024422D01*
X018730Y024303D02*
X019124Y023910D01*
X019230Y024910D02*
X019232Y024954D01*
X019238Y024998D01*
X019248Y025041D01*
X019261Y025083D01*
X019278Y025124D01*
X019299Y025163D01*
X019323Y025200D01*
X019350Y025235D01*
X019380Y025267D01*
X019413Y025297D01*
X019449Y025323D01*
X019486Y025347D01*
X019526Y025366D01*
X019567Y025383D01*
X019610Y025395D01*
X019653Y025404D01*
X019697Y025409D01*
X019741Y025410D01*
X019785Y025407D01*
X019829Y025400D01*
X019872Y025389D01*
X019914Y025375D01*
X019954Y025357D01*
X019993Y025335D01*
X020029Y025311D01*
X020063Y025283D01*
X020095Y025252D01*
X020124Y025218D01*
X020150Y025182D01*
X020172Y025144D01*
X020191Y025104D01*
X020206Y025062D01*
X020218Y025020D01*
X020226Y024976D01*
X020230Y024932D01*
X020230Y024888D01*
X020226Y024844D01*
X020218Y024800D01*
X020206Y024758D01*
X020191Y024716D01*
X020172Y024676D01*
X020150Y024638D01*
X020124Y024602D01*
X020095Y024568D01*
X020063Y024537D01*
X020029Y024509D01*
X019993Y024485D01*
X019954Y024463D01*
X019914Y024445D01*
X019872Y024431D01*
X019829Y024420D01*
X019785Y024413D01*
X019741Y024410D01*
X019697Y024411D01*
X019653Y024416D01*
X019610Y024425D01*
X019567Y024437D01*
X019526Y024454D01*
X019486Y024473D01*
X019449Y024497D01*
X019413Y024523D01*
X019380Y024553D01*
X019350Y024585D01*
X019323Y024620D01*
X019299Y024657D01*
X019278Y024696D01*
X019261Y024737D01*
X019248Y024779D01*
X019238Y024822D01*
X019232Y024866D01*
X019230Y024910D01*
D19*
X019210Y026583D03*
X020250Y026583D03*
X033482Y021268D03*
X034522Y021268D03*
X034522Y020382D03*
X033482Y020382D03*
X040273Y020481D03*
X041313Y020481D03*
X041313Y019398D03*
X040273Y019398D03*
X040526Y025402D03*
X041553Y025402D03*
X042593Y025402D03*
X039486Y025402D03*
X026648Y010441D03*
X025608Y010441D03*
X011392Y016839D03*
X010352Y016839D03*
X006766Y004437D03*
X005726Y004437D03*
X040470Y009260D03*
X041510Y009260D03*
D20*
X003482Y013461D02*
X001232Y013461D01*
X001232Y014461D02*
X003482Y014461D01*
X003482Y015461D02*
X001232Y015461D01*
X001232Y016461D02*
X003482Y016461D01*
X003482Y017461D02*
X001232Y017461D01*
D21*
X003632Y017461D03*
X003632Y016461D03*
X003632Y015461D03*
X003632Y014461D03*
X003632Y013461D03*
D22*
X004932Y013461D03*
X004932Y014461D03*
X004932Y015461D03*
X004932Y016461D03*
X004932Y017461D03*
D23*
X005982Y017461D03*
X005982Y016461D03*
X005982Y015461D03*
X005982Y014461D03*
X005982Y013461D03*
D24*
X005482Y013461D03*
X005482Y014461D03*
X005482Y015461D03*
X005482Y016461D03*
X005482Y017461D03*
D25*
X014211Y017315D03*
X015211Y017315D03*
X015211Y018315D03*
X014211Y018315D03*
X014211Y019315D03*
X015211Y019315D03*
X015211Y020315D03*
X014211Y020315D03*
X014211Y016315D03*
X015211Y016315D03*
X023159Y025000D03*
X024159Y025000D03*
X025159Y025000D03*
X025159Y026000D03*
X024159Y026000D03*
X023159Y026000D03*
X014348Y026099D03*
X013348Y026099D03*
X012348Y026099D03*
X011348Y026099D03*
X010348Y026099D03*
X010348Y025099D03*
X011348Y025099D03*
X012348Y025099D03*
X013348Y025099D03*
X014348Y025099D03*
X033864Y006217D03*
X034864Y006217D03*
X035864Y006217D03*
X036864Y006217D03*
X037864Y006217D03*
X038864Y006217D03*
X038864Y005217D03*
X037864Y005217D03*
X036864Y005217D03*
X035864Y005217D03*
X034864Y005217D03*
X033864Y005217D03*
D26*
X035542Y020146D03*
X035542Y021032D03*
X006871Y005658D03*
D27*
X006792Y005712D03*
X035621Y020092D03*
X035621Y020978D03*
D28*
X035641Y021115D03*
X035641Y020230D03*
X006773Y005574D03*
D29*
X006753Y005594D03*
X035660Y020210D03*
X035660Y021096D03*
D30*
X035587Y021504D03*
X035587Y020618D03*
X006827Y005185D03*
D31*
X006753Y005205D03*
X035660Y020599D03*
X035660Y021485D03*
D32*
X035734Y021268D03*
X035734Y020382D03*
X006679Y005422D03*
D33*
X005734Y005422D03*
X036679Y020382D03*
X036679Y021268D03*
D34*
X035946Y020997D03*
X035946Y020653D03*
X035946Y020112D03*
X035946Y021539D03*
X006467Y005692D03*
X006467Y005151D03*
D35*
X006315Y005422D03*
X036098Y020382D03*
X036098Y021268D03*
D36*
X039514Y011650D03*
X039514Y010610D03*
X038825Y008993D03*
X037840Y008993D03*
X036856Y008993D03*
X035872Y008993D03*
X034888Y008993D03*
X033903Y008993D03*
X033903Y007953D03*
X034888Y007953D03*
X035872Y007953D03*
X036856Y007953D03*
X037840Y007953D03*
X038825Y007953D03*
X031935Y006138D03*
X031935Y005098D03*
X024750Y007559D03*
X024750Y008599D03*
X013037Y013957D03*
X012053Y013957D03*
X012053Y014997D03*
X013037Y014997D03*
X010380Y014997D03*
X010380Y013957D03*
X007427Y018779D03*
X007427Y019819D03*
D37*
X007722Y011330D03*
X016187Y011422D03*
X012348Y005326D03*
D38*
X007786Y009359D03*
X006276Y009359D03*
D39*
X023670Y005323D03*
D40*
X018057Y010865D03*
X018057Y012375D03*
X010576Y005879D03*
X010576Y004369D03*
D41*
X034011Y009876D03*
X034391Y010416D03*
X034771Y009876D03*
X035979Y009876D03*
X036359Y010416D03*
X036739Y009876D03*
X037948Y009876D03*
X038328Y010416D03*
X038708Y009876D03*
M02*
