G75*
G70*
%OFA0B0*%
%FSLAX24Y24*%
%IPPOS*%
%LPD*%
%AMOC8*
5,1,8,0,0,1.08239X$1,22.5*
%
%ADD10C,0.1438*%
%ADD11C,0.0532*%
%ADD12C,0.0414*%
%ADD13C,0.0540*%
%ADD14OC8,0.0660*%
%ADD15R,0.0660X0.0660*%
%ADD16R,0.0769X0.0769*%
%ADD17C,0.0769*%
%ADD18OC8,0.0540*%
%ADD19R,0.0769X0.0690*%
%ADD20OC8,0.0560*%
%ADD21C,0.0560*%
%ADD22C,0.0375*%
D10*
X007525Y007685D03*
X007525Y023630D03*
X040793Y023237D03*
X040793Y007685D03*
D11*
X033962Y014969D03*
D12*
X044966Y019221D03*
X044966Y020953D03*
D13*
X024519Y020874D03*
X022619Y020874D03*
X012412Y009063D03*
X010512Y009063D03*
X025431Y006307D03*
X026431Y006307D03*
D14*
X033864Y006217D03*
X034864Y006217D03*
X035864Y006217D03*
X036864Y006217D03*
X037864Y006217D03*
X038864Y006217D03*
X038864Y005217D03*
X037864Y005217D03*
X036864Y005217D03*
X035864Y005217D03*
X034864Y005217D03*
X014211Y016315D03*
X014211Y017315D03*
X015211Y017315D03*
X015211Y018315D03*
X014211Y018315D03*
X014211Y019315D03*
X015211Y019315D03*
X015211Y020315D03*
X014211Y020315D03*
X006482Y017461D03*
X005482Y017461D03*
X005482Y016461D03*
X006482Y016461D03*
X006482Y015461D03*
X005482Y015461D03*
X005482Y014461D03*
X006482Y014461D03*
X005482Y013461D03*
X023159Y025000D03*
X024159Y025000D03*
X025159Y025000D03*
X024159Y026000D03*
X023159Y026000D03*
X014348Y025099D03*
X013348Y025099D03*
X012348Y025099D03*
X011348Y025099D03*
X010348Y025099D03*
X010348Y026099D03*
X011348Y026099D03*
X012348Y026099D03*
X013348Y026099D03*
D15*
X014348Y026099D03*
X025159Y026000D03*
X015211Y016315D03*
X006482Y013461D03*
X033864Y005217D03*
D16*
X002998Y010555D03*
D17*
X002998Y009555D03*
X002998Y008555D03*
D18*
X004179Y019534D03*
X003679Y020284D03*
X004679Y020284D03*
D19*
X023175Y017095D03*
X024159Y017095D03*
X025144Y017095D03*
X025144Y015992D03*
X024159Y015992D03*
X023175Y015992D03*
X023175Y014929D03*
X024159Y014929D03*
X025144Y014929D03*
X025144Y013827D03*
X024159Y013827D03*
X023175Y013827D03*
D20*
X016187Y011222D03*
X007722Y011530D03*
X012348Y005526D03*
X023870Y005323D03*
D21*
X012348Y004726D03*
X023070Y005323D03*
X016187Y012022D03*
X007722Y010730D03*
D22*
X009789Y011918D03*
X009789Y012311D03*
X008116Y012902D03*
X011364Y014181D03*
X011069Y015067D03*
X009691Y015067D03*
X008116Y015067D03*
X012053Y016642D03*
X013825Y015559D03*
X016187Y016248D03*
X018943Y015461D03*
X019730Y014674D03*
X020321Y014772D03*
X020321Y014378D03*
X020321Y013985D03*
X019337Y013788D03*
X019337Y013000D03*
X019337Y012607D03*
X021010Y011524D03*
X021403Y011524D03*
X021797Y011524D03*
X022191Y011524D03*
X023962Y010343D03*
X024356Y010441D03*
X024651Y010737D03*
X024750Y011130D03*
X025931Y009851D03*
X027309Y010441D03*
X026817Y008473D03*
X026423Y008473D03*
X026029Y008473D03*
X025537Y007882D03*
X026325Y006799D03*
X028490Y007292D03*
X031246Y006209D03*
X032624Y005126D03*
X033018Y004929D03*
X033411Y004437D03*
X033411Y004044D03*
X031049Y004634D03*
X030655Y004831D03*
X028392Y004240D03*
X027998Y004437D03*
X027604Y004634D03*
X024061Y006799D03*
X021994Y004831D03*
X031640Y009949D03*
X033608Y009752D03*
X035583Y009746D03*
X037545Y009752D03*
X037447Y007292D03*
X037939Y007292D03*
X036561Y007292D03*
X041777Y011327D03*
X040793Y012114D03*
X041088Y012410D03*
X040793Y012705D03*
X040498Y013000D03*
X041088Y013000D03*
X041777Y012607D03*
X041777Y013492D03*
X039711Y012410D03*
X039415Y012705D03*
X038333Y012902D03*
X035774Y012508D03*
X038333Y014674D03*
X035774Y017331D03*
X039218Y019398D03*
X037742Y020481D03*
X036069Y022154D03*
X036069Y022548D03*
X034986Y021859D03*
X033608Y021859D03*
X034789Y023433D03*
X034789Y023827D03*
X034789Y024516D03*
X036167Y024319D03*
X032427Y024221D03*
X032427Y023729D03*
X031049Y023335D03*
X027604Y025008D03*
X018549Y026583D03*
X009592Y021071D03*
X009002Y020776D03*
X010183Y019988D03*
X010183Y018512D03*
X016187Y018315D03*
X020321Y018020D03*
X020321Y017626D03*
X020321Y017233D03*
X020321Y016839D03*
X020321Y016445D03*
X021699Y016544D03*
X021699Y016937D03*
X022092Y016937D03*
X022092Y016544D03*
X022486Y016544D03*
X022486Y016937D03*
X022486Y017331D03*
X022092Y017331D03*
X021699Y017331D03*
X023175Y017725D03*
X025144Y017725D03*
X025833Y017922D03*
X026226Y017922D03*
X026620Y017922D03*
X026620Y017528D03*
X026226Y017528D03*
X025833Y017528D03*
X025734Y017134D03*
X026620Y016248D03*
X026620Y015264D03*
X026226Y014969D03*
X026226Y014575D03*
X026620Y014575D03*
X026620Y014181D03*
X026226Y014181D03*
X025734Y013886D03*
X026620Y013394D03*
X026620Y013000D03*
X026226Y013000D03*
X025833Y013000D03*
X025439Y013000D03*
X024159Y013197D03*
X022585Y013788D03*
X022486Y014575D03*
X022092Y014575D03*
X021699Y014575D03*
X021699Y014969D03*
X022092Y014969D03*
X022486Y014969D03*
X022486Y015362D03*
X022092Y015362D03*
X021699Y015362D03*
X020321Y015166D03*
X021108Y018512D03*
X021699Y019299D03*
X022092Y019299D03*
X022486Y019299D03*
X025931Y019299D03*
X026325Y019299D03*
X027014Y018611D03*
X027309Y018315D03*
X029474Y016051D03*
X029081Y015855D03*
X029081Y014477D03*
X029573Y014181D03*
X029573Y013788D03*
X029966Y013788D03*
X029966Y014181D03*
X029966Y013394D03*
X030754Y013394D03*
X031148Y013394D03*
X030754Y013788D03*
X030951Y012311D03*
X028392Y013394D03*
X027998Y013394D03*
X028293Y013886D03*
X027998Y014181D03*
X028293Y014477D03*
X016876Y010638D03*
X040596Y024811D03*
X042663Y024811D03*
X043352Y019398D03*
X046305Y013886D03*
X046305Y013492D03*
X046305Y012705D03*
X046305Y012311D03*
X046305Y011918D03*
X046305Y011524D03*
X046305Y011130D03*
X044238Y010343D03*
M02*
